<svg width="393" height="146" viewBox="0 0 393 146" fill="none" xmlns="http://www.w3.org/2000/svg">
<path d="M89.4043 111.481L64.8124 138V111.481L58.8368 99.2594L64.8124 88.1907L40.9099 84.9623L30.5675 73.8936L23.9024 59.8271L4.82645 54.9845L0 48.2971H20.6848L40.9099 39.0732L69.1792 48.2971L74.6951 59.8271L58.8368 73.8936L45.9662 77.122L64.8124 88.1907L89.4043 99.2594V111.481Z" fill="white" fill-opacity="0.09"/>
<path d="M77.6829 47.6053L69.1792 42.7627V39.0732L95.6098 34L98.5976 47.6053L82.7392 54.9845L77.6829 47.6053Z" fill="white" fill-opacity="0.09"/>
<path d="M106.642 77.122L115.835 73.8936L122.5 71.357L130.544 75.7384H137.209L140.197 71.357L132.842 67.898L130.544 69.5122L124.339 65.8226L128.246 69.5122L126.637 71.357L124.339 67.898H119.972L115.835 71.357H109.859V67.898H115.835V65.8226L112.617 63.286L119.972 59.8271H128.246L132.842 57.0599L135.141 52.6785L122.5 57.0599L119.972 52.6785L130.544 48.2971L145.483 50.3725L155.136 47.6053L191.449 42.7627L243.161 47.6053L245 50.3725L213.513 57.0599L217.19 61.6718L206.618 73.8936L200.183 69.5122L202.941 77.122L191.449 84.9623L191 92L179.498 84.9623L175 93.0333L165.478 77.122H156.745L151.229 84.9623L140.197 75.7384L151.229 93.0333L137.209 121.858H130.544L122.5 93.0333H106.642V77.122Z" fill="white" fill-opacity="0.09"/>
<path d="M206.618 121.858L209.5 111.481L224 104.5L241 115.5L233.968 127.162L223 119.5L216 121.5L206.618 121.858Z" fill="white" fill-opacity="0.09"/>
<path d="M199.5 100.5L197 98H200.183L205.5 97L209.5 96H212L216.5 97L219.5 98H215.5L209.5 97L202.941 99L199.5 100.5Z" fill="white" fill-opacity="0.09"/>
<path d="M192 95.5L191 93L192 94L193.5 95L192 95.5Z" fill="white" fill-opacity="0.09"/>
<path d="M66 61L24.5 20H123.5" stroke="#FFEB3B" stroke-linejoin="round"/>
<path d="M38.2129 7.0293L38.1787 7.02246L34.959 15H34.0635L30.8438 7.0293L30.8096 7.03613L30.9463 11.0625V13.9473L32.0605 14.1387V15H28.4854V14.1387L29.5996 13.9473V6.10645L28.4854 5.91504V5.04688H29.5996H31.3223L34.4941 13.1338H34.5352L37.7002 5.04688H40.5439V5.91504L39.4297 6.10645V13.9473L40.5439 14.1387V15H36.9688V14.1387L38.083 13.9473V11.0625L38.2129 7.0293ZM41.6445 11.2334C41.6445 10.1396 41.9408 9.23958 42.5332 8.5332C43.1257 7.82227 43.93 7.4668 44.9463 7.4668C45.9671 7.4668 46.7738 7.81999 47.3662 8.52637C47.9632 9.23275 48.2617 10.1351 48.2617 11.2334V11.3838C48.2617 12.4867 47.9655 13.389 47.373 14.0908C46.7806 14.7926 45.9762 15.1436 44.96 15.1436C43.9346 15.1436 43.1257 14.7926 42.5332 14.0908C41.9408 13.3844 41.6445 12.4821 41.6445 11.3838V11.2334ZM42.9912 11.3838C42.9912 12.1676 43.1553 12.8148 43.4834 13.3252C43.8161 13.8356 44.3083 14.0908 44.96 14.0908C45.598 14.0908 46.0833 13.8356 46.416 13.3252C46.7487 12.8148 46.915 12.1676 46.915 11.3838V11.2334C46.915 10.4587 46.7487 9.8138 46.416 9.29883C46.0833 8.78385 45.5934 8.52637 44.9463 8.52637C44.2992 8.52637 43.8115 8.78385 43.4834 9.29883C43.1553 9.8138 42.9912 10.4587 42.9912 11.2334V11.3838ZM49.3008 14.1387L50.415 13.9473V8.66309L49.3008 8.47168V7.60352H51.6182L51.7139 8.7041C51.96 8.31217 52.2676 8.00911 52.6367 7.79492C53.0104 7.57617 53.4342 7.4668 53.9082 7.4668C54.7057 7.4668 55.3232 7.7015 55.7607 8.1709C56.1982 8.63574 56.417 9.35579 56.417 10.3311V13.9473L57.5312 14.1387V15H53.9561V14.1387L55.0703 13.9473V10.3584C55.0703 9.70671 54.9404 9.24414 54.6807 8.9707C54.4255 8.69727 54.0335 8.56055 53.5049 8.56055C53.1175 8.56055 52.7734 8.65397 52.4727 8.84082C52.1764 9.02767 51.9395 9.28288 51.7617 9.60645V13.9473L52.876 14.1387V15H49.3008V14.1387ZM60.8604 5.81934V7.60352H62.2617V8.60156H60.8604V13.0928C60.8604 13.4391 60.931 13.6829 61.0723 13.8242C61.2181 13.9655 61.4095 14.0361 61.6465 14.0361C61.765 14.0361 61.8971 14.027 62.043 14.0088C62.1934 13.986 62.3187 13.9632 62.4189 13.9404L62.6035 14.8633C62.4759 14.9453 62.2891 15.0114 62.043 15.0615C61.7969 15.1162 61.5508 15.1436 61.3047 15.1436C60.7578 15.1436 60.3226 14.9795 59.999 14.6514C59.6755 14.3187 59.5137 13.7992 59.5137 13.0928V8.60156H58.3447V7.60352H59.5137V5.81934H60.8604ZM63.6357 8.47168V7.60352H65.9531L66.083 8.67676C66.2926 8.2985 66.5501 8.00228 66.8555 7.78809C67.1654 7.57389 67.5186 7.4668 67.915 7.4668C68.0199 7.4668 68.127 7.47591 68.2363 7.49414C68.3503 7.50781 68.4368 7.52376 68.4961 7.54199L68.3184 8.79297L67.5527 8.75195C67.1973 8.75195 66.8988 8.83626 66.6572 9.00488C66.4157 9.16895 66.2288 9.40137 66.0967 9.70215V13.9473L67.2109 14.1387V15H63.6357V14.1387L64.75 13.9473V8.66309L63.6357 8.47168ZM72.6729 15.1436C71.6429 15.1436 70.8226 14.8018 70.2119 14.1182C69.6058 13.43 69.3027 12.5391 69.3027 11.4453V11.1445C69.3027 10.0918 69.6149 9.2168 70.2393 8.51953C70.8682 7.81771 71.611 7.4668 72.4678 7.4668C73.4613 7.4668 74.2132 7.76758 74.7236 8.36914C75.2386 8.9707 75.4961 9.77279 75.4961 10.7754V11.6162H70.6973L70.6768 11.6504C70.6904 12.3613 70.8704 12.9469 71.2168 13.4072C71.5632 13.863 72.0485 14.0908 72.6729 14.0908C73.1286 14.0908 73.5273 14.027 73.8691 13.8994C74.2155 13.7673 74.514 13.5872 74.7646 13.3594L75.291 14.2344C75.0267 14.4896 74.6758 14.7061 74.2383 14.8838C73.8053 15.057 73.2835 15.1436 72.6729 15.1436ZM72.4678 8.52637C72.0166 8.52637 71.6315 8.71777 71.3125 9.10059C70.9935 9.47884 70.7975 9.95508 70.7246 10.5293L70.7383 10.5635H74.1494V10.3857C74.1494 9.8571 74.0081 9.41504 73.7256 9.05957C73.443 8.7041 73.0238 8.52637 72.4678 8.52637ZM81.6553 15C81.6143 14.7995 81.5824 14.6195 81.5596 14.46C81.5368 14.3005 81.5208 14.141 81.5117 13.9814C81.252 14.3141 80.9261 14.5921 80.5342 14.8154C80.1468 15.0342 79.7321 15.1436 79.29 15.1436C78.5199 15.1436 77.9342 14.9567 77.5332 14.583C77.1322 14.2048 76.9316 13.6738 76.9316 12.9902C76.9316 12.2884 77.2142 11.7484 77.7793 11.3701C78.349 10.9873 79.1283 10.7959 80.1172 10.7959H81.5049V9.93457C81.5049 9.50163 81.3682 9.15983 81.0947 8.90918C80.8213 8.65397 80.4408 8.52637 79.9531 8.52637C79.6159 8.52637 79.3174 8.56966 79.0576 8.65625C78.8024 8.74284 78.5951 8.86133 78.4355 9.01172L78.292 9.79102H77.2529V8.35547C77.5902 8.08659 77.998 7.8724 78.4766 7.71289C78.9551 7.54883 79.4746 7.4668 80.0352 7.4668C80.8737 7.4668 81.5527 7.68099 82.0723 8.10938C82.5918 8.53776 82.8516 9.15072 82.8516 9.94824V13.5098C82.8516 13.6055 82.8516 13.6989 82.8516 13.79C82.8561 13.8812 82.863 13.9723 82.8721 14.0635L83.4189 14.1387V15H81.6553ZM79.4883 14.0156C79.9349 14.0156 80.3428 13.9085 80.7119 13.6943C81.0811 13.4801 81.3454 13.2227 81.5049 12.9219V11.7051H80.0693C79.5179 11.7051 79.0804 11.8327 78.7568 12.0879C78.4378 12.3431 78.2783 12.653 78.2783 13.0176C78.2783 13.3411 78.3786 13.5895 78.5791 13.7627C78.7796 13.9313 79.0827 14.0156 79.4883 14.0156ZM84.3555 5.2041V4.33594H86.8164V13.9473L87.9307 14.1387V15H84.3555V14.1387L85.4697 13.9473V5.39551L84.3555 5.2041ZM90.501 14.5078C90.501 14.9544 90.3893 15.4215 90.166 15.9092C89.9427 16.3968 89.6419 16.8024 89.2637 17.126L88.5049 16.6201C88.7191 16.292 88.8809 15.957 88.9902 15.6152C89.0996 15.2734 89.1543 14.9111 89.1543 14.5283V13.4893H90.501V14.5078ZM102.799 8.10254H101.849L101.596 6.69434C101.377 6.48014 101.108 6.30469 100.789 6.16797C100.47 6.03125 100.09 5.96289 99.6475 5.96289C98.613 5.96289 97.8177 6.33887 97.2617 7.09082C96.7057 7.83822 96.4277 8.78841 96.4277 9.94141V10.0986C96.4277 11.2516 96.6989 12.2064 97.2412 12.9629C97.7881 13.7148 98.5446 14.0908 99.5107 14.0908C99.9619 14.0908 100.372 14.0202 100.741 13.8789C101.11 13.7376 101.395 13.5645 101.596 13.3594L101.849 11.9512H102.799V13.7217C102.512 14.0908 102.081 14.4212 101.507 14.7129C100.933 15 100.267 15.1436 99.5107 15.1436C98.2165 15.1436 97.1546 14.665 96.3252 13.708C95.4958 12.751 95.0811 11.5479 95.0811 10.0986V9.95508C95.0811 8.49674 95.4889 7.29134 96.3047 6.33887C97.1204 5.38184 98.1891 4.90332 99.5107 4.90332C100.267 4.90332 100.933 5.05143 101.507 5.34766C102.081 5.63932 102.512 5.96745 102.799 6.33203V8.10254ZM104.009 14.1387L104.747 14.0361L108.227 5.04688H109.382L112.8 14.0361L113.531 14.1387V15H110.674V14.1387L111.426 14.0088L110.77 12.1768H106.784L106.107 14.0088L106.859 14.1387V15H104.009V14.1387ZM107.201 11.0488H110.359L108.814 6.77637H108.773L107.201 11.0488ZM124.12 5.04688V5.91504L123.006 6.10645V15H121.659L116.874 7.31641L116.833 7.33008V13.9473L117.947 14.1387V15H114.372V14.1387L115.486 13.9473V6.10645L114.372 5.91504V5.04688H115.486H116.833L121.618 12.7236L121.659 12.71V6.10645L120.545 5.91504V5.04688H123.006H124.12Z" fill="white"/>
<path d="M161.847 131.047C162.886 131.047 163.697 131.272 164.28 131.724C164.868 132.17 165.162 132.842 165.162 133.74C165.162 134.182 165.021 134.579 164.738 134.93C164.46 135.276 164.091 135.534 163.631 135.702C164.228 135.83 164.7 136.124 165.046 136.584C165.392 137.044 165.565 137.58 165.565 138.19C165.565 139.102 165.269 139.799 164.677 140.282C164.084 140.761 163.282 141 162.271 141H157.485V140.139L158.6 139.947V132.106L157.485 131.915V131.047H158.6H161.847ZM159.946 136.331V139.947H162.271C162.886 139.947 163.362 139.797 163.699 139.496C164.041 139.191 164.212 138.76 164.212 138.204C164.212 137.621 164.068 137.163 163.781 136.83C163.499 136.497 163.063 136.331 162.476 136.331H159.946ZM159.946 135.278H162.195C162.678 135.265 163.068 135.121 163.364 134.848C163.665 134.574 163.815 134.196 163.815 133.713C163.815 133.175 163.647 132.774 163.31 132.51C162.972 132.241 162.485 132.106 161.847 132.106H159.946V135.278ZM170.187 141.144C169.157 141.144 168.336 140.802 167.726 140.118C167.119 139.43 166.816 138.539 166.816 137.445V137.145C166.816 136.092 167.129 135.217 167.753 134.52C168.382 133.818 169.125 133.467 169.981 133.467C170.975 133.467 171.727 133.768 172.237 134.369C172.752 134.971 173.01 135.773 173.01 136.775V137.616H168.211L168.19 137.65C168.204 138.361 168.384 138.947 168.73 139.407C169.077 139.863 169.562 140.091 170.187 140.091C170.642 140.091 171.041 140.027 171.383 139.899C171.729 139.767 172.028 139.587 172.278 139.359L172.805 140.234C172.54 140.49 172.189 140.706 171.752 140.884C171.319 141.057 170.797 141.144 170.187 141.144ZM169.981 134.526C169.53 134.526 169.145 134.718 168.826 135.101C168.507 135.479 168.311 135.955 168.238 136.529L168.252 136.563H171.663V136.386C171.663 135.857 171.522 135.415 171.239 135.06C170.957 134.704 170.537 134.526 169.981 134.526ZM174.158 131.204V130.336H176.619V139.947L177.733 140.139V141H174.158V140.139L175.272 139.947V131.396L174.158 131.204ZM178.629 134.602V133.604H179.784V132.667C179.784 131.879 179.989 131.27 180.399 130.842C180.814 130.409 181.391 130.192 182.129 130.192C182.284 130.192 182.439 130.206 182.594 130.233C182.753 130.256 182.929 130.29 183.12 130.336L182.956 131.361C182.874 131.343 182.774 131.327 182.655 131.313C182.541 131.3 182.423 131.293 182.3 131.293C181.903 131.293 181.609 131.411 181.418 131.648C181.227 131.881 181.131 132.22 181.131 132.667V133.604H182.676V134.602H181.131V139.947L182.245 140.139V141H178.67V140.139L179.784 139.947V134.602H178.629ZM183.742 137.233C183.742 136.14 184.038 135.24 184.631 134.533C185.223 133.822 186.028 133.467 187.044 133.467C188.065 133.467 188.871 133.82 189.464 134.526C190.061 135.233 190.359 136.135 190.359 137.233V137.384C190.359 138.487 190.063 139.389 189.471 140.091C188.878 140.793 188.074 141.144 187.058 141.144C186.032 141.144 185.223 140.793 184.631 140.091C184.038 139.384 183.742 138.482 183.742 137.384V137.233ZM185.089 137.384C185.089 138.168 185.253 138.815 185.581 139.325C185.914 139.836 186.406 140.091 187.058 140.091C187.696 140.091 188.181 139.836 188.514 139.325C188.846 138.815 189.013 138.168 189.013 137.384V137.233C189.013 136.459 188.846 135.814 188.514 135.299C188.181 134.784 187.691 134.526 187.044 134.526C186.397 134.526 185.909 134.784 185.581 135.299C185.253 135.814 185.089 136.459 185.089 137.233V137.384ZM191.597 134.472V133.604H193.914L194.044 134.677C194.254 134.299 194.511 134.002 194.816 133.788C195.126 133.574 195.479 133.467 195.876 133.467C195.981 133.467 196.088 133.476 196.197 133.494C196.311 133.508 196.398 133.524 196.457 133.542L196.279 134.793L195.514 134.752C195.158 134.752 194.86 134.836 194.618 135.005C194.377 135.169 194.19 135.401 194.058 135.702V139.947L195.172 140.139V141H191.597V140.139L192.711 139.947V134.663L191.597 134.472ZM199.964 131.819V133.604H201.365V134.602H199.964V139.093C199.964 139.439 200.035 139.683 200.176 139.824C200.322 139.965 200.513 140.036 200.75 140.036C200.868 140.036 201.001 140.027 201.146 140.009C201.297 139.986 201.422 139.963 201.522 139.94L201.707 140.863C201.579 140.945 201.393 141.011 201.146 141.062C200.9 141.116 200.654 141.144 200.408 141.144C199.861 141.144 199.426 140.979 199.103 140.651C198.779 140.319 198.617 139.799 198.617 139.093V134.602H197.448V133.604H198.617V131.819H199.964ZM204.284 140.508C204.284 140.954 204.173 141.422 203.949 141.909C203.726 142.397 203.425 142.802 203.047 143.126L202.288 142.62C202.502 142.292 202.664 141.957 202.773 141.615C202.883 141.273 202.938 140.911 202.938 140.528V139.489H204.284V140.508ZM208.864 140.139L209.979 139.947V132.106L208.864 131.915V131.047H216.555V133.439H215.406L215.297 132.106H211.325V135.538H215.174V136.598H211.325V139.947L212.439 140.139V141H208.864V140.139ZM221.941 131.054C223.026 131.054 223.858 131.295 224.437 131.778C225.015 132.257 225.305 132.938 225.305 133.822C225.305 134.305 225.17 134.734 224.901 135.107C224.632 135.481 224.247 135.775 223.746 135.989C224.288 136.167 224.678 136.456 224.915 136.857C225.157 137.258 225.277 137.753 225.277 138.341V139.141C225.277 139.446 225.316 139.672 225.394 139.817C225.471 139.963 225.599 140.05 225.776 140.077L226.104 140.118V141H225.38C224.856 141 224.482 140.818 224.259 140.453C224.04 140.089 223.931 139.646 223.931 139.127V138.354C223.931 137.812 223.773 137.377 223.459 137.049C223.145 136.721 222.723 136.557 222.194 136.557H220.034V139.947L221.148 140.139V141H217.573V140.139L218.688 139.947V132.106L217.573 131.915V131.054H218.688H221.941ZM220.034 135.497H221.805C222.557 135.497 223.104 135.354 223.445 135.066C223.787 134.779 223.958 134.36 223.958 133.809C223.958 133.285 223.794 132.87 223.466 132.564C223.138 132.259 222.63 132.106 221.941 132.106H220.034V135.497ZM226.938 140.139L227.677 140.036L231.156 131.047H232.312L235.729 140.036L236.461 140.139V141H233.604V140.139L234.355 140.009L233.699 138.177H229.714L229.037 140.009L229.789 140.139V141H226.938V140.139ZM230.131 137.049H233.289L231.744 132.776H231.703L230.131 137.049Z" fill="white"/>
<path d="M175.485 20.1387L176.6 19.9473V12.1064L175.485 11.915V11.0469H179.061V11.915L177.946 12.1064V15.4492H178.979L181.761 12.0107L181.016 11.915V11.0469H184.174V11.915L183.237 12.0859L180.195 15.8594L183.518 19.9678L184.454 20.1387V21H181.187V20.1387L181.945 20.043L179.108 16.5088H177.946V19.9473L179.061 20.1387V21H175.485V20.1387ZM190.36 21C190.319 20.7995 190.287 20.6195 190.265 20.46C190.242 20.3005 190.226 20.141 190.217 19.9814C189.957 20.3141 189.631 20.5921 189.239 20.8154C188.852 21.0342 188.437 21.1436 187.995 21.1436C187.225 21.1436 186.639 20.9567 186.238 20.583C185.837 20.2048 185.637 19.6738 185.637 18.9902C185.637 18.2884 185.919 17.7484 186.484 17.3701C187.054 16.9873 187.833 16.7959 188.822 16.7959H190.21V15.9346C190.21 15.5016 190.073 15.1598 189.8 14.9092C189.526 14.654 189.146 14.5264 188.658 14.5264C188.321 14.5264 188.022 14.5697 187.763 14.6562C187.507 14.7428 187.3 14.8613 187.141 15.0117L186.997 15.791H185.958V14.3555C186.295 14.0866 186.703 13.8724 187.182 13.7129C187.66 13.5488 188.18 13.4668 188.74 13.4668C189.579 13.4668 190.258 13.681 190.777 14.1094C191.297 14.5378 191.557 15.1507 191.557 15.9482V19.5098C191.557 19.6055 191.557 19.6989 191.557 19.79C191.561 19.8812 191.568 19.9723 191.577 20.0635L192.124 20.1387V21H190.36ZM188.193 20.0156C188.64 20.0156 189.048 19.9085 189.417 19.6943C189.786 19.4801 190.05 19.2227 190.21 18.9219V17.7051H188.774C188.223 17.7051 187.785 17.8327 187.462 18.0879C187.143 18.3431 186.983 18.653 186.983 19.0176C186.983 19.3411 187.084 19.5895 187.284 19.7627C187.485 19.9313 187.788 20.0156 188.193 20.0156ZM193.245 14.4717V13.6035H195.562L195.692 14.6768C195.902 14.2985 196.16 14.0023 196.465 13.7881C196.775 13.5739 197.128 13.4668 197.524 13.4668C197.629 13.4668 197.736 13.4759 197.846 13.4941C197.96 13.5078 198.046 13.5238 198.105 13.542L197.928 14.793L197.162 14.752C196.807 14.752 196.508 14.8363 196.267 15.0049C196.025 15.1689 195.838 15.4014 195.706 15.7021V19.9473L196.82 20.1387V21H193.245V20.1387L194.359 19.9473V14.6631L193.245 14.4717ZM198.721 11.2041V10.3359H201.182V19.9473L202.296 20.1387V21H198.721V20.1387L199.835 19.9473V11.3955L198.721 11.2041ZM208.981 15.9277H207.97L207.751 15.0391C207.587 14.8841 207.38 14.7611 207.129 14.6699C206.883 14.5742 206.603 14.5264 206.288 14.5264C205.81 14.5264 205.454 14.6312 205.222 14.8408C204.989 15.0505 204.873 15.3034 204.873 15.5996C204.873 15.8913 204.976 16.1214 205.181 16.29C205.386 16.4587 205.803 16.609 206.432 16.7412C207.366 16.9417 208.061 17.2152 208.517 17.5615C208.972 17.9033 209.2 18.3636 209.2 18.9424C209.2 19.5986 208.934 20.1296 208.4 20.5352C207.872 20.9408 207.179 21.1436 206.322 21.1436C205.762 21.1436 205.258 21.0798 204.812 20.9521C204.365 20.82 203.966 20.6309 203.615 20.3848L203.608 18.6963H204.62L204.873 19.6875C205.028 19.8288 205.238 19.9313 205.502 19.9951C205.771 20.0589 206.044 20.0908 206.322 20.0908C206.801 20.0908 207.174 19.9951 207.443 19.8037C207.717 19.6077 207.854 19.3525 207.854 19.0381C207.854 18.7419 207.74 18.498 207.512 18.3066C207.288 18.1152 206.862 17.9489 206.233 17.8076C205.336 17.6117 204.659 17.3451 204.203 17.0078C203.747 16.6706 203.52 16.2148 203.52 15.6406C203.52 15.0391 203.775 14.5264 204.285 14.1025C204.8 13.6787 205.468 13.4668 206.288 13.4668C206.849 13.4668 207.352 13.5397 207.799 13.6855C208.245 13.8314 208.617 14.0342 208.913 14.2939L208.981 15.9277ZM210.458 14.4717V13.6035H212.775L212.905 14.6768C213.115 14.2985 213.372 14.0023 213.678 13.7881C213.988 13.5739 214.341 13.4668 214.737 13.4668C214.842 13.4668 214.949 13.4759 215.059 13.4941C215.173 13.5078 215.259 13.5238 215.318 13.542L215.141 14.793L214.375 14.752C214.02 14.752 213.721 14.8363 213.479 15.0049C213.238 15.1689 213.051 15.4014 212.919 15.7021V19.9473L214.033 20.1387V21H210.458V20.1387L211.572 19.9473V14.6631L210.458 14.4717ZM221.546 19.9062C221.313 20.3027 221.013 20.6081 220.644 20.8223C220.279 21.0365 219.857 21.1436 219.379 21.1436C218.577 21.1436 217.95 20.8861 217.499 20.3711C217.048 19.8561 216.822 19.054 216.822 17.9648V14.6631L215.975 14.4717V13.6035H216.822H218.169V17.9785C218.169 18.7669 218.285 19.3092 218.518 19.6055C218.75 19.9017 219.112 20.0498 219.604 20.0498C220.083 20.0498 220.477 19.9541 220.787 19.7627C221.102 19.5667 221.339 19.291 221.498 18.9355V14.6631L220.507 14.4717V13.6035H221.498H222.845V19.9473L223.692 20.1387V21H221.635L221.546 19.9062ZM224.574 20.1387L225.688 19.9473V11.3955L224.574 11.2041V10.3359H227.035V14.5879C227.29 14.2324 227.603 13.9567 227.972 13.7607C228.341 13.5648 228.751 13.4668 229.202 13.4668C229.995 13.4668 230.61 13.7038 231.048 14.1777C231.485 14.6517 231.704 15.3809 231.704 16.3652V19.9473L232.818 20.1387V21H229.243V20.1387L230.357 19.9473V16.3516C230.357 15.7409 230.225 15.2897 229.961 14.998C229.701 14.7064 229.312 14.5605 228.792 14.5605C228.423 14.5605 228.086 14.6494 227.78 14.8271C227.479 15.0003 227.231 15.2373 227.035 15.5381V19.9473L228.149 20.1387V21H224.574V20.1387ZM237.104 21.1436C236.075 21.1436 235.254 20.8018 234.644 20.1182C234.037 19.43 233.734 18.5391 233.734 17.4453V17.1445C233.734 16.0918 234.047 15.2168 234.671 14.5195C235.3 13.8177 236.043 13.4668 236.899 13.4668C237.893 13.4668 238.645 13.7676 239.155 14.3691C239.67 14.9707 239.928 15.7728 239.928 16.7754V17.6162H235.129L235.108 17.6504C235.122 18.3613 235.302 18.9469 235.648 19.4072C235.995 19.863 236.48 20.0908 237.104 20.0908C237.56 20.0908 237.959 20.027 238.301 19.8994C238.647 19.7673 238.946 19.5872 239.196 19.3594L239.723 20.2344C239.458 20.4896 239.107 20.7061 238.67 20.8838C238.237 21.057 237.715 21.1436 237.104 21.1436ZM236.899 14.5264C236.448 14.5264 236.063 14.7178 235.744 15.1006C235.425 15.4788 235.229 15.9551 235.156 16.5293L235.17 16.5635H238.581V16.3857C238.581 15.8571 238.44 15.415 238.157 15.0596C237.875 14.7041 237.455 14.5264 236.899 14.5264ZM242.806 20.5078C242.806 20.9544 242.694 21.4215 242.471 21.9092C242.247 22.3968 241.947 22.8024 241.568 23.126L240.81 22.6201C241.024 22.292 241.186 21.957 241.295 21.6152C241.404 21.2734 241.459 20.9111 241.459 20.5283V19.4893H242.806V20.5078ZM255.309 19.8721C255.017 20.1774 254.586 20.4668 254.017 20.7402C253.447 21.0091 252.706 21.1436 251.795 21.1436C250.464 21.1436 249.377 20.6764 248.534 19.7422C247.696 18.8079 247.276 17.5957 247.276 16.1055V15.9414C247.276 14.4421 247.691 13.2275 248.521 12.2979C249.354 11.3682 250.462 10.9033 251.843 10.9033C252.581 10.9033 253.228 11.0195 253.784 11.252C254.345 11.4798 254.816 11.7829 255.199 12.1611V13.9658H254.256L253.928 12.5918C253.704 12.4095 253.433 12.2591 253.114 12.1406C252.8 12.0221 252.422 11.9629 251.979 11.9629C250.904 11.9629 250.075 12.332 249.491 13.0703C248.912 13.804 248.623 14.7565 248.623 15.9277V16.1055C248.623 17.2949 248.903 18.2565 249.464 18.9902C250.029 19.724 250.806 20.0908 251.795 20.0908C252.337 20.0908 252.782 20.0339 253.128 19.9199C253.474 19.806 253.752 19.6807 253.962 19.5439V17.3633L252.328 17.2949V16.3037H255.309V19.8721ZM256.874 21V20.1387L257.988 19.9473V12.1064L256.874 11.915V11.0469H264.517V13.4395H263.361L263.252 12.1064H259.335V15.3262H263.143V16.3857H259.335V19.9473H263.334L263.443 18.6143H264.592V21H256.874ZM270.17 11.0537C271.255 11.0537 272.086 11.2952 272.665 11.7783C273.244 12.2568 273.533 12.9382 273.533 13.8223C273.533 14.3053 273.399 14.7337 273.13 15.1074C272.861 15.4811 272.476 15.7751 271.975 15.9893C272.517 16.167 272.907 16.4564 273.144 16.8574C273.385 17.2585 273.506 17.7529 273.506 18.3408V19.1406C273.506 19.446 273.545 19.6715 273.622 19.8174C273.7 19.9632 273.827 20.0498 274.005 20.0771L274.333 20.1182V21H273.608C273.084 21 272.711 20.8177 272.487 20.4531C272.269 20.0885 272.159 19.6465 272.159 19.127V18.3545C272.159 17.8122 272.002 17.377 271.688 17.0488C271.373 16.7207 270.951 16.5566 270.423 16.5566H268.263V19.9473L269.377 20.1387V21H265.802V20.1387L266.916 19.9473V12.1064L265.802 11.915V11.0537H266.916H270.17ZM268.263 15.4971H270.033C270.785 15.4971 271.332 15.3535 271.674 15.0664C272.016 14.7793 272.187 14.36 272.187 13.8086C272.187 13.2845 272.022 12.8698 271.694 12.5645C271.366 12.2591 270.858 12.1064 270.17 12.1064H268.263V15.4971Z" fill="white"/>
<path d="M123 64L154.946 145H238" stroke="#627E8B" stroke-linejoin="round"/>
<path d="M128 64L174.075 26H275" stroke="#627E8B" stroke-linejoin="round"/>
<path d="M262.485 64.1387L263.6 63.9473V56.1064L262.485 55.915V55.0469H266.061V55.915L264.946 56.1064V59.4492H265.979L268.761 56.0107L268.016 55.915V55.0469H271.174V55.915L270.237 56.0859L267.195 59.8594L270.518 63.9678L271.454 64.1387V65H268.187V64.1387L268.945 64.043L266.108 60.5088H264.946V63.9473L266.061 64.1387V65H262.485V64.1387ZM277.661 63.9062C277.429 64.3027 277.128 64.6081 276.759 64.8223C276.394 65.0365 275.973 65.1436 275.494 65.1436C274.692 65.1436 274.065 64.8861 273.614 64.3711C273.163 63.8561 272.938 63.054 272.938 61.9648V58.6631L272.09 58.4717V57.6035H272.938H274.284V61.9785C274.284 62.7669 274.4 63.3092 274.633 63.6055C274.865 63.9017 275.228 64.0498 275.72 64.0498C276.198 64.0498 276.592 63.9541 276.902 63.7627C277.217 63.5667 277.454 63.291 277.613 62.9355V58.6631L276.622 58.4717V57.6035H277.613H278.96V63.9473L279.808 64.1387V65H277.75L277.661 63.9062ZM285.7 65C285.659 64.7995 285.627 64.6195 285.604 64.46C285.582 64.3005 285.566 64.141 285.557 63.9814C285.297 64.3141 284.971 64.5921 284.579 64.8154C284.192 65.0342 283.777 65.1436 283.335 65.1436C282.565 65.1436 281.979 64.9567 281.578 64.583C281.177 64.2048 280.977 63.6738 280.977 62.9902C280.977 62.2884 281.259 61.7484 281.824 61.3701C282.394 60.9873 283.173 60.7959 284.162 60.7959H285.55V59.9346C285.55 59.5016 285.413 59.1598 285.14 58.9092C284.866 58.654 284.486 58.5264 283.998 58.5264C283.661 58.5264 283.362 58.5697 283.103 58.6562C282.847 58.7428 282.64 58.8613 282.48 59.0117L282.337 59.791H281.298V58.3555C281.635 58.0866 282.043 57.8724 282.521 57.7129C283 57.5488 283.52 57.4668 284.08 57.4668C284.919 57.4668 285.598 57.681 286.117 58.1094C286.637 58.5378 286.896 59.1507 286.896 59.9482V63.5098C286.896 63.6055 286.896 63.6989 286.896 63.79C286.901 63.8812 286.908 63.9723 286.917 64.0635L287.464 64.1387V65H285.7ZM283.533 64.0156C283.98 64.0156 284.388 63.9085 284.757 63.6943C285.126 63.4801 285.39 63.2227 285.55 62.9219V61.7051H284.114C283.563 61.7051 283.125 61.8327 282.802 62.0879C282.483 62.3431 282.323 62.653 282.323 63.0176C282.323 63.3411 282.424 63.5895 282.624 63.7627C282.825 63.9313 283.128 64.0156 283.533 64.0156ZM288.4 55.2041V54.3359H290.861V63.9473L291.976 64.1387V65H288.4V64.1387L289.515 63.9473V55.3955L288.4 55.2041ZM297.827 65C297.786 64.7995 297.754 64.6195 297.731 64.46C297.709 64.3005 297.693 64.141 297.684 63.9814C297.424 64.3141 297.098 64.5921 296.706 64.8154C296.319 65.0342 295.904 65.1436 295.462 65.1436C294.692 65.1436 294.106 64.9567 293.705 64.583C293.304 64.2048 293.104 63.6738 293.104 62.9902C293.104 62.2884 293.386 61.7484 293.951 61.3701C294.521 60.9873 295.3 60.7959 296.289 60.7959H297.677V59.9346C297.677 59.5016 297.54 59.1598 297.267 58.9092C296.993 58.654 296.613 58.5264 296.125 58.5264C295.788 58.5264 295.489 58.5697 295.229 58.6562C294.974 58.7428 294.767 58.8613 294.607 59.0117L294.464 59.791H293.425V58.3555C293.762 58.0866 294.17 57.8724 294.648 57.7129C295.127 57.5488 295.646 57.4668 296.207 57.4668C297.046 57.4668 297.725 57.681 298.244 58.1094C298.764 58.5378 299.023 59.1507 299.023 59.9482V63.5098C299.023 63.6055 299.023 63.6989 299.023 63.79C299.028 63.8812 299.035 63.9723 299.044 64.0635L299.591 64.1387V65H297.827ZM295.66 64.0156C296.107 64.0156 296.515 63.9085 296.884 63.6943C297.253 63.4801 297.517 63.2227 297.677 62.9219V61.7051H296.241C295.69 61.7051 295.252 61.8327 294.929 62.0879C294.61 62.3431 294.45 62.653 294.45 63.0176C294.45 63.3411 294.55 63.5895 294.751 63.7627C294.951 63.9313 295.255 64.0156 295.66 64.0156ZM304.075 65V64.1387L305.189 63.9473V56.1064L304.075 55.915V55.0469H305.189H306.536H307.65V55.915L306.536 56.1064V63.9473H309.995L310.098 62.8057H311.246V65H304.075ZM317.392 63.9062C317.159 64.3027 316.858 64.6081 316.489 64.8223C316.125 65.0365 315.703 65.1436 315.225 65.1436C314.423 65.1436 313.796 64.8861 313.345 64.3711C312.894 63.8561 312.668 63.054 312.668 61.9648V58.6631L311.82 58.4717V57.6035H312.668H314.015V61.9785C314.015 62.7669 314.131 63.3092 314.363 63.6055C314.596 63.9017 314.958 64.0498 315.45 64.0498C315.929 64.0498 316.323 63.9541 316.633 63.7627C316.947 63.5667 317.184 63.291 317.344 62.9355V58.6631L316.353 58.4717V57.6035H317.344H318.69V63.9473L319.538 64.1387V65H317.48L317.392 63.9062ZM320.338 64.1387L321.452 63.9473V58.6631L320.338 58.4717V57.6035H322.662L322.751 58.5674C322.988 58.2165 323.293 57.9453 323.667 57.7539C324.041 57.5625 324.474 57.4668 324.966 57.4668C325.458 57.4668 325.88 57.5807 326.23 57.8086C326.586 58.0365 326.853 58.3783 327.03 58.834C327.263 58.4147 327.57 58.082 327.953 57.8359C328.336 57.5898 328.783 57.4668 329.293 57.4668C330.049 57.4668 330.646 57.7266 331.084 58.2461C331.521 58.7611 331.74 59.5381 331.74 60.5771V63.9473L332.854 64.1387V65H329.272V64.1387L330.387 63.9473V60.5635C330.387 59.8343 330.261 59.3193 330.011 59.0186C329.76 58.7132 329.389 58.5605 328.896 58.5605C328.427 58.5605 328.049 58.7269 327.762 59.0596C327.479 59.3877 327.315 59.8024 327.27 60.3037V63.9473L328.384 64.1387V65H324.809V64.1387L325.923 63.9473V60.5635C325.923 59.8708 325.793 59.3649 325.533 59.0459C325.278 58.7223 324.907 58.5605 324.419 58.5605C324.009 58.5605 323.672 58.6449 323.407 58.8135C323.143 58.9821 322.94 59.2191 322.799 59.5244V63.9473L323.913 64.1387V65H320.338V64.1387ZM333.675 66.9756L334.789 66.7842V58.6631L333.675 58.4717V57.6035H335.944L336.067 58.5059C336.313 58.1686 336.612 57.9111 336.963 57.7334C337.318 57.5557 337.729 57.4668 338.193 57.4668C339.109 57.4668 339.82 57.8314 340.326 58.5605C340.837 59.2852 341.092 60.2445 341.092 61.4385V61.582C341.092 62.6484 340.837 63.5098 340.326 64.166C339.816 64.8177 339.112 65.1436 338.214 65.1436C337.758 65.1436 337.357 65.0684 337.011 64.918C336.669 64.763 336.377 64.5352 336.136 64.2344V66.7842L337.25 66.9756V67.8438H333.675V66.9756ZM339.738 61.4385C339.738 60.5954 339.574 59.9049 339.246 59.3672C338.918 58.8294 338.43 58.5605 337.783 58.5605C337.4 58.5605 337.072 58.6471 336.799 58.8203C336.525 58.9935 336.304 59.2305 336.136 59.5312V63.1338C336.304 63.4391 336.523 63.6761 336.792 63.8447C337.065 64.0088 337.4 64.0908 337.797 64.0908C338.435 64.0908 338.918 63.8584 339.246 63.3936C339.574 62.9287 339.738 62.3249 339.738 61.582V61.4385ZM347.606 63.9062C347.374 64.3027 347.073 64.6081 346.704 64.8223C346.34 65.0365 345.918 65.1436 345.439 65.1436C344.637 65.1436 344.011 64.8861 343.56 64.3711C343.108 63.8561 342.883 63.054 342.883 61.9648V58.6631L342.035 58.4717V57.6035H342.883H344.229V61.9785C344.229 62.7669 344.346 63.3092 344.578 63.6055C344.811 63.9017 345.173 64.0498 345.665 64.0498C346.144 64.0498 346.538 63.9541 346.848 63.7627C347.162 63.5667 347.399 63.291 347.559 62.9355V58.6631L346.567 58.4717V57.6035H347.559H348.905V63.9473L349.753 64.1387V65H347.695L347.606 63.9062ZM350.819 58.4717V57.6035H353.137L353.267 58.6768C353.476 58.2985 353.734 58.0023 354.039 57.7881C354.349 57.5739 354.702 57.4668 355.099 57.4668C355.203 57.4668 355.311 57.4759 355.42 57.4941C355.534 57.5078 355.62 57.5238 355.68 57.542L355.502 58.793L354.736 58.752C354.381 58.752 354.082 58.8363 353.841 59.0049C353.599 59.1689 353.412 59.4014 353.28 59.7021V63.9473L354.395 64.1387V65H350.819V64.1387L351.934 63.9473V58.6631L350.819 58.4717ZM357.313 64.5078C357.313 64.9544 357.202 65.4215 356.979 65.9092C356.755 66.3968 356.454 66.8024 356.076 67.126L355.317 66.6201C355.532 66.292 355.693 65.957 355.803 65.6152C355.912 65.2734 355.967 64.9111 355.967 64.5283V63.4893H357.313V64.5078ZM371.621 57.0293L371.587 57.0225L368.367 65H367.472L364.252 57.0293L364.218 57.0361L364.354 61.0625V63.9473L365.469 64.1387V65H361.894V64.1387L363.008 63.9473V56.1064L361.894 55.915V55.0469H363.008H364.73L367.902 63.1338H367.943L371.108 55.0469H373.952V55.915L372.838 56.1064V63.9473L373.952 64.1387V65H370.377V64.1387L371.491 63.9473V61.0625L371.621 57.0293ZM378.04 55.915L376.967 56.0449L379.052 60.1055L381.137 56.0449L380.07 55.915V55.0469H383.488V55.915L382.647 56.0449L379.694 61.5V63.9473L380.809 64.1387V65H377.24V64.1387L378.354 63.9473V61.3975L375.456 56.0449L374.622 55.915V55.0469H378.04V55.915ZM391.507 57.9863H390.488L390.235 56.5645C390.03 56.3913 389.757 56.2477 389.415 56.1338C389.073 56.0199 388.677 55.9629 388.226 55.9629C387.51 55.9629 386.961 56.1156 386.578 56.4209C386.195 56.7217 386.004 57.1159 386.004 57.6035C386.004 58.0365 386.198 58.3988 386.585 58.6904C386.977 58.9775 387.608 59.2305 388.479 59.4492C389.527 59.709 390.322 60.0918 390.864 60.5977C391.411 61.1035 391.685 61.7301 391.685 62.4775C391.685 63.2796 391.356 63.9245 390.7 64.4121C390.049 64.8997 389.194 65.1436 388.137 65.1436C387.371 65.1436 386.69 65.0182 386.093 64.7676C385.5 64.5169 385.017 64.1888 384.644 63.7832V61.9307H385.655L385.915 63.3594C386.175 63.5736 386.485 63.749 386.845 63.8857C387.205 64.0225 387.635 64.0908 388.137 64.0908C388.816 64.0908 389.351 63.9473 389.743 63.6602C390.14 63.373 390.338 62.9834 390.338 62.4912C390.338 62.0355 390.167 61.6549 389.825 61.3496C389.483 61.0397 388.88 60.7799 388.014 60.5703C386.961 60.3197 386.138 59.9505 385.546 59.4629C384.953 58.9753 384.657 58.3623 384.657 57.624C384.657 56.8447 384.988 56.1976 385.648 55.6826C386.309 55.1631 387.168 54.9033 388.226 54.9033C388.923 54.9033 389.556 55.0241 390.126 55.2656C390.7 55.5026 391.16 55.792 391.507 56.1338V57.9863Z" fill="white"/>
<path d="M191 92L258.736 69H392" stroke="#627E8B"/>
</svg>
