<svg width="144" height="144" viewBox="0 0 144 144" fill="none" xmlns="http://www.w3.org/2000/svg">
<path fill-rule="evenodd" clip-rule="evenodd" d="M77.3194 36.8075C62.1436 38.6343 48.1808 38.5677 37.7493 36.9857L41.3632 63.4821C48.2474 62.8846 58.0689 61.9775 65.034 61.1118C95.0221 57.3845 118.65 46.3788 117.617 37.54C117.408 35.7456 116.189 34.1492 114.152 32.767C123.353 34.5308 129.195 37.6156 129.69 41.7101C130.755 50.5471 106.523 60.7321 75.5646 64.4594C62.9697 65.9748 51.2117 66.1854 41.6134 65.3089L45.2004 91.6164C51.586 91.044 59.2837 90.3025 65.0358 89.5844C95.0239 85.8589 118.652 74.8514 117.618 66.0144C117.41 64.22 116.191 62.6236 114.154 61.2414C123.354 63.0052 129.196 66.09 129.691 70.1827C130.757 79.0215 106.525 89.2083 75.5664 92.9338C64.6363 94.2477 54.3433 94.5752 45.537 94.0695L48.6542 116.925H59.5969C61.4399 116.756 63.3008 116.567 65.1906 116.335C95.1769 112.605 118.652 102.422 117.618 93.5799C117.41 91.7874 116.191 90.1909 114.154 88.8105C123.354 90.5743 129.196 93.6573 129.691 97.7536C130.509 104.524 116.463 112.085 95.9292 116.925H129.735V18.8223C123.731 26.2914 102.813 33.7389 77.3194 36.8075V36.8075Z" fill="#0C7DBF"/>
<path fill-rule="evenodd" clip-rule="evenodd" d="M24.3948 67.1128V116.927H38.8633L24.3948 67.1128Z" fill="#0080C0"/>
<path fill-rule="evenodd" clip-rule="evenodd" d="M61.996 8.00211C34.0166 10.5308 14.8308 16.9398 15.0306 23.5541C15.036 23.7628 15.0666 23.968 15.117 24.1696L15 24.1606L48.6758 136.647L33.6602 31.1186C42.4828 32.0437 53.7728 32.0599 66.0564 30.9494C94.0359 28.4207 116.557 21.0074 116.359 14.395C116.157 7.78074 89.9773 5.47161 61.996 8.00211V8.00211Z" fill="#0C7DBF"/>
</svg>
