<?xml version="1.0" encoding="UTF-8" standalone="no"?>
<svg
   xmlns:dc="http://purl.org/dc/elements/1.1/"
   xmlns:cc="http://creativecommons.org/ns#"
   xmlns:rdf="http://www.w3.org/1999/02/22-rdf-syntax-ns#"
   xmlns:svg="http://www.w3.org/2000/svg"
   xmlns="http://www.w3.org/2000/svg"
   xmlns:sodipodi="http://sodipodi.sourceforge.net/DTD/sodipodi-0.dtd"
   xmlns:inkscape="http://www.inkscape.org/namespaces/inkscape"
   enable-background="new 0 0 100 100"
   height="100px"
   id="Layer_1"
   version="1.1"
   viewBox="0 0 100 100"
   width="100px"
   xml:space="preserve"
   inkscape:version="0.91 r13725"
   sodipodi:docname="github.svg"><metadata
     id="metadata14"><rdf:RDF><cc:Work
         rdf:about=""><dc:format>image/svg+xml</dc:format><dc:type
           rdf:resource="http://purl.org/dc/dcmitype/StillImage" /></cc:Work></rdf:RDF></metadata><defs
     id="defs12" /><sodipodi:namedview
     pagecolor="#ffffff"
     bordercolor="#666666"
     borderopacity="1"
     objecttolerance="10"
     gridtolerance="10"
     guidetolerance="10"
     inkscape:pageopacity="0"
     inkscape:pageshadow="2"
     inkscape:window-width="893"
     inkscape:window-height="480"
     id="namedview10"
     showgrid="false"
     inkscape:zoom="2.36"
     inkscape:cx="50"
     inkscape:cy="50"
     inkscape:window-x="0"
     inkscape:window-y="27"
     inkscape:window-maximized="0"
     inkscape:current-layer="Layer_1" /><g
     id="g3"
     style="fill:#ffffff"><defs
       id="defs5"><rect
         height="100"
         id="SVGID_1_"
         width="100" /></defs><path
       d="M74.5,5.272c-8.047,5.03-16.343,0.787-22.323,0C25.772,1.793,17.378,32.598,36.616,44.949   c-4.953,2.565-4.629,15.625,0.678,17.485c-12.5,1.431-14.818,19.047-8.117,26.229c8.153,8.736,33.234,8.158,40.589,0   c5.134-5.699,5.848-17.445,1.35-22.863c-4.1-4.945-24.67-5.691-24.35-13.451c0.223-5.424,7.661-4.569,12.175-6.726   c8.495-4.061,13.484-16.212,10.147-25.556c1.894-0.356,3.516-0.988,5.412-1.344V5.272z M42.03,33.519   c-9.899-21.566,22.76-20.019,12.854,0C51.633,35.927,45.239,36.166,42.03,33.519 M60.294,75.885   c0.877,9.672-18.706,10.1-20.971,3.366c-1.906-5.674,0.467-7.282,6.087-8.744C51.774,68.85,59.706,69.416,60.294,75.885"
       id="path8"
       style="fill:#ffffff" /></g></svg>