<svg width="145" height="144" viewBox="0 0 145 144" fill="none" xmlns="http://www.w3.org/2000/svg">
<path d="M0.199951 0H144.2V144H0.199951V0Z" fill="#EF3730"/>
<path d="M16.3999 66C16.5999 69.2 22.5999 72 31.9999 73.2C34.0878 73.5111 36.1908 73.7113 38.2999 73.8L42.6999 74V73.3L37.7999 73.1C36.2601 73.0553 34.7243 72.9218 33.1999 72.7C22.7999 71.4 17.3999 68.4 17.1999 66H16.3999Z" fill="url(#paint0_linear)"/>
<path d="M125.8 59C125.7 56 120 54 108.8 52.7C102.554 52.0657 96.2782 51.7652 90 51.8C83.8 51.8 77.2 52 70.4 52.5C58.8767 53.2091 47.4161 54.7126 36.1 57L33.6 57.6L32.3 58C25 59.7 16.3 62.6 16.5 66H17.3C17.2 63.8 22.8 61 32.5 58.7L34.8 58.2L36.3 57.9C47.5907 55.7207 59.0174 54.3174 70.5 53.7C76.6 53.3 82.7 53.1 88.5 53.1C95.213 53.0735 101.923 53.4073 108.6 54.1C119.8 55.3 123.8 57.5 123.9 59.1L125.8 59Z" fill="white"/>
<path d="M58.1001 44.8H32.6001L21.1001 90.6H46.9001L48.6001 83.5H31.5001L34.8001 70.4H49.4001L51.2001 63.4H36.4001L39.2001 52H56.2001L58.0001 44.8H58.1001ZM55.5001 33.5C54.5001 33.5 53.5001 34.1 51.7001 35.1H51.5001L42.5001 40.6L41.2001 41.4H42.7001L44.7001 41.7H44.8001L55.1001 38.5C56.3001 38.2 57.5001 37.8 57.9001 36.5C57.9755 36.1954 57.9878 35.8785 57.9362 35.569C57.8847 35.2594 57.7703 34.9637 57.6001 34.7C57.3044 34.2182 56.8416 33.8623 56.3001 33.7C56.0399 33.6268 55.7703 33.5931 55.5001 33.6V33.5ZM71.6001 74.3L67.1001 74.6H65.8001L63.2001 85.4H71.7001L74.5001 74L71.5001 74.3H71.6001ZM61.7001 39.7L59.9001 46.7H72.8001L72.4001 48L66.6001 71.5L67.9001 71.4L71.3001 71.1L75.3001 70.8L81.2001 46.8H93.2001L94.7001 40.9L95.0001 39.8L61.7001 39.7ZM121.3 39.5C118.009 37.5224 114.239 36.4848 110.4 36.5C108.394 36.4298 106.394 36.7656 104.521 37.4873C102.648 38.209 100.94 39.3018 99.5001 40.7C97.0753 43.1899 95.7128 46.5245 95.7001 50C95.722 51.7371 96.0867 53.4528 96.7731 55.0487C97.4595 56.6446 98.4542 58.0893 99.7001 59.3C100.681 60.3527 101.716 61.354 102.8 62.3C103.813 63.1864 104.75 64.1565 105.6 65.2C105.816 65.489 106.016 65.7894 106.2 66.1H106.3L109.1 65.4L114.6 63.8C114.171 62.9891 113.669 62.2192 113.1 61.5C112.289 60.5169 111.42 59.582 110.5 58.7L109.1 57.4C108.366 56.7697 107.665 56.1021 107 55.4C105.409 53.9536 104.441 51.946 104.3 49.8C104.299 48.9337 104.474 48.0762 104.814 47.2795C105.155 46.4828 105.653 45.7634 106.279 45.1651C106.906 44.5667 107.647 44.1017 108.459 43.7983C109.27 43.4949 110.135 43.3594 111 43.4C114.014 43.5108 116.873 44.7617 119 46.9L119.7 47.5L119.9 46.7L121.5 40.2V40L121.6 39.7L121.3 39.5ZM115.7 66.8C113.168 67.6499 110.599 68.384 108 69L107.3 69.2C107.318 69.4997 107.318 69.8003 107.3 70.1C107.3 73.8 105 77.5 99.7001 77.5C96.2001 77.5 92.9001 76 89.8001 73L89.2001 72.5L89.0001 73.3L87.3001 80.3L87.2001 80.7L87.5001 80.9L88.3001 81.4C91.9397 83.4144 96.0405 84.4482 100.2 84.4C110.6 84.4 116.1 77.1 116.1 69.9C116.078 68.8883 115.944 67.8822 115.7 66.9V66.8Z" fill="white"/>
<path d="M123.9 59.1C123.9 60.1 120.9 62.8 109.2 65.8C99.2001 68.4 85.7001 70.4 71.4001 71.5L52.1001 72.8H51.9001L51.6001 75.1H51.8001C54.9001 75 68.2001 74.1 71.5001 73.8C81.0906 73.1086 90.6375 71.9069 100.1 70.2C103.5 69.5 106.8 68.8 109.8 68C120.8 65.2 126 62.3 125.8 59L123.9 59.1Z" fill="url(#paint1_linear)"/>
<path d="M12.9999 110H7.8999V100.9H9.09991V109.1H13.4999L12.9999 110ZM18.5999 110C18.1414 110.106 17.6689 110.14 17.1999 110.1C16.7473 110.164 16.286 110.123 15.8514 109.981C15.4168 109.84 15.0204 109.6 14.6924 109.282C14.3643 108.964 14.1134 108.575 13.9587 108.144C13.8041 107.714 13.7497 107.254 13.7999 106.8C13.7999 104.8 15.0999 103.5 16.7999 103.5C17.188 103.5 17.5708 103.59 17.9179 103.764C18.2651 103.938 18.567 104.19 18.7999 104.5C19.2039 105.162 19.412 105.925 19.3999 106.7H14.9999C14.9504 107.387 15.165 108.066 15.5999 108.6C15.8586 108.825 16.1607 108.994 16.4875 109.097C16.8144 109.201 17.159 109.236 17.4999 109.2C18.08 109.204 18.656 109.102 19.1999 108.9L18.5999 110ZM18.1999 105.9C18.2162 105.465 18.074 105.038 17.7999 104.7C17.5276 104.447 17.1713 104.305 16.7999 104.3C16.3658 104.299 15.9479 104.465 15.6318 104.762C15.3157 105.06 15.1254 105.467 15.0999 105.9H18.1999ZM27.8999 109.6C27.5392 109.682 27.1694 109.715 26.7999 109.7C26.3983 109.73 25.995 109.673 25.6174 109.533C25.2399 109.392 24.8971 109.172 24.6123 108.888C24.3275 108.603 24.1075 108.26 23.9673 107.882C23.8271 107.505 23.77 107.102 23.7999 106.7C23.7851 106.254 23.8637 105.81 24.0306 105.396C24.1976 104.982 24.4492 104.608 24.7694 104.297C25.0896 103.987 25.4712 103.746 25.8898 103.592C26.3083 103.437 26.7546 103.372 27.1999 103.4C28.0267 103.391 28.8456 103.561 29.5999 103.9V109.1C29.6681 109.792 29.5289 110.488 29.1999 111.1C28.9204 111.587 28.5097 111.986 28.0147 112.251C27.5197 112.516 26.9602 112.637 26.3999 112.6C25.5945 112.6 24.8025 112.394 24.0999 112V110.9C24.311 111.069 24.5472 111.204 24.7999 111.3C25.3016 111.538 25.8454 111.674 26.3999 111.7C26.8058 111.745 27.2149 111.651 27.5602 111.433C27.9054 111.215 28.1663 110.886 28.2999 110.5C28.4713 109.916 28.539 109.307 28.4999 108.7L27.8999 109.6ZM28.4999 104.6C28.087 104.426 27.6473 104.325 27.1999 104.3C26.8982 104.284 26.5966 104.334 26.3157 104.445C26.0349 104.557 25.7814 104.727 25.5725 104.946C25.3637 105.164 25.2044 105.425 25.1056 105.71C25.0068 105.996 24.9707 106.299 24.9999 106.6C24.9564 106.887 24.9757 107.179 25.0566 107.458C25.1374 107.736 25.2778 107.994 25.468 108.212C25.6583 108.431 25.8938 108.606 26.1583 108.725C26.4228 108.843 26.71 108.903 26.9999 108.9C27.5235 108.881 28.0362 108.744 28.4999 108.5V104.6ZM35.4999 110C35.0416 110.108 34.5689 110.142 34.0999 110.1C33.655 110.147 33.2051 110.094 32.7832 109.945C32.3614 109.796 31.9782 109.554 31.6618 109.238C31.3454 108.922 31.1038 108.539 30.9547 108.117C30.8055 107.695 30.7527 107.245 30.7999 106.8C30.7999 104.8 31.9999 103.5 33.6999 103.5C34.088 103.5 34.4708 103.59 34.8179 103.764C35.1651 103.938 35.4671 104.19 35.6999 104.5C36.1039 105.162 36.312 105.925 36.2999 106.7H31.8999C31.8504 107.387 32.065 108.066 32.4999 108.6C32.7586 108.825 33.0607 108.994 33.3875 109.097C33.7144 109.201 34.059 109.236 34.3999 109.2C34.98 109.204 35.556 109.102 36.0999 108.9L35.4999 110ZM35.0999 105.9C35.1259 105.463 34.9826 105.034 34.6999 104.7C34.4276 104.447 34.0713 104.305 33.6999 104.3C33.2659 104.299 32.8479 104.465 32.5319 104.762C32.2158 105.06 32.0254 105.467 31.9999 105.9H35.0999ZM32.7999 102.8V101.9L35.1999 100.9V101.9L32.7999 102.8ZM37.3999 110V103.6H38.3999V104.6L39.0999 103.6C39.5577 103.488 40.0309 103.455 40.4999 103.5C41.0749 103.478 41.64 103.654 42.0999 104C42.3342 104.232 42.5105 104.516 42.6148 104.828C42.719 105.141 42.7482 105.474 42.6999 105.8V110H41.6999V106.2C41.6999 105.2 41.3999 104.4 40.0999 104.4C39.4975 104.403 38.9082 104.577 38.3999 104.9V109.9L37.3999 110ZM45.3999 101.4C45.4019 101.543 45.3526 101.682 45.2609 101.792C45.1692 101.903 45.0411 101.976 44.8999 102C44.8132 102.015 44.7243 102.01 44.6395 101.987C44.5547 101.963 44.4762 101.921 44.4094 101.864C44.3426 101.807 44.2892 101.735 44.253 101.655C44.2168 101.575 44.1987 101.488 44.1999 101.4C44.1999 101.228 44.2684 101.062 44.3903 100.94C44.5122 100.818 44.6775 100.75 44.8499 100.75C45.0223 100.75 45.1876 100.818 45.3095 100.94C45.4314 101.062 45.4999 101.228 45.4999 101.4H45.3999ZM45.3999 110H44.3999V103.6H45.3999V110ZM51.3999 110C50.9093 110.119 50.4019 110.153 49.8999 110.1C49.455 110.147 49.0051 110.094 48.5832 109.945C48.1614 109.796 47.7782 109.554 47.4618 109.238C47.1454 108.922 46.9038 108.539 46.7547 108.117C46.6055 107.695 46.5527 107.245 46.5999 106.8C46.5999 104.8 47.7999 103.5 49.5999 103.5C49.988 103.5 50.3708 103.59 50.718 103.764C51.0651 103.938 51.367 104.19 51.5999 104.5C51.969 105.172 52.1423 105.934 52.0999 106.7H47.7999C47.722 107.374 47.9005 108.052 48.2999 108.6C48.5585 108.825 48.8607 108.994 49.1876 109.097C49.5144 109.201 49.859 109.236 50.1999 109.2C50.7801 109.204 51.356 109.102 51.8999 108.9L51.3999 110ZM50.9999 105.9C50.9988 105.45 50.819 105.018 50.4999 104.7C50.2276 104.447 49.8713 104.305 49.4999 104.3C49.0658 104.299 48.6479 104.465 48.3318 104.762C48.0158 105.06 47.8254 105.467 47.7999 105.9H50.9999ZM58.5999 103.6C58.9209 103.482 59.2582 103.414 59.5999 103.4C60.0288 103.384 60.4562 103.459 60.8532 103.622C61.2503 103.785 61.6079 104.031 61.9017 104.344C62.1955 104.657 62.4189 105.029 62.5565 105.435C62.6942 105.842 62.7432 106.273 62.6999 106.7C62.6999 108.7 61.4999 110.1 59.5999 110.1C59.0496 110.14 58.4985 110.036 57.9999 109.8V112.8H56.9999V103.6H57.9999V104.6L58.5999 103.6ZM57.9999 108.8C58.4166 109.069 58.9039 109.209 59.3999 109.2C60.8999 109.2 61.4999 108.1 61.4999 106.7C61.5666 106.104 61.4253 105.504 61.0999 105C60.9035 104.77 60.6575 104.587 60.3803 104.466C60.1032 104.345 59.8022 104.288 59.4999 104.3C58.9752 104.312 58.461 104.449 57.9999 104.7V108.8ZM66.3999 110.1C64.6999 110.1 63.4999 108.9 63.4999 106.9C63.4999 104.9 64.5999 103.5 66.4999 103.5C68.2999 103.5 69.4999 104.8 69.4999 106.8C69.4999 108.8 68.2999 110.1 66.4999 110.1H66.3999ZM68.2999 106.8C68.2999 105.6 67.7999 104.3 66.4999 104.3C65.3999 104.3 64.6999 105.3 64.6999 106.8C64.6617 107.394 64.8009 107.986 65.0999 108.5C65.2416 108.745 65.4458 108.949 65.6918 109.089C65.9377 109.23 66.2166 109.303 66.4999 109.3C67.6999 109.3 68.2999 107.9 68.2999 106.8ZM75.9999 110H74.8999V109L74.1999 110C73.7739 110.098 73.3358 110.131 72.8999 110.1C72.5862 110.152 72.2645 110.128 71.9617 110.031C71.6589 109.934 71.3837 109.766 71.1588 109.541C70.9339 109.316 70.7659 109.041 70.6687 108.738C70.5715 108.435 70.5479 108.114 70.5999 107.8V103.6H71.6999V107.4C71.6999 108.4 71.8999 109.2 73.1999 109.2C73.8023 109.197 74.3916 109.023 74.8999 108.7V103.6H75.9999V110ZM78.6999 110H77.5999V103.6H78.6999V104.6L79.2999 103.7C79.6494 103.56 80.0235 103.492 80.3999 103.5C80.6707 103.469 80.9451 103.503 81.1999 103.6V104.6C80.8857 104.459 80.544 104.391 80.1999 104.4C79.6601 104.407 79.1359 104.582 78.6999 104.9V110ZM86.6999 110H85.6999V100.9H86.6999V110ZM88.4999 103.3H87.7999L88.7999 100.9H89.7999L88.4999 103.3ZM92.1999 101.4C92.1999 101.559 92.1367 101.712 92.0242 101.824C91.9116 101.937 91.759 102 91.5999 102C91.5132 102.015 91.4242 102.01 91.3395 101.987C91.2547 101.963 91.1762 101.921 91.1094 101.864C91.0426 101.807 90.9892 101.735 90.953 101.655C90.9168 101.575 90.8987 101.488 90.8999 101.4C90.8999 101.228 90.9684 101.062 91.0903 100.94C91.2122 100.818 91.3775 100.75 91.5499 100.75C91.7223 100.75 91.8876 100.818 92.0095 100.94C92.1314 101.062 92.1999 101.228 92.1999 101.4ZM92.1999 110H90.9999V103.6H92.0999L92.1999 110ZM93.6999 110V103.6H94.6999V104.6L95.4999 103.6C95.9254 103.499 96.364 103.465 96.7999 103.5C97.3749 103.478 97.94 103.654 98.3999 104C98.6521 104.222 98.8473 104.502 98.9691 104.815C99.0909 105.128 99.1358 105.466 99.0999 105.8V110H97.9999V106.2C97.9999 105.2 97.7999 104.4 96.4999 104.4C95.8975 104.403 95.3082 104.577 94.7999 104.9V109.9L93.6999 110ZM106.1 110H105V109L104.4 110C103.928 110.161 103.424 110.206 102.931 110.13C102.438 110.055 101.971 109.862 101.569 109.568C101.166 109.273 100.841 108.886 100.62 108.439C100.399 107.992 100.289 107.498 100.3 107C100.259 106.572 100.305 106.139 100.434 105.729C100.564 105.319 100.776 104.939 101.056 104.612C101.336 104.285 101.679 104.018 102.064 103.827C102.45 103.636 102.87 103.525 103.3 103.5C103.883 103.456 104.467 103.56 105 103.8V100.8H106L106.1 110ZM105 104.8C104.544 104.537 104.026 104.399 103.5 104.4C103.066 104.392 102.642 104.534 102.3 104.8C102.005 105.063 101.772 105.387 101.617 105.75C101.461 106.113 101.387 106.505 101.4 106.9C101.356 107.187 101.376 107.479 101.457 107.758C101.537 108.036 101.678 108.294 101.868 108.512C102.058 108.731 102.294 108.906 102.558 109.025C102.823 109.143 103.11 109.203 103.4 109.2C103.949 109.227 104.498 109.124 105 108.9V104.8ZM113 110H112V109L111.3 110C110.842 110.108 110.369 110.142 109.9 110.1C109.594 110.135 109.284 110.098 108.994 109.993C108.704 109.888 108.443 109.718 108.23 109.495C108.017 109.272 107.858 109.004 107.766 108.71C107.675 108.416 107.652 108.104 107.7 107.8V103.6H108.7V107.4C108.7 108.4 109 109.2 110.3 109.2C110.868 109.178 111.42 109.006 111.9 108.7V103.6H113V110ZM116.9 106.4C117.297 106.508 117.648 106.742 117.9 107.067C118.152 107.391 118.293 107.789 118.3 108.2C118.301 108.48 118.244 108.758 118.131 109.015C118.018 109.271 117.853 109.501 117.645 109.69C117.438 109.878 117.193 110.021 116.927 110.109C116.661 110.197 116.379 110.228 116.1 110.2C115.471 110.167 114.856 109.997 114.3 109.7V108.7C114.49 108.818 114.691 108.919 114.9 109C115.211 109.164 115.55 109.266 115.9 109.3C116.047 109.33 116.199 109.327 116.344 109.29C116.49 109.253 116.625 109.185 116.74 109.088C116.856 108.992 116.948 108.872 117.01 108.735C117.072 108.599 117.103 108.45 117.1 108.3C117.1 107.6 116.5 107.3 116.1 107.2L115.7 107C115.311 106.912 114.963 106.697 114.71 106.389C114.456 106.081 114.312 105.698 114.3 105.3C114.325 105.037 114.402 104.781 114.526 104.548C114.651 104.315 114.82 104.109 115.024 103.941C115.229 103.774 115.465 103.649 115.718 103.573C115.971 103.497 116.237 103.472 116.5 103.5C117.017 103.477 117.532 103.58 118 103.8V104.8C117.64 104.483 117.179 104.306 116.7 104.3C115.8 104.3 115.5 104.8 115.5 105.3C115.5 105.8 115.9 106 116.3 106.2L116.9 106.4ZM121.7 110C121.504 110.056 121.303 110.089 121.1 110.1C120.874 110.12 120.647 110.085 120.438 109.998C120.229 109.911 120.045 109.774 119.9 109.6C119.6 109.3 119.6 108.9 119.6 108.2V104.4H118.9L119.5 103.6H119.6V102.4L120.7 102V103.6H122V104.4H120.7V107.7C120.668 108.033 120.668 108.367 120.7 108.7C120.712 108.792 120.743 108.881 120.79 108.962C120.837 109.042 120.899 109.112 120.974 109.168C121.048 109.224 121.133 109.264 121.224 109.287C121.314 109.31 121.408 109.314 121.5 109.3C121.777 109.287 122.049 109.219 122.3 109.1L121.7 110ZM124.1 110H123V103.6H124V104.6L124.7 103.7C125.049 103.56 125.424 103.492 125.8 103.5C126.038 103.484 126.276 103.518 126.5 103.6V104.6C126.187 104.456 125.844 104.387 125.5 104.4C124.995 104.427 124.508 104.601 124.1 104.9V110ZM128.4 101.4C128.4 101.559 128.337 101.712 128.224 101.824C128.112 101.937 127.959 102 127.8 102C127.641 102 127.488 101.937 127.376 101.824C127.263 101.712 127.2 101.559 127.2 101.4C127.2 101.241 127.263 101.088 127.376 100.976C127.488 100.863 127.641 100.8 127.8 100.8C127.959 100.8 128.112 100.863 128.224 100.976C128.337 101.088 128.4 101.241 128.4 101.4ZM128.4 110H127.2V103.6H128.3L128.4 110ZM134.3 110C133.842 110.108 133.369 110.142 132.9 110.1C132.447 110.164 131.986 110.123 131.551 109.981C131.117 109.84 130.72 109.6 130.392 109.282C130.064 108.964 129.813 108.575 129.659 108.144C129.504 107.714 129.45 107.254 129.5 106.8C129.5 104.8 130.8 103.5 132.5 103.5C132.888 103.5 133.271 103.59 133.618 103.764C133.965 103.938 134.267 104.19 134.5 104.5C134.904 105.162 135.112 105.925 135.1 106.7H130.7C130.65 107.387 130.865 108.066 131.3 108.6C131.798 109.029 132.444 109.244 133.1 109.2C133.714 109.216 134.325 109.114 134.9 108.9L134.3 110ZM133.9 105.9C133.926 105.463 133.783 105.034 133.5 104.7C133.228 104.447 132.871 104.305 132.5 104.3C132.066 104.299 131.648 104.465 131.332 104.762C131.016 105.06 130.825 105.467 130.8 105.9H133.9Z" fill="white"/>
<defs>
<linearGradient id="paint0_linear" x1="36.0999" y1="70" x2="42.6999" y2="70" gradientUnits="userSpaceOnUse">
<stop stop-color="white"/>
<stop offset="1" stop-color="white" stop-opacity="0"/>
</linearGradient>
<linearGradient id="paint1_linear" x1="49.6001" y1="73.3" x2="95.0001" y2="70" gradientUnits="userSpaceOnUse">
<stop stop-color="white" stop-opacity="0"/>
<stop offset="0.1" stop-color="white" stop-opacity="0.1"/>
<stop offset="0.2" stop-color="white" stop-opacity="0.3"/>
<stop offset="0.3" stop-color="white" stop-opacity="0.5"/>
<stop offset="0.4" stop-color="white" stop-opacity="0.7"/>
<stop offset="0.5" stop-color="white" stop-opacity="0.8"/>
<stop offset="0.6" stop-color="white" stop-opacity="0.9"/>
<stop offset="0.7" stop-color="white" stop-opacity="0.9"/>
<stop offset="0.8" stop-color="white"/>
<stop offset="1" stop-color="white"/>
</linearGradient>
</defs>
</svg>
