<svg width="144" height="144" viewBox="0 0 144 144" fill="none" xmlns="http://www.w3.org/2000/svg">
<rect width="144" height="144" fill="#EF3730"/>
<path d="M5.69531 76.2731C5.93699 80.14 13.1874 83.5236 24.5465 84.9737C27.0695 85.3495 29.6107 85.5916 32.1594 85.6987L37.4764 85.9404V85.0945L31.5552 84.8528C29.6945 84.7989 27.8386 84.6375 25.9965 84.3695C13.4291 82.7985 6.90372 79.1733 6.66204 76.2731H5.69531Z" fill="url(#paint0_linear)"/>
<path d="M135.599 67.9352C135.599 69.1436 131.974 72.4063 117.836 76.0316C105.752 79.1734 89.4381 81.5902 72.1579 82.9195L48.8356 84.4904H48.594L48.2314 87.2697H48.4731C52.2192 87.1489 68.291 86.0613 72.2787 85.6988C83.8679 84.8633 95.4044 83.4112 106.839 81.3485C110.948 80.5027 114.935 79.6568 118.561 78.69C131.853 75.3065 138.137 71.8021 137.895 67.8144L135.599 67.9352Z" fill="url(#paint1_linear)"/>
<path d="M137.895 67.8144C137.774 64.1892 130.886 61.7724 117.352 60.2014C109.804 59.4349 102.221 59.0718 94.6342 59.1139C87.1421 59.1139 79.1666 59.3555 70.9494 59.9597C57.0247 60.8166 43.1756 62.6335 29.5011 65.3976L26.4801 66.1226L24.9092 66.606C16.0878 68.6603 5.57467 72.1646 5.81635 76.2732H6.78306C6.66222 73.6147 13.4293 70.2312 25.1508 67.4519L27.9302 66.8477L29.7428 66.4851C43.3866 63.8517 57.1947 62.1559 71.0703 61.4098C78.4416 60.9265 85.8128 60.6848 92.8216 60.6848C100.934 60.6527 109.042 61.0561 117.111 61.8932C130.645 63.3433 135.478 66.0018 135.599 67.9352L137.895 67.8144Z" fill="white"/>
<path d="M56.086 50.655H25.2717L11.375 106H42.5519L44.6062 97.4203H23.9424L27.9302 81.5902H45.5729L47.748 73.1314H29.8636L33.2472 59.3555H53.7901L55.9652 50.655H56.086ZM52.9442 37C51.7358 37 50.5274 37.725 48.3522 38.9334H48.1106L37.2349 45.5797L35.664 46.5464H37.4766L39.8934 46.9089H40.0142L52.4608 43.042C53.9109 42.6795 55.361 42.1961 55.8444 40.6252C55.9355 40.2571 55.9504 39.8742 55.888 39.5002C55.8257 39.1261 55.6875 38.7687 55.4818 38.4501C55.1245 37.8679 54.5652 37.4378 53.9109 37.2417C53.5965 37.1532 53.2707 37.1125 52.9442 37.1208V37ZM72.3995 86.303L66.9617 86.6655H65.3908L62.2489 99.7163H72.5203L75.9039 85.9405L72.2787 86.303H72.3995ZM60.4363 44.4921L58.2612 52.951H73.8496L73.3662 54.5219L66.3575 82.9194L67.9284 82.7986L72.037 82.4361L76.8706 82.0736L84.0002 53.0718H98.5011L100.314 45.9422L100.676 44.613L60.4363 44.4921ZM132.457 44.2504C128.481 41.8607 123.925 40.6069 119.286 40.6252C116.862 40.5403 114.445 40.9461 112.182 41.8183C109.918 42.6904 107.854 44.0109 106.114 45.7005C103.184 48.7093 101.537 52.7389 101.522 56.9387C101.549 59.0378 101.989 61.1111 102.819 63.0396C103.648 64.9681 104.85 66.7139 106.356 68.1769C107.541 69.449 108.792 70.659 110.102 71.8021C111.326 72.8733 112.458 74.0455 113.485 75.3065C113.746 75.6557 113.988 76.0187 114.21 76.394H114.331L117.715 75.5482L124.361 73.6147C123.843 72.6348 123.236 71.7045 122.548 70.8354C121.568 69.6474 120.519 68.5177 119.407 67.4518L117.715 65.8809C116.828 65.1192 115.981 64.3125 115.177 63.4641C113.254 61.7163 112.084 59.2902 111.914 56.697C111.913 55.6502 112.125 54.614 112.536 53.6512C112.947 52.6885 113.549 51.8192 114.306 51.0961C115.063 50.373 115.959 49.8111 116.94 49.4445C117.92 49.0779 118.965 48.9142 120.011 48.9632C123.653 49.0971 127.108 50.6088 129.678 53.1926L130.524 53.9177L130.766 52.951L132.699 45.0963V44.8546L132.82 44.4921L132.457 44.2504ZM125.69 77.2399C122.631 78.267 119.526 79.1541 116.386 79.8984L115.54 80.1401C115.561 80.5023 115.561 80.8655 115.54 81.2277C115.54 85.6988 112.76 90.1699 106.356 90.1699C102.126 90.1699 98.1386 88.3573 94.3925 84.7321L93.6675 84.1278L93.4258 85.0946L91.3715 93.5534L91.2506 94.0368L91.6132 94.2785L92.5799 94.8827C96.9781 97.3169 101.933 98.5661 106.96 98.5079C119.527 98.5079 126.174 89.6865 126.174 80.986C126.147 79.7634 125.985 78.5476 125.69 77.3608V77.2399Z" fill="white"/>
<defs>
<linearGradient id="paint0_linear" x1="29.5009" y1="81.1068" x2="37.4764" y2="81.1068" gradientUnits="userSpaceOnUse">
<stop stop-color="white"/>
<stop offset="1" stop-color="white" stop-opacity="0"/>
</linearGradient>
<linearGradient id="paint1_linear" x1="45.8146" y1="85.0946" x2="100.676" y2="81.1069" gradientUnits="userSpaceOnUse">
<stop stop-color="white" stop-opacity="0"/>
<stop offset="0.1" stop-color="white" stop-opacity="0.1"/>
<stop offset="0.2" stop-color="white" stop-opacity="0.3"/>
<stop offset="0.3" stop-color="white" stop-opacity="0.5"/>
<stop offset="0.4" stop-color="white" stop-opacity="0.7"/>
<stop offset="0.5" stop-color="white" stop-opacity="0.8"/>
<stop offset="0.6" stop-color="white" stop-opacity="0.9"/>
<stop offset="0.7" stop-color="white" stop-opacity="0.9"/>
<stop offset="0.8" stop-color="white"/>
<stop offset="1" stop-color="white"/>
</linearGradient>
</defs>
</svg>
