<svg width="144" height="144" viewBox="0 0 144 144" fill="none" xmlns="http://www.w3.org/2000/svg">
<rect width="144" height="144" fill="#0C7DBF"/>
<path fill-rule="evenodd" clip-rule="evenodd" d="M71.8879 46.2096C58.0348 47.8772 45.289 47.8164 35.7666 46.3723L39.0656 70.5593C45.3498 70.0139 54.3152 69.1859 60.6733 68.3956C88.0477 64.9931 109.616 54.9467 108.673 46.8783C108.482 45.2403 107.37 43.783 105.51 42.5213C113.909 44.1313 119.242 46.9473 119.694 50.6849C120.666 58.7517 98.5459 68.049 70.286 71.4515C58.7889 72.8348 48.0557 73.027 39.294 72.2269L42.5683 96.2415C48.3974 95.719 55.4242 95.0421 60.6749 94.3866C88.0493 90.9858 109.618 80.9377 108.675 72.8709C108.484 71.2329 107.372 69.7757 105.512 68.5139C113.911 70.124 119.243 72.9399 119.695 76.6759C120.668 84.7443 98.5476 94.0432 70.2877 97.4441C60.3102 98.6434 50.9143 98.9424 42.8755 98.4808L45.7211 119.344H55.71C57.3924 119.19 59.0912 119.017 60.8162 118.805C88.189 115.401 109.618 106.106 108.675 98.0339C108.484 96.3976 107.372 94.9403 105.512 93.6802C113.911 95.2902 119.243 98.1046 119.695 101.844C120.441 108.025 107.62 114.926 88.8757 119.344H119.735V29.7919C114.254 36.61 95.1599 43.4084 71.8879 46.2096V46.2096Z" fill="white"/>
<path fill-rule="evenodd" clip-rule="evenodd" d="M23.5759 73.8736V119.346H36.7834L23.5759 73.8736Z" fill="white"/>
<path fill-rule="evenodd" clip-rule="evenodd" d="M57.9 19.9148C32.3591 22.2231 14.8456 28.0735 15.0279 34.1113C15.0329 34.3018 15.0608 34.4891 15.1068 34.6731L15 34.6649L45.7407 137.348L32.0338 41.0165C40.0874 41.8609 50.3935 41.8757 61.6064 40.862C87.1473 38.5537 107.705 31.7865 107.524 25.7504C107.34 19.7127 83.4425 17.6048 57.9 19.9148V19.9148Z" fill="white"/>
</svg>
