<svg width="316" height="96" viewBox="0 0 316 96" fill="none" xmlns="http://www.w3.org/2000/svg">
<path d="M120.256 73.2933L104.232 90.5731V73.2933L100.338 65.3296L104.232 58.1171L88.6571 56.0135L81.918 48.801L77.575 39.6352L65.1449 36.4798L62 32.1223H75.4783L88.6571 26.1119L107.078 32.1223L110.672 39.6352L100.338 48.801L91.9518 50.9047L104.232 58.1171L120.256 65.3296V73.2933Z" fill="white" fill-opacity="0.09"/>
<path d="M112.619 31.6715L107.078 28.516V26.1119L124.3 22.8062L126.247 31.6715L115.913 36.4798L112.619 31.6715Z" fill="white" fill-opacity="0.09"/>
<path d="M131.488 50.9047L137.479 48.801L141.822 47.1482L147.063 50.0031H151.406L153.353 47.1482L148.561 44.8943L147.063 45.9461L143.02 43.542L145.566 45.9461L144.517 47.1482L143.02 44.8943H140.174L137.479 47.1482H133.585V44.8943H137.479V43.542L135.382 41.8891L140.174 39.6352H145.566L148.561 37.8321L150.058 34.9772L141.822 37.8321L140.174 34.9772L147.063 32.1223L156.798 33.4746L163.087 31.6715L186.749 28.516L220.445 31.6715L221.643 33.4746L201.126 37.8321L203.522 40.8373L196.634 48.801L192.44 45.9461L194.237 50.9047L186.749 56.0135L186.457 60.5993L178.962 56.0135L176.031 61.2726L169.827 50.9047H164.136L160.542 56.0135L153.353 50.0031L160.542 61.2726L151.406 80.055H147.063L141.822 61.2726H131.488V50.9047Z" fill="white" fill-opacity="0.09"/>
<path d="M196.634 80.055L198.511 73.2933L207.96 68.7444L219.037 75.912L214.455 83.5109L207.308 78.5184L202.747 79.8216L196.634 80.055Z" fill="white" fill-opacity="0.09"/>
<path d="M191.995 66.1379L190.366 64.5089H192.44L195.905 63.8573L198.511 63.2057H200.14L203.073 63.8573L205.027 64.5089H202.421L198.511 63.8573L194.237 65.1605L191.995 66.1379Z" fill="white" fill-opacity="0.09"/>
<path d="M187.108 62.8799L186.457 61.2509L187.108 61.9025L188.086 62.5541L187.108 62.8799Z" fill="white" fill-opacity="0.09"/>
<path d="M105.005 40.3995L70.5 13.6837H0" stroke="#FFEB3B" stroke-linejoin="round"/>
<path d="M12.0212 9L10.4685 4.52856H10.4392C10.4807 5.19263 10.5015 5.81519 10.5015 6.39624V9H9.70679V3.646H10.9409L12.4277 7.90503H12.4497L13.9805 3.646H15.2183V9H14.376V6.35229C14.376 6.08618 14.3821 5.7395 14.3943 5.31226C14.4089 4.88501 14.4211 4.62622 14.4309 4.53589H14.4016L12.7939 9H12.0212ZM20.1292 6.96753C20.1292 7.62915 19.9595 8.14551 19.6201 8.5166C19.2808 8.8877 18.8083 9.07324 18.2029 9.07324C17.8245 9.07324 17.49 8.98779 17.1995 8.81689C16.9089 8.646 16.6855 8.40063 16.5293 8.08081C16.373 7.76099 16.2949 7.38989 16.2949 6.96753C16.2949 6.31079 16.4634 5.7981 16.8003 5.42944C17.1372 5.06079 17.6121 4.87646 18.2249 4.87646C18.8108 4.87646 19.2747 5.06567 19.6165 5.44409C19.9583 5.82007 20.1292 6.32788 20.1292 6.96753ZM17.1812 6.96753C17.1812 7.90259 17.5266 8.37012 18.2175 8.37012C18.9011 8.37012 19.2429 7.90259 19.2429 6.96753C19.2429 6.04224 18.8987 5.57959 18.2102 5.57959C17.8489 5.57959 17.5864 5.69922 17.4229 5.93848C17.2617 6.17773 17.1812 6.52075 17.1812 6.96753ZM24.6848 9H23.8206V6.50977C23.8206 6.19727 23.7571 5.96411 23.6301 5.8103C23.5056 5.65649 23.3066 5.57959 23.0332 5.57959C22.6694 5.57959 22.4033 5.68701 22.2349 5.90186C22.0664 6.1167 21.9822 6.47681 21.9822 6.98218V9H21.1216V4.94971H21.7954L21.9163 5.48071H21.9602C22.0823 5.28784 22.2556 5.13892 22.4802 5.03394C22.7048 4.92896 22.9539 4.87646 23.2273 4.87646C24.199 4.87646 24.6848 5.37085 24.6848 6.35962V9ZM27.3911 8.37744C27.6011 8.37744 27.811 8.34448 28.021 8.27856V8.92676C27.9258 8.96826 27.8025 9.00244 27.6511 9.0293C27.5022 9.05859 27.3472 9.07324 27.186 9.07324C26.3706 9.07324 25.9629 8.64355 25.9629 7.78418V5.60156H25.4099V5.2207L26.0032 4.90576L26.2961 4.04883H26.8271V4.94971H27.9807V5.60156H26.8271V7.76953C26.8271 7.97705 26.8784 8.13086 26.981 8.23096C27.0859 8.32861 27.2227 8.37744 27.3911 8.37744ZM30.8884 4.87646C31.0618 4.87646 31.2046 4.88867 31.3169 4.91309L31.2327 5.71509C31.1106 5.68579 30.9836 5.67114 30.8518 5.67114C30.5076 5.67114 30.228 5.78345 30.0132 6.00806C29.8008 6.23267 29.6946 6.52441 29.6946 6.8833V9H28.834V4.94971H29.5078L29.6213 5.66382H29.6653C29.7996 5.42212 29.9741 5.23047 30.189 5.08887C30.4062 4.94727 30.6394 4.87646 30.8884 4.87646ZM33.8401 9.07324C33.2102 9.07324 32.717 8.89014 32.3606 8.52393C32.0066 8.15527 31.8296 7.64868 31.8296 7.00415C31.8296 6.34253 31.9944 5.82251 32.324 5.44409C32.6536 5.06567 33.1064 4.87646 33.6826 4.87646C34.2173 4.87646 34.6396 5.03882 34.9497 5.36353C35.2598 5.68823 35.4148 6.13501 35.4148 6.70386V7.16895H32.7158C32.728 7.56201 32.8342 7.86475 33.0344 8.07715C33.2346 8.28711 33.5166 8.39209 33.8804 8.39209C34.1196 8.39209 34.3418 8.37012 34.5469 8.32617C34.7544 8.27979 34.9766 8.2041 35.2134 8.09912V8.79858C35.0034 8.89868 34.791 8.96948 34.5762 9.01099C34.3613 9.05249 34.116 9.07324 33.8401 9.07324ZM33.6826 5.52832C33.4092 5.52832 33.1895 5.61499 33.0234 5.78833C32.8599 5.96167 32.7622 6.21436 32.7305 6.54639H34.5688C34.564 6.21191 34.4834 5.95923 34.3271 5.78833C34.1709 5.61499 33.9561 5.52832 33.6826 5.52832ZM38.9268 9L38.7546 8.43604H38.7253C38.53 8.68262 38.3335 8.85107 38.1357 8.94141C37.938 9.0293 37.6841 9.07324 37.374 9.07324C36.9761 9.07324 36.6648 8.96582 36.4402 8.75098C36.218 8.53613 36.1069 8.23218 36.1069 7.83911C36.1069 7.42163 36.262 7.10669 36.572 6.89429C36.8821 6.68188 37.3545 6.56592 37.9893 6.54639L38.6887 6.52441V6.30835C38.6887 6.04956 38.6277 5.85669 38.5056 5.72974C38.386 5.60034 38.1992 5.53564 37.9453 5.53564C37.7378 5.53564 37.5388 5.56616 37.3484 5.6272C37.158 5.68823 36.9749 5.76025 36.7991 5.84326L36.5208 5.22803C36.7405 5.11328 36.981 5.02661 37.2422 4.96802C37.5034 4.90698 37.75 4.87646 37.9819 4.87646C38.4971 4.87646 38.8853 4.98877 39.1465 5.21338C39.4102 5.43799 39.542 5.79077 39.542 6.27173V9H38.9268ZM37.645 8.41406C37.9575 8.41406 38.2078 8.32739 38.3958 8.15405C38.5862 7.97827 38.6814 7.73291 38.6814 7.41797V7.06641L38.1614 7.08838C37.7561 7.10303 37.4607 7.17139 37.2751 7.29346C37.092 7.41309 37.0005 7.59741 37.0005 7.84644C37.0005 8.0271 37.0542 8.16748 37.1616 8.26758C37.269 8.36523 37.4302 8.41406 37.645 8.41406ZM41.6038 9H40.7432V3.30176H41.6038V9ZM43.7314 8.21265C43.6143 8.66675 43.3994 9.25146 43.0869 9.9668H42.4534C42.6218 9.30762 42.7476 8.69482 42.8306 8.12842H43.6765L43.7314 8.21265ZM49.1624 4.31982C48.6594 4.31982 48.2639 4.49805 47.9758 4.85449C47.6877 5.21094 47.5437 5.70288 47.5437 6.33032C47.5437 6.98706 47.6816 7.48389 47.9575 7.8208C48.2358 8.15771 48.6375 8.32617 49.1624 8.32617C49.3894 8.32617 49.6091 8.3042 49.8215 8.26025C50.0339 8.21387 50.2549 8.15527 50.4844 8.08447V8.83521C50.0645 8.9939 49.5884 9.07324 49.0562 9.07324C48.2725 9.07324 47.6707 8.83643 47.2507 8.36279C46.8308 7.88672 46.6208 7.20679 46.6208 6.323C46.6208 5.76636 46.7222 5.2793 46.9248 4.86182C47.1299 4.44434 47.4253 4.12451 47.811 3.90234C48.1968 3.68018 48.6497 3.56909 49.1697 3.56909C49.7166 3.56909 50.2219 3.68384 50.6858 3.91333L50.3708 4.64209C50.1902 4.55664 49.9985 4.48218 49.7959 4.4187C49.5957 4.35278 49.3845 4.31982 49.1624 4.31982ZM54.9595 9L54.4248 7.51318H52.3777L51.854 9H50.9312L52.9343 3.62402H53.8865L55.8896 9H54.9595ZM54.1941 6.75879L53.6924 5.30127C53.6558 5.20361 53.6045 5.0498 53.5386 4.83984C53.4751 4.62988 53.4312 4.47607 53.4067 4.37842C53.3408 4.67871 53.2444 5.00708 53.1174 5.36353L52.634 6.75879H54.1941ZM61.0569 9H59.9839L57.3508 4.73364H57.3215L57.3398 4.97168C57.374 5.42578 57.3911 5.84082 57.3911 6.2168V9H56.5964V3.646H57.6584L60.2842 7.89038H60.3062C60.3013 7.83423 60.2915 7.63037 60.2769 7.27881C60.2622 6.9248 60.2549 6.64893 60.2549 6.45117V3.646H61.0569V9Z" fill="white"/>
<path d="M172.067 85.7483H173.656C174.394 85.7483 174.926 85.8557 175.253 86.0705C175.583 86.2854 175.748 86.6247 175.748 87.0886C175.748 87.4011 175.667 87.6611 175.506 87.8686C175.345 88.0761 175.113 88.2068 174.81 88.2605V88.2971C175.186 88.3679 175.462 88.5083 175.638 88.7182C175.816 88.9258 175.905 89.2077 175.905 89.5642C175.905 90.0451 175.737 90.4223 175.4 90.6958C175.065 90.9668 174.599 91.1023 174.001 91.1023H172.067V85.7483ZM172.942 87.9602H173.785C174.151 87.9602 174.418 87.9028 174.587 87.7881C174.755 87.6709 174.839 87.4731 174.839 87.1948C174.839 86.9433 174.748 86.7614 174.565 86.6491C174.384 86.5368 174.096 86.4807 173.7 86.4807H172.942V87.9602ZM172.942 88.6706V90.3662H173.873C174.239 90.3662 174.515 90.2966 174.7 90.1574C174.888 90.0158 174.982 89.7937 174.982 89.4909C174.982 89.2126 174.887 89.0063 174.697 88.872C174.506 88.7378 174.217 88.6706 173.829 88.6706H172.942ZM178.696 91.1755C178.066 91.1755 177.573 90.9924 177.216 90.6262C176.862 90.2575 176.685 89.7509 176.685 89.1064C176.685 88.4448 176.85 87.9248 177.179 87.5464C177.509 87.1679 177.962 86.9787 178.538 86.9787C179.073 86.9787 179.495 87.1411 179.805 87.4658C180.115 87.7905 180.27 88.2373 180.27 88.8061V89.2712H177.571C177.583 89.6643 177.69 89.967 177.89 90.1794C178.09 90.3894 178.372 90.4944 178.736 90.4944C178.975 90.4944 179.197 90.4724 179.402 90.4284C179.61 90.382 179.832 90.3064 180.069 90.2014V90.9008C179.859 91.0009 179.646 91.0717 179.432 91.1133C179.217 91.1548 178.971 91.1755 178.696 91.1755ZM178.538 87.6306C178.265 87.6306 178.045 87.7173 177.879 87.8906C177.715 88.0639 177.618 88.3166 177.586 88.6487H179.424C179.419 88.3142 179.339 88.0615 179.183 87.8906C179.026 87.7173 178.812 87.6306 178.538 87.6306ZM182.109 91.1023H181.248V85.404H182.109V91.1023ZM185.375 87.7038H184.386V91.1023H183.522V87.7038H182.856V87.301L183.522 87.0373V86.7737C183.522 86.2951 183.635 85.9411 183.859 85.7116C184.084 85.4797 184.427 85.3637 184.888 85.3637C185.191 85.3637 185.489 85.4138 185.782 85.5139L185.555 86.1657C185.342 86.0974 185.14 86.0632 184.947 86.0632C184.751 86.0632 184.609 86.1242 184.518 86.2463C184.43 86.3659 184.386 86.5466 184.386 86.7883V87.052H185.375V87.7038ZM189.66 89.0698C189.66 89.7314 189.49 90.2478 189.151 90.6189C188.812 90.99 188.339 91.1755 187.734 91.1755C187.355 91.1755 187.021 91.0901 186.73 90.9192C186.44 90.7483 186.216 90.5029 186.06 90.1831C185.904 89.8633 185.826 89.4922 185.826 89.0698C185.826 88.4131 185.994 87.9004 186.331 87.5317C186.668 87.1631 187.143 86.9787 187.756 86.9787C188.342 86.9787 188.805 87.1679 189.147 87.5464C189.489 87.9223 189.66 88.4301 189.66 89.0698ZM186.712 89.0698C186.712 90.0049 187.057 90.4724 187.748 90.4724C188.432 90.4724 188.774 90.0049 188.774 89.0698C188.774 88.1445 188.429 87.6819 187.741 87.6819C187.38 87.6819 187.117 87.8015 186.954 88.0407C186.792 88.28 186.712 88.623 186.712 89.0698ZM192.707 86.9787C192.88 86.9787 193.023 86.9909 193.135 87.0154L193.051 87.8174C192.929 87.7881 192.802 87.7734 192.67 87.7734C192.326 87.7734 192.046 87.8857 191.832 88.1103C191.619 88.3349 191.513 88.6267 191.513 88.9856V91.1023H190.652V87.052H191.326L191.44 87.7661H191.484C191.618 87.5244 191.792 87.3327 192.007 87.1911C192.225 87.0495 192.458 86.9787 192.707 86.9787ZM195.398 90.4797C195.608 90.4797 195.818 90.4467 196.028 90.3808V91.029C195.933 91.0705 195.81 91.1047 195.658 91.1316C195.51 91.1609 195.354 91.1755 195.193 91.1755C194.378 91.1755 193.97 90.7458 193.97 89.8864V87.7038H193.417V87.323L194.01 87.008L194.303 86.1511H194.834V87.052H195.988V87.7038H194.834V89.8718C194.834 90.0793 194.886 90.2331 194.988 90.3332C195.093 90.4309 195.23 90.4797 195.398 90.4797ZM197.735 90.3149C197.618 90.769 197.403 91.3537 197.09 92.0691H196.457C196.625 91.4099 196.751 90.7971 196.834 90.2307H197.68L197.735 90.3149ZM201.756 91.1023H200.888V85.7483H203.909V86.488H201.756V88.1616H203.774V88.905H201.756V91.1023ZM205.755 88.2385H206.363C206.771 88.2385 207.066 88.1628 207.249 88.0114C207.432 87.8601 207.524 87.6355 207.524 87.3376C207.524 87.0349 207.425 86.8176 207.227 86.6858C207.029 86.5539 206.731 86.488 206.333 86.488H205.755V88.2385ZM205.755 88.9636V91.1023H204.88V85.7483H206.392C207.083 85.7483 207.594 85.8777 207.927 86.1364C208.259 86.3952 208.425 86.7859 208.425 87.3083C208.425 87.9748 208.078 88.4497 207.385 88.7329L208.897 91.1023H207.901L206.619 88.9636H205.755ZM212.999 91.1023L212.464 89.6154H210.417L209.893 91.1023H208.97L210.973 85.7263H211.926L213.929 91.1023H212.999ZM212.233 88.8611L211.731 87.4035C211.695 87.3059 211.644 87.1521 211.578 86.9421C211.514 86.7321 211.47 86.5783 211.446 86.4807C211.38 86.781 211.283 87.1093 211.156 87.4658L210.673 88.8611H212.233Z" fill="white"/>
<path d="M186.083 12.9096H185.068L183.387 10.4853L182.871 10.9065V12.9096H181.996V7.55563H182.871V10.1118C183.11 9.81882 183.348 9.53683 183.585 9.26584L185.032 7.55563H186.028C185.093 8.65427 184.423 9.43674 184.017 9.90305L186.083 12.9096ZM189.236 12.9096L189.064 12.3457H189.034C188.839 12.5923 188.643 12.7607 188.445 12.851C188.247 12.9389 187.993 12.9829 187.683 12.9829C187.285 12.9829 186.974 12.8755 186.749 12.6606C186.527 12.4458 186.416 12.1418 186.416 11.7487C186.416 11.3313 186.571 11.0163 186.881 10.8039C187.191 10.5915 187.664 10.4756 188.298 10.456L188.998 10.4341V10.218C188.998 9.9592 188.937 9.76633 188.815 9.63937C188.695 9.50998 188.508 9.44528 188.254 9.44528C188.047 9.44528 187.848 9.4758 187.657 9.53683C187.467 9.59787 187.284 9.66989 187.108 9.7529L186.83 9.13766C187.05 9.02292 187.29 8.93625 187.551 8.87766C187.812 8.81662 188.059 8.7861 188.291 8.7861C188.806 8.7861 189.194 8.89841 189.456 9.12302C189.719 9.34763 189.851 9.70041 189.851 10.1814V12.9096H189.236ZM187.954 12.3237C188.267 12.3237 188.517 12.237 188.705 12.0637C188.895 11.8879 188.99 11.6425 188.99 11.3276V10.976L188.47 10.998C188.065 11.0127 187.77 11.081 187.584 11.2031C187.401 11.3227 187.31 11.507 187.31 11.7561C187.31 11.9367 187.363 12.0771 187.471 12.1772C187.578 12.2749 187.739 12.3237 187.954 12.3237ZM193.107 8.7861C193.28 8.7861 193.423 8.79831 193.535 8.82272L193.451 9.62473C193.329 9.59543 193.202 9.58078 193.07 9.58078C192.726 9.58078 192.446 9.69308 192.231 9.91769C192.019 10.1423 191.913 10.4341 191.913 10.7929V12.9096H191.052V8.85934H191.726L191.84 9.57346H191.884C192.018 9.33176 192.192 9.14011 192.407 8.9985C192.625 8.8569 192.858 8.7861 193.107 8.7861ZM195.15 12.9096H194.29V7.2114H195.15V12.9096ZM199.105 11.7561C199.105 12.1516 198.961 12.4555 198.673 12.6679C198.385 12.8779 197.972 12.9829 197.435 12.9829C196.896 12.9829 196.462 12.9011 196.135 12.7375V11.9941C196.611 12.2138 197.054 12.3237 197.465 12.3237C197.994 12.3237 198.259 12.1638 198.259 11.844C198.259 11.7414 198.23 11.656 198.171 11.5876C198.113 11.5193 198.016 11.4485 197.882 11.3752C197.748 11.302 197.561 11.219 197.322 11.1262C196.855 10.9455 196.539 10.7649 196.373 10.5842C196.21 10.4035 196.128 10.1692 196.128 9.88107C196.128 9.53439 196.267 9.26584 196.545 9.07541C196.826 8.88254 197.207 8.7861 197.688 8.7861C198.164 8.7861 198.615 8.88254 199.039 9.07541L198.761 9.7236C198.324 9.54294 197.957 9.45261 197.659 9.45261C197.205 9.45261 196.978 9.582 196.978 9.84079C196.978 9.96774 197.036 10.0752 197.153 10.1631C197.273 10.2509 197.532 10.3718 197.93 10.5256C198.264 10.655 198.507 10.7734 198.658 10.8808C198.81 10.9883 198.922 11.1128 198.995 11.2544C199.069 11.3935 199.105 11.5608 199.105 11.7561ZM202.094 8.7861C202.267 8.7861 202.41 8.79831 202.522 8.82272L202.438 9.62473C202.316 9.59543 202.189 9.58078 202.057 9.58078C201.713 9.58078 201.433 9.69308 201.218 9.91769C201.006 10.1423 200.9 10.4341 200.9 10.7929V12.9096H200.039V8.85934H200.713L200.826 9.57346H200.87C201.005 9.33176 201.179 9.14011 201.394 8.9985C201.611 8.8569 201.844 8.7861 202.094 8.7861ZM206.133 12.9096L206.012 12.3786H205.968C205.848 12.5666 205.677 12.7143 205.455 12.8217C205.236 12.9292 204.984 12.9829 204.701 12.9829C204.21 12.9829 203.844 12.8608 203.602 12.6167C203.361 12.3725 203.24 12.0027 203.24 11.507V8.85934H204.108V11.3569C204.108 11.667 204.171 11.9001 204.298 12.0564C204.425 12.2102 204.624 12.2871 204.895 12.2871C205.256 12.2871 205.521 12.1797 205.69 11.9648C205.861 11.7475 205.946 11.385 205.946 10.8772V8.85934H206.81V12.9096H206.133ZM211.6 12.9096H210.736V10.4194C210.736 10.1069 210.673 9.87375 210.546 9.71994C210.421 9.56613 210.222 9.48923 209.949 9.48923C209.587 9.48923 209.321 9.59787 209.15 9.81516C208.982 10.03 208.898 10.3913 208.898 10.8991V12.9096H208.037V7.2114H208.898V8.65793C208.898 8.88986 208.883 9.13766 208.854 9.40134H208.909C209.026 9.20602 209.188 9.05466 209.396 8.94724C209.606 8.83981 209.85 8.7861 210.128 8.7861C211.11 8.7861 211.6 9.28049 211.6 10.2693V12.9096ZM214.567 12.9829C213.937 12.9829 213.444 12.7998 213.087 12.4336C212.733 12.0649 212.556 11.5583 212.556 10.9138C212.556 10.2522 212.721 9.73215 213.051 9.35373C213.38 8.97531 213.833 8.7861 214.409 8.7861C214.944 8.7861 215.366 8.94846 215.676 9.27316C215.986 9.59787 216.141 10.0446 216.141 10.6135V11.0786H213.442C213.455 11.4716 213.561 11.7744 213.761 11.9868C213.961 12.1967 214.243 12.3017 214.607 12.3017C214.846 12.3017 215.068 12.2798 215.273 12.2358C215.481 12.1894 215.703 12.1137 215.94 12.0088V12.7082C215.73 12.8083 215.518 12.8791 215.303 12.9206C215.088 12.9621 214.843 12.9829 214.567 12.9829ZM214.409 9.43796C214.136 9.43796 213.916 9.52463 213.75 9.69797C213.586 9.87131 213.489 10.124 213.457 10.456H215.295C215.291 10.1216 215.21 9.86887 215.054 9.69797C214.897 9.52463 214.683 9.43796 214.409 9.43796ZM218.013 12.1223C217.896 12.5764 217.681 13.1611 217.368 13.8764H216.735C216.903 13.2173 217.029 12.6045 217.112 12.0381H217.958L218.013 12.1223ZM223.356 10.0056H225.326V12.6936C225.004 12.7986 224.694 12.873 224.396 12.917C224.1 12.9609 223.781 12.9829 223.436 12.9829C222.626 12.9829 222.001 12.7436 221.561 12.2651C221.122 11.7841 220.902 11.1067 220.902 10.2326C220.902 9.37082 221.15 8.69699 221.646 8.21115C222.141 7.72287 222.823 7.47873 223.693 7.47873C224.252 7.47873 224.781 7.58615 225.282 7.80099L224.974 8.52975C224.54 8.32956 224.105 8.22946 223.671 8.22946C223.099 8.22946 222.648 8.40891 222.316 8.76779C221.984 9.12668 221.818 9.6174 221.818 10.24C221.818 10.8943 221.967 11.3923 222.264 11.7341C222.565 12.0735 222.996 12.2431 223.557 12.2431C223.84 12.2431 224.143 12.2077 224.465 12.1369V10.7563H223.356V10.0056ZM229.644 12.9096H226.615V7.55563H229.644V8.29538H227.49V9.7529H229.508V10.4853H227.49V12.1662H229.644V12.9096ZM231.68 10.0459H232.288C232.695 10.0459 232.991 9.97018 233.174 9.81882C233.357 9.66745 233.448 9.44284 233.448 9.14499C233.448 8.84225 233.35 8.62497 233.152 8.49313C232.954 8.3613 232.656 8.29538 232.258 8.29538H231.68V10.0459ZM231.68 10.771V12.9096H230.804V7.55563H232.317C233.008 7.55563 233.519 7.68503 233.851 7.94382C234.183 8.20261 234.349 8.59323 234.349 9.11569C234.349 9.7822 234.003 10.257 233.309 10.5403L234.822 12.9096H233.826L232.544 10.771H231.68Z" fill="white"/>
<path d="M142 42L164.501 95H223" stroke="#627E8B" stroke-linejoin="round"/>
<path d="M145.405 42.3544L175.428 17.5934H241.191" stroke="#627E8B" stroke-linejoin="round"/>
<path d="M241.794 42H240.779L239.098 39.5757L238.582 39.9968V42H237.707V36.646H238.582V39.2021C238.821 38.9092 239.059 38.6272 239.296 38.3562L240.743 36.646H241.739C240.804 37.7446 240.134 38.5271 239.728 38.9934L241.794 42ZM245.269 42L245.148 41.469H245.104C244.985 41.657 244.814 41.8047 244.592 41.9121C244.372 42.0195 244.12 42.0732 243.837 42.0732C243.346 42.0732 242.98 41.9512 242.739 41.707C242.497 41.4629 242.376 41.093 242.376 40.5974V37.9497H243.244V40.4473C243.244 40.7573 243.307 40.9905 243.434 41.1467C243.561 41.3005 243.76 41.3774 244.031 41.3774C244.393 41.3774 244.657 41.27 244.826 41.0552C244.997 40.8379 245.082 40.4753 245.082 39.9675V37.9497H245.947V42H245.269ZM249.708 42L249.535 41.436H249.506C249.311 41.6826 249.114 41.8511 248.917 41.9414C248.719 42.0293 248.465 42.0732 248.155 42.0732C247.757 42.0732 247.446 41.9658 247.221 41.751C246.999 41.5361 246.888 41.2322 246.888 40.8391C246.888 40.4216 247.043 40.1067 247.353 39.8943C247.663 39.6819 248.135 39.5659 248.77 39.5464L249.469 39.5244V39.3083C249.469 39.0496 249.408 38.8567 249.286 38.7297C249.167 38.6003 248.98 38.5356 248.726 38.5356C248.519 38.5356 248.32 38.5662 248.129 38.6272C247.939 38.6882 247.756 38.7603 247.58 38.8433L247.302 38.228C247.521 38.1133 247.762 38.0266 248.023 37.968C248.284 37.907 248.531 37.8765 248.763 37.8765C249.278 37.8765 249.666 37.9888 249.927 38.2134C250.191 38.438 250.323 38.7908 250.323 39.2717V42H249.708ZM248.426 41.4141C248.738 41.4141 248.989 41.3274 249.177 41.1541C249.367 40.9783 249.462 40.7329 249.462 40.418V40.0664L248.942 40.0884C248.537 40.103 248.241 40.1714 248.056 40.2935C247.873 40.4131 247.781 40.5974 247.781 40.8464C247.781 41.0271 247.835 41.1675 247.942 41.2676C248.05 41.3652 248.211 41.4141 248.426 41.4141ZM252.385 42H251.524V36.3018H252.385V42ZM256.153 42L255.981 41.436H255.951C255.756 41.6826 255.56 41.8511 255.362 41.9414C255.164 42.0293 254.91 42.0732 254.6 42.0732C254.202 42.0732 253.891 41.9658 253.666 41.751C253.444 41.5361 253.333 41.2322 253.333 40.8391C253.333 40.4216 253.488 40.1067 253.798 39.8943C254.108 39.6819 254.581 39.5659 255.215 39.5464L255.915 39.5244V39.3083C255.915 39.0496 255.854 38.8567 255.732 38.7297C255.612 38.6003 255.425 38.5356 255.171 38.5356C254.964 38.5356 254.765 38.5662 254.574 38.6272C254.384 38.6882 254.201 38.7603 254.025 38.8433L253.747 38.228C253.967 38.1133 254.207 38.0266 254.468 37.968C254.729 37.907 254.976 37.8765 255.208 37.8765C255.723 37.8765 256.111 37.9888 256.373 38.2134C256.636 38.438 256.768 38.7908 256.768 39.2717V42H256.153ZM254.871 41.4141C255.184 41.4141 255.434 41.3274 255.622 41.1541C255.812 40.9783 255.907 40.7329 255.907 40.418V40.0664L255.387 40.0884C254.982 40.103 254.687 40.1714 254.501 40.2935C254.318 40.4131 254.227 40.5974 254.227 40.8464C254.227 41.0271 254.28 41.1675 254.388 41.2676C254.495 41.3652 254.656 41.4141 254.871 41.4141ZM260.009 42V36.646H260.884V41.2493H263.151V42H260.009ZM266.839 42L266.718 41.469H266.674C266.554 41.657 266.384 41.8047 266.161 41.9121C265.942 42.0195 265.69 42.0732 265.407 42.0732C264.916 42.0732 264.55 41.9512 264.308 41.707C264.067 41.4629 263.946 41.093 263.946 40.5974V37.9497H264.814V40.4473C264.814 40.7573 264.877 40.9905 265.004 41.1467C265.131 41.3005 265.33 41.3774 265.601 41.3774C265.962 41.3774 266.227 41.27 266.396 41.0552C266.567 40.8379 266.652 40.4753 266.652 39.9675V37.9497H267.516V42H266.839ZM272.156 42H271.292V39.5024C271.292 39.1924 271.233 38.9617 271.116 38.8103C270.999 38.6565 270.816 38.5796 270.567 38.5796C270.235 38.5796 269.991 38.6882 269.834 38.9055C269.681 39.1204 269.604 39.4792 269.604 39.9822V42H268.743V37.9497H269.417L269.538 38.4807H269.582C269.694 38.2878 269.856 38.1389 270.069 38.0339C270.284 37.929 270.519 37.8765 270.776 37.8765C271.398 37.8765 271.811 38.0889 272.013 38.5137H272.072C272.192 38.3135 272.36 38.1572 272.577 38.0449C272.795 37.9326 273.044 37.8765 273.324 37.8765C273.808 37.8765 274.159 37.9985 274.379 38.2427C274.601 38.4868 274.712 38.8591 274.712 39.3596V42H273.852V39.5024C273.852 39.1924 273.792 38.9617 273.672 38.8103C273.555 38.6565 273.372 38.5796 273.123 38.5796C272.789 38.5796 272.543 38.6846 272.387 38.8945C272.233 39.1021 272.156 39.4219 272.156 39.854V42ZM277.968 42.0732C277.455 42.0732 277.057 41.8889 276.774 41.5203H276.723C276.757 41.8621 276.774 42.0696 276.774 42.1428V43.8018H275.914V37.9497H276.609C276.629 38.0254 276.669 38.2061 276.73 38.4917H276.774C277.043 38.0815 277.446 37.8765 277.983 37.8765C278.488 37.8765 278.881 38.0596 279.162 38.4258C279.445 38.792 279.587 39.3059 279.587 39.9675C279.587 40.6292 279.443 41.1455 279.155 41.5166C278.869 41.8877 278.473 42.0732 277.968 42.0732ZM277.759 38.5796C277.417 38.5796 277.167 38.6797 277.009 38.8799C276.852 39.0801 276.774 39.3999 276.774 39.8394V39.9675C276.774 40.4607 276.852 40.8184 277.009 41.0405C277.165 41.2603 277.42 41.3701 277.774 41.3701C278.072 41.3701 278.301 41.248 278.462 41.0039C278.624 40.7598 278.704 40.4119 278.704 39.9602C278.704 39.5061 278.624 39.1631 278.462 38.9312C278.304 38.6968 278.069 38.5796 277.759 38.5796ZM283.443 42L283.322 41.469H283.278C283.158 41.657 282.988 41.8047 282.765 41.9121C282.546 42.0195 282.294 42.0732 282.011 42.0732C281.52 42.0732 281.154 41.9512 280.912 41.707C280.671 41.4629 280.55 41.093 280.55 40.5974V37.9497H281.418V40.4473C281.418 40.7573 281.481 40.9905 281.608 41.1467C281.735 41.3005 281.934 41.3774 282.205 41.3774C282.566 41.3774 282.831 41.27 283 41.0552C283.171 40.8379 283.256 40.4753 283.256 39.9675V37.9497H284.12V42H283.443ZM287.402 37.8765C287.575 37.8765 287.718 37.8887 287.83 37.9131L287.746 38.7151C287.624 38.6858 287.497 38.6711 287.365 38.6711C287.021 38.6711 286.741 38.7834 286.526 39.0081C286.314 39.2327 286.208 39.5244 286.208 39.8833V42H285.347V37.9497H286.021L286.135 38.6638H286.178C286.313 38.4221 286.487 38.2305 286.702 38.0889C286.919 37.9473 287.153 37.8765 287.402 37.8765ZM289.478 41.2126C289.361 41.6667 289.146 42.2515 288.833 42.9668H288.2C288.368 42.3076 288.494 41.6948 288.577 41.1284H289.423L289.478 41.2126ZM294.946 42L293.393 37.5286H293.364C293.405 38.1926 293.426 38.8152 293.426 39.3962V42H292.631V36.646H293.865L295.352 40.905H295.374L296.905 36.646H298.143V42H297.3V39.3523C297.3 39.0862 297.306 38.7395 297.319 38.3123C297.333 37.885 297.345 37.6262 297.355 37.5359H297.326L295.718 42H294.946ZM301.065 39.0886L302.332 36.646H303.284L301.501 39.9236V42H300.622V39.9529L298.846 36.646H299.798L301.065 39.0886ZM307.078 40.5461C307.078 41.0222 306.906 41.3958 306.562 41.6667C306.218 41.9377 305.743 42.0732 305.137 42.0732C304.532 42.0732 304.036 41.9792 303.65 41.7913V40.9636C303.895 41.0784 304.153 41.1687 304.427 41.2346C304.703 41.3005 304.959 41.3335 305.196 41.3335C305.542 41.3335 305.798 41.2676 305.961 41.1357C306.127 41.0039 306.21 40.8269 306.21 40.6047C306.21 40.4045 306.135 40.2349 305.983 40.0957C305.832 39.9565 305.519 39.7917 305.046 39.6013C304.557 39.4036 304.213 39.1777 304.013 38.9238C303.813 38.6699 303.713 38.3647 303.713 38.0083C303.713 37.5615 303.871 37.21 304.189 36.9536C304.506 36.6973 304.932 36.5691 305.467 36.5691C305.979 36.5691 306.49 36.6814 306.998 36.906L306.719 37.6201C306.243 37.4199 305.818 37.3198 305.445 37.3198C305.162 37.3198 304.947 37.3821 304.8 37.5066C304.654 37.6287 304.581 37.791 304.581 37.9937C304.581 38.1328 304.61 38.2524 304.668 38.3525C304.727 38.4502 304.823 38.543 304.958 38.6309C305.092 38.7188 305.334 38.8347 305.683 38.9788C306.076 39.1423 306.364 39.2949 306.547 39.4365C306.73 39.5781 306.865 39.738 306.95 39.9163C307.035 40.0945 307.078 40.3044 307.078 40.5461Z" fill="white"/>
<path d="M186.945 60.8436L229.744 45.8436H313.945" stroke="#627E8B"/>
</svg>
