<svg width="144" height="144" viewBox="0 0 144 144" fill="none" xmlns="http://www.w3.org/2000/svg">
<rect width="144" height="144" fill="white"/>
<g clip-path="url(#clip0)">
<path fill-rule="evenodd" clip-rule="evenodd" d="M28.9415 65.3342C24.7606 50.4652 27.2052 36.7078 27.2052 20.068C42.1075 12.6702 56.8637 12 72.8544 12C86.6804 12 106.29 13.7818 118.1 20.0445C119.311 35.7307 120.007 49.537 115.973 67.3603C111.939 85.1832 100.203 109.805 73.4417 127.995C44.2359 108.878 34.6866 85.7683 28.9415 65.3342Z" fill="#EE3E33"/>
<path fill-rule="evenodd" clip-rule="evenodd" d="M42.8952 43.5478L28.5054 59.1736C31.7321 74.1524 40.6941 105.549 73.3347 126.729C105.683 104.499 114.351 74.029 116.307 58.831L102.321 43.511L86.8328 59.1847L72.5651 43.6451L58.348 58.9898L42.8952 43.5478Z" fill="white"/>
<path fill-rule="evenodd" clip-rule="evenodd" d="M42.4058 29.674L44.1767 32.6625H40.8179L42.4058 29.674ZM38.3755 31.4437L37.2761 33.0288L39.7801 32.8449L38.3755 31.4437ZM46.4966 31.4437L47.7182 33.0288L45.2762 32.6625L46.4966 31.4437ZM49.4891 27.6611C49.3065 27.6611 48.939 27.5403 49.4891 27.3568C49.9175 27.3568 50.527 27.3568 51.26 28.4548C51.6268 28.2709 52.4809 26.9905 53.3977 27.3568C53.2752 28.6991 50.5273 33.7594 50.1617 34.2472C48.939 33.5151 41.7332 33.1492 42.4058 33.1492C42.9552 33.1492 35.6273 33.3327 34.5894 34.2472C34.2847 33.5151 31.4143 28.6987 31.4143 27.1744C32.2695 26.8074 33.2457 28.0285 33.5505 28.2713C34.2847 27.1744 34.9561 27.1744 35.2004 27.1744C35.8719 27.3568 35.5051 27.5406 35.3214 27.6611C31.7796 30.5892 36.9108 33.7594 37.9475 30.5892C42.5888 31.0155 41.368 27.3568 40.2689 26.807C39.4137 26.5639 39.9627 26.5034 40.2689 26.5034C40.6353 26.3199 41.1241 26.3199 41.1241 26.5639C41.1241 24.6744 41.3684 23.271 42.4062 22.7224C43.444 23.3929 43.6886 24.6744 43.444 26.5639C43.6883 26.3199 44.1767 26.5034 44.5435 26.5034C44.7261 26.5639 45.4592 26.5639 44.7261 26.9905C43.444 27.3564 42.4058 31.1979 46.8634 30.5892C47.9012 33.7594 53.2752 30.1629 49.4891 27.6611Z" fill="white"/>
<path fill-rule="evenodd" clip-rule="evenodd" d="M37.2386 35.2941C37.5961 35.2941 37.9536 35.5324 37.9536 36.1293C37.9536 36.6072 37.5961 36.9643 37.2386 36.9643C36.759 36.9643 36.4015 36.6072 36.4015 36.1293C36.4015 35.5324 36.759 35.2941 37.2386 35.2941ZM39.9846 34.6983C40.462 34.6983 40.9405 35.0553 40.9405 35.5321C40.9405 36.129 40.462 36.3674 39.9846 36.3674C39.626 36.3674 39.1486 36.129 39.1486 35.5321C39.1486 35.0557 39.626 34.6983 39.9846 34.6983ZM42.8517 34.4602C43.2092 34.4602 43.6866 34.937 43.6866 35.4138C43.6866 35.7708 43.2092 36.2476 42.8517 36.2476C42.3731 36.2476 42.0142 35.7708 42.0142 35.4138C42.0145 34.937 42.3731 34.4602 42.8517 34.4602ZM45.359 34.6983C45.8364 34.6983 46.1965 35.0553 46.1965 35.5321C46.1965 36.0089 45.8368 36.3674 45.359 36.3674C44.8816 36.3674 44.5241 36.0092 44.5241 35.5321C44.5237 35.0557 44.8816 34.6983 45.359 34.6983ZM48.1069 35.2941C48.5843 35.2941 48.9418 35.6522 48.9418 36.1293C48.9418 36.6072 48.5843 36.9643 48.1069 36.9643C47.6283 36.9643 47.2697 36.6072 47.2697 36.1293C47.2697 35.6522 47.6283 35.2941 48.1069 35.2941ZM36.5214 37.7992C36.0439 36.9643 35.4466 35.5324 35.0869 34.937C36.4015 34.1006 41.0593 33.9824 42.613 33.8622C45.2402 33.8622 48.7034 34.3401 49.8984 34.937C49.8984 34.6986 49.1812 37.2023 48.8233 37.9178C46.9126 37.2027 44.1644 37.084 42.4934 37.084C40.462 36.9639 38.0735 37.2023 36.5214 37.7992Z" fill="white"/>
<path fill-rule="evenodd" clip-rule="evenodd" d="M42.6821 37.7811C46.0266 37.7811 48.6549 38.1393 48.6549 38.616C48.6549 38.9731 46.0266 39.2115 42.6821 39.2115C39.4587 39.2115 36.7104 38.9731 36.7104 38.616C36.7108 38.1393 39.4587 37.7811 42.6821 37.7811Z" fill="white"/>
<path fill-rule="evenodd" clip-rule="evenodd" d="M98.0409 31.4437L96.9422 33.0288L99.6894 32.8449L98.0409 31.4437ZM102.194 29.674L103.905 32.6625H100.729L102.194 29.674ZM106.407 31.4437L107.628 33.0288L105.186 32.6625L106.407 31.4437ZM109.4 27.6611C109.034 27.6611 108.667 27.5403 109.4 27.3568C109.766 27.3568 110.499 27.3568 110.989 28.4548C111.354 28.2709 112.393 26.9905 113.308 27.3568C113.125 28.6991 110.499 33.7594 110.072 34.2472C108.85 33.5151 101.584 33.1492 102.194 33.1492C102.866 33.1492 95.5985 33.3327 94.5002 34.2472C94.1944 33.5151 91.3251 28.6987 91.1414 27.1744C92.2408 26.8074 93.096 28.0285 93.4613 28.2713C94.1943 27.1744 94.8669 27.1744 95.0484 27.1744C95.5989 27.3568 95.4163 27.5406 95.2322 27.6611C91.5066 30.5892 96.8194 33.7594 97.7373 30.5892C102.439 31.0155 101.216 27.3568 100.056 26.807C99.264 26.5639 99.8735 26.5034 100.118 26.5034C100.362 26.3199 101.095 26.3199 101.095 26.5639C101.095 24.6733 101.095 23.271 102.194 22.7224C103.232 23.3929 103.537 24.6733 103.415 26.5639C103.537 26.3199 104.086 26.5034 104.453 26.5034C104.576 26.5639 105.185 26.5639 104.453 26.9905C103.232 27.3564 102.315 31.1979 106.774 30.5892C107.628 33.7594 113.124 30.1629 109.4 27.6611Z" fill="white"/>
<path fill-rule="evenodd" clip-rule="evenodd" d="M97.089 35.2941C97.4491 35.2941 97.8063 35.5324 97.8063 36.1293C97.8063 36.6072 97.4487 36.9643 97.089 36.9643C96.6116 36.9643 96.2537 36.6072 96.2537 36.1293C96.2541 35.5324 96.6116 35.2941 97.089 35.2941ZM99.8376 34.6983C100.315 34.6983 100.792 35.0553 100.792 35.5321C100.792 36.129 100.315 36.3674 99.8376 36.3674C99.4787 36.3674 99.0001 36.129 99.0001 35.5321C99.0001 35.0557 99.4787 34.6983 99.8376 34.6983ZM102.702 34.4602C103.062 34.4602 103.539 34.937 103.539 35.4138C103.539 35.7708 103.062 36.2476 102.702 36.2476C102.225 36.2476 101.867 35.7708 101.867 35.4138C101.867 34.937 102.225 34.4602 102.702 34.4602ZM105.212 34.6983C105.689 34.6983 106.047 35.0553 106.047 35.5321C106.047 36.0089 105.689 36.3674 105.212 36.3674C104.734 36.3674 104.374 36.0092 104.374 35.5321C104.375 35.0557 104.734 34.6983 105.212 34.6983ZM107.958 35.2941C108.436 35.2941 108.795 35.6522 108.795 36.1293C108.795 36.6072 108.436 36.9643 107.958 36.9643C107.48 36.9643 107.122 36.6072 107.122 36.1293C107.123 35.6522 107.48 35.2941 107.958 35.2941ZM96.3729 37.7992C95.8955 36.9643 95.2982 35.5324 94.9392 34.937C96.2537 34.1006 100.911 33.9824 102.463 33.8622C105.092 33.8622 108.556 34.3401 109.751 34.937C109.751 34.6986 109.034 37.2023 108.675 37.9178C106.764 37.2027 104.017 37.084 102.345 37.084C100.315 36.9639 97.9265 37.2023 96.3729 37.7992Z" fill="white"/>
<path fill-rule="evenodd" clip-rule="evenodd" d="M102.534 37.7767C105.877 37.7767 108.505 38.1349 108.505 38.6117C108.505 38.9698 105.877 39.2082 102.534 39.2082C99.3081 39.2082 96.5613 38.9698 96.5613 38.6117C96.5613 38.1349 99.3081 37.7767 102.534 37.7767Z" fill="white"/>
<path fill-rule="evenodd" clip-rule="evenodd" d="M65.5006 23.2231H65.9891V20.784H65.5006V23.2231ZM68.2489 22.4309L67.2727 20.7239H66.7226V23.1631H67.21V21.4549L68.188 23.1631H68.7363V20.7239H68.2485V22.4309H68.2489ZM63.4855 28.4673H64.5838C65.439 28.4673 65.6228 27.6759 65.6228 27.1869C65.6228 26.6999 65.439 25.9677 64.6465 25.9677H63.4859V28.4673H63.4855ZM64.0348 26.3955H64.5233C64.7676 26.3955 65.1343 26.4559 65.1343 27.1869C65.1343 27.6144 64.9517 28.041 64.5233 28.041H64.0348V26.3955ZM65.9279 26.9427C65.9279 28.163 66.7831 28.2849 67.1498 28.2849C67.4546 28.2849 68.3703 28.163 68.3703 26.9427C68.3703 25.7853 67.4549 25.6623 67.1498 25.6623C66.7831 25.6623 65.9279 25.7853 65.9279 26.9427ZM66.478 26.9427C66.478 26.2724 66.8447 26.0897 67.1494 26.0897C67.3937 26.0897 67.8205 26.2724 67.8205 26.9427C67.8205 27.6759 67.3937 27.8572 67.1494 27.8572C66.8447 27.8572 66.478 27.6759 66.478 26.9427ZM71.1798 25.481H70.3865L69.9597 27.432L69.5313 25.481H68.737V27.9806H69.2255V25.9077L69.7151 27.9806H70.2028L70.6913 25.9077V27.9806H71.1798V25.481ZM64.7071 33.7727H65.1959V31.2731H64.7071V33.7727ZM67.3332 32.7978L66.3547 31.0292H65.7453V33.5892H66.2942V31.7602L67.2727 33.5892H67.8205V31.0292H67.3332V32.7978ZM68.3699 32.188C68.3699 33.4083 69.2251 33.5292 69.5918 33.5292C69.8977 33.5292 70.7522 33.4083 70.7522 32.188C70.7522 31.0296 69.8981 30.9065 69.5918 30.9065C69.2251 30.9065 68.3699 31.0292 68.3699 32.188ZM68.8599 32.188C68.8599 31.5178 69.2867 31.3339 69.5915 31.3339C69.8357 31.3339 70.264 31.5178 70.264 32.188C70.264 32.919 69.8357 33.1025 69.5915 33.1025C69.2867 33.1025 68.8599 32.9186 68.8599 32.188ZM62.6919 18.3455C62.6919 18.3455 64.8281 19.1996 66.7226 18.529C68.9204 17.4914 70.8145 17.0648 72.4017 17.7969V36.5173C71.0576 36.0295 69.5918 36.2119 67.4546 36.7001C65.5626 37.2483 64.2794 37.2483 62.6923 36.944V18.3455H62.6919Z" fill="white"/>
<path fill-rule="evenodd" clip-rule="evenodd" d="M61.9174 18.5143L60.3284 19.9155V38.6967L61.9174 37.0512V18.5143Z" fill="white"/>
<path fill-rule="evenodd" clip-rule="evenodd" d="M60.8784 39.0022L62.6493 37.5984C63.9318 37.9657 66.6797 37.4171 67.9617 37.2336C70.099 36.9281 71.0158 36.5015 72.5425 37.2336C71.6873 37.5984 71.1368 38.3316 71.1368 39.0022H60.8784Z" fill="white"/>
<path fill-rule="evenodd" clip-rule="evenodd" d="M84.7549 39.0022L83.0445 37.5984C81.5794 37.9657 79.0758 37.4171 77.7321 37.2336C75.4118 36.9281 74.6791 36.5015 73.3362 37.2336C74.0077 37.5984 74.4965 38.3316 74.374 39.0022H84.7549Z" fill="white"/>
<path fill-rule="evenodd" clip-rule="evenodd" d="M83.5342 18.3307L85.183 19.9155V38.5143L83.5342 36.9281V18.3307Z" fill="white"/>
<path fill-rule="evenodd" clip-rule="evenodd" d="M81.0447 22.8583L80.0678 21.0898H79.5184V23.589H80.0073V21.8219L81.0451 23.589H81.5941V21.0898H81.0451V22.8583H81.0447ZM77.2587 22.309C77.2587 21.6384 77.625 21.4549 77.9298 21.4549C78.1755 21.4549 78.6012 21.6384 78.6012 22.309C78.6012 23.0422 78.1755 23.2235 77.9298 23.2235C77.6254 23.2231 77.2587 23.0418 77.2587 22.309ZM76.7097 22.309C76.7097 23.5293 77.5645 23.6513 77.9301 23.6513C78.2364 23.6513 79.1521 23.5293 79.1521 22.309C79.1521 21.1506 78.2367 21.0286 77.9301 21.0286C77.5649 21.0282 76.7097 21.1502 76.7097 22.309ZM76.2813 21.578C76.2208 21.2121 75.915 20.7239 75.183 20.7239C74.5104 20.7239 74.0227 21.1506 74.0227 22.0046C74.0227 22.9191 74.51 23.3466 75.183 23.3466C75.7936 23.3466 76.1592 22.9796 76.2813 22.4309H75.7312C75.6707 22.7368 75.487 22.9191 75.1834 22.9191C74.6949 22.9191 74.5713 22.4925 74.5713 22.0046C74.5713 21.3341 74.9391 21.1506 75.1834 21.1506C75.6102 21.1506 75.6707 21.4549 75.7312 21.578H76.2813V21.578ZM78.6016 28.5904H79.1517V26.0897H78.6016V28.5904ZM76.7097 27.4924H77.808V27.0057H76.7097V26.4559H77.9917V26.0282H76.1592V28.5289H76.7097V27.4924V27.4924ZM78.6632 32.5539C78.6632 31.8833 79.0296 31.6998 79.3354 31.6998C79.5797 31.6998 80.0069 31.8833 80.0069 32.5539C80.0069 33.2849 79.5797 33.4684 79.3354 33.4684C79.0296 33.4684 78.6632 33.2849 78.6632 32.5539ZM78.1142 32.5539C78.1142 33.7727 78.9691 33.8947 79.3358 33.8947C79.6406 33.8947 80.5566 33.7727 80.5566 32.5539C80.5566 31.3943 79.6409 31.2731 79.3358 31.2731C78.9691 31.2735 78.1142 31.3943 78.1142 32.5539ZM75.8545 31.3943H76.3429C76.5865 31.3943 76.8923 31.4559 76.8923 32.188C76.8923 32.6147 76.7702 33.041 76.3429 33.041H75.8545V31.3943ZM75.3051 33.4684H76.4046C77.2583 33.4684 77.4413 32.6747 77.4413 32.1261C77.4413 31.6394 77.2587 30.9688 76.4046 30.9688H75.3051V33.4684ZM82.8773 18.3455C82.8773 18.3455 80.7389 19.1996 78.847 18.529C76.5259 17.4914 74.6945 17.0648 73.3508 17.7969V36.5173C74.5108 36.0295 75.915 36.2119 78.0523 36.7001C80.0678 37.2483 81.2274 37.2483 82.8773 36.944V18.3455Z" fill="white"/>
<path fill-rule="evenodd" clip-rule="evenodd" d="M72.9079 37.5988C72.2368 38.332 71.8708 38.332 72.0542 39.0026H73.5794C73.7631 38.332 73.5794 37.9657 72.9079 37.5988Z" fill="white"/>
<path fill-rule="evenodd" clip-rule="evenodd" d="M44.4444 65.4517C44.6831 65.4517 44.9218 65.6901 44.9218 65.9285C44.9218 66.1669 44.6831 66.4053 44.4444 66.4053C44.2057 66.4053 43.967 66.1669 43.967 65.9285C43.967 65.6901 44.2057 65.4517 44.4444 65.4517ZM40.9811 72.368C41.2198 71.8912 41.6973 70.4594 41.936 69.9837C41.6973 69.5069 41.2198 69.0276 40.7424 69.0276C40.9811 68.5519 41.8161 67.8367 41.6973 67.4786C41.4585 67.0018 41.0999 67.1215 40.2639 66.6433C40.5037 66.0468 41.2198 65.6897 41.5777 65.6897C42.0562 65.57 42.0562 64.8544 42.8923 64.4967C43.7275 64.0199 44.5647 64.0199 45.5195 64.0199C46.9528 64.1385 50.5364 65.0936 49.5812 69.5069C51.731 73.9195 59.3736 67.9557 62.002 67.9557C61.5234 69.0279 60.9272 69.9841 60.3299 70.9365C61.046 71.4133 62.002 70.9365 62.8383 70.9365C62.002 73.3219 60.5686 74.3963 59.3736 75.3502C60.5682 79.2857 65.1066 77.7356 69.1683 77.2588C68.6898 78.5694 67.0177 78.8089 66.3012 79.7628C67.6158 81.1943 69.1683 83.1025 70.1231 85.1309C68.3323 83.9378 64.6288 82.6246 63.3154 82.1478C60.9269 81.1939 55.9104 81.1939 53.5218 82.1478C53.9992 83.1025 54.9555 83.5793 55.6713 84.1758C54.4778 86.5608 51.9693 85.1309 50.536 84.653C49.2215 85.6073 46.9528 85.6073 46.3551 85.1309C46.3551 85.1309 46.3551 84.5332 47.0713 83.9378C47.5498 83.3413 45.6376 83.1025 45.0413 82.1482C45.0413 81.314 46.1164 82.1482 46.5938 81.1943C45.3992 78.8085 40.2635 78.212 40.9811 72.368Z" fill="#EE3E33"/>
<path fill-rule="evenodd" clip-rule="evenodd" d="M79.0623 66.1536C79.4213 66.1536 79.5397 66.2733 79.5397 66.6304C79.5397 66.8699 79.4213 67.1083 79.0623 67.1083C78.8239 67.1083 78.5849 66.8699 78.5849 66.6304C78.5849 66.2733 78.8239 66.1536 79.0623 66.1536ZM75.7182 73.071C75.8381 72.5942 76.3166 71.1624 76.6741 70.6856C76.3166 70.2088 75.8381 69.6134 75.4795 69.6134C75.7182 69.1366 76.5553 68.539 76.317 68.1819C76.196 67.7052 75.8385 67.8238 75.0024 67.347C75.2408 66.7516 75.8388 66.3924 76.317 66.2733C76.7944 66.2733 76.7944 65.5582 77.5105 65.0814C78.3465 64.7233 79.3013 64.7233 80.2573 64.6046C81.5711 64.843 85.273 65.7966 84.3182 70.2088C86.4677 74.5024 94.1129 68.6583 96.7397 68.6583C96.2623 69.613 95.5451 70.6852 95.0677 71.6403C95.7838 72.117 96.7397 71.6403 97.5761 71.6403C96.7397 74.0256 95.3068 75.0989 94.1129 76.054C95.3064 79.8693 99.8455 78.4393 103.906 77.9611C103.429 79.2732 101.757 79.3929 100.919 80.4651C102.353 81.8969 103.906 83.8051 104.861 85.8324C103.07 84.639 99.2471 83.3284 98.0535 82.8516C95.5451 81.8969 90.6485 81.8969 88.1401 82.8516C88.6179 83.8055 89.6926 84.2823 90.4098 84.7602C89.096 87.2638 86.7079 85.8327 85.273 85.3556C83.9603 86.3088 81.691 86.3088 81.0937 85.8324C81.0937 85.8324 81.0937 85.1168 81.8109 84.639C82.2883 83.9238 80.3772 83.8051 79.7788 82.8512C79.7788 81.8966 80.7347 82.8512 81.3324 81.8965C80.0186 79.3929 75.0017 78.9161 75.7182 73.071Z" fill="#EE3E33"/>
<path fill-rule="evenodd" clip-rule="evenodd" d="M62.5775 90.7641C62.6974 90.7641 62.9361 90.8828 62.9361 91.2413C62.9361 91.3592 62.6977 91.5983 62.5775 91.5983C62.22 91.5983 61.9813 91.3596 61.9813 91.2413C61.9813 90.8828 62.2203 90.7641 62.5775 90.7641ZM58.9947 97.6804C59.233 97.2033 59.7108 95.7726 60.0705 95.2961C59.7108 94.8168 59.233 94.2217 58.8759 94.2217C58.9947 93.7446 59.8307 93.1488 59.7112 92.791C59.4725 92.3131 59.2334 92.4325 58.2786 91.9554C58.6372 91.3588 59.2334 91.0018 59.7112 90.8824C60.1897 90.8824 60.1897 90.1658 60.9058 89.6894C61.7418 89.3323 62.6977 89.3323 63.6537 89.2122C64.9664 89.3323 68.5495 90.4053 67.5947 94.8168C69.7442 99.11 77.5082 93.2674 80.1362 93.2674C79.6587 94.2217 78.9415 95.2961 78.4641 96.2482C79.1802 96.7254 80.1362 96.2482 80.8526 96.2482C80.1365 98.634 78.7032 99.5875 77.5085 100.662C78.7032 104.479 83.2412 103.048 87.3021 102.571C86.8232 103.882 85.1523 104.001 84.3159 104.956C85.7496 106.505 87.3021 108.415 88.2569 110.442C86.4661 109.25 82.6438 107.937 81.4503 107.46C78.9419 106.505 74.0442 106.505 71.5369 107.46C72.0146 108.415 72.9706 108.891 73.8055 109.369C72.4928 111.874 70.1035 110.442 68.5499 109.846C67.3564 110.92 65.0866 110.92 64.3705 110.442C64.3705 110.442 64.3705 109.727 65.2058 109.25C65.6843 108.535 63.7732 108.415 63.1759 107.46C63.1759 106.505 64.1318 107.46 64.728 106.505C63.4139 104.001 58.2782 103.524 58.9947 97.6804Z" fill="#EE3E33"/>
<path fill-rule="evenodd" clip-rule="evenodd" d="M23.1189 90.6754C23.3901 89.5928 24.242 88.7811 25.1698 88.6278C27.0271 88.1636 28.4966 86.0774 30.2764 85.8464C33.1401 85.4606 35.2279 88.1636 34.7642 89.7093C34.068 91.0615 30.5095 92.7225 31.5149 94.1897C33.4876 97.0876 34.997 98.7099 35.2279 101.298C35.3836 102.844 32.5974 103.152 32.5974 104.697C34.6103 107.981 50.7419 127.026 64.0113 132.203C64.2821 130.89 64.0895 129.769 67.2617 129.499C70.2014 129.267 75.2695 129.267 78.2882 129.15C81.9238 128.996 81.46 132.357 82.7757 131.855C96.2376 126.795 111.21 109.372 114.15 104.234C114.15 103.307 112.758 102.534 112.139 101.917C111.365 101.144 111.906 99.0956 112.255 98.3624C113.299 96.1992 114.46 95.0788 115.698 92.4907C114.615 90.598 113.454 90.7903 112.447 89.3998C111.635 87.2366 115.427 83.9916 117.748 85.4212C119.488 86.1552 120.496 87.1596 122.314 88.1238C124.556 89.3607 124.132 91.5246 123.474 93.378C122.584 95.8507 120.804 98.208 119.76 101.066C119.026 103.114 120.651 102.999 120.883 103.732C121.966 104.466 122.121 105.779 120.766 107.943C113.725 119.301 99.488 133.478 85.7541 139.271C84.5167 139.775 83.7039 140.315 81.1899 139.775C79.2545 139.35 79.7588 136.877 78.8678 136.065C78.5207 135.214 66.9525 135.719 66.2552 136.645C65.8294 138.306 64.9015 140.432 62.8513 139.89C49.0396 136.336 27.3355 111.69 25.2477 107.517C24.4349 105.895 25.6343 103.616 27.2204 102.419C27.375 101.801 26.4076 100.217 26.2531 99.5993C25.2473 97.0485 22.3851 93.6886 23.1189 90.6754Z" fill="#EE3E33"/>
<path fill-rule="evenodd" clip-rule="evenodd" d="M31.0496 86.6548C30.1988 86.6931 29.1533 87.4271 29.6576 88.8172C30.5084 88.315 31.2042 87.1562 31.9779 87.388C32.3265 87.8522 31.8233 88.315 33.2164 89.7443C33.5267 89.7443 33.8351 89.5895 33.9908 89.4362C33.7957 87.8898 31.7469 86.7701 31.0496 86.6548ZM31.3208 88.6253C31.0116 88.9326 30.1217 89.7443 29.8111 90.2085C30.0443 91.0195 30.2368 91.5217 30.7401 92.371L32.8674 90.672C32.3656 90.0932 31.8624 89.5895 31.3208 88.6253ZM28.1099 88.0453C27.3355 88.3541 26.5622 89.4362 25.6343 89.5895C21.5715 90.3633 25.8269 95.7324 28.0719 101.488C29.6185 99.8661 30.5859 100.059 31.7849 100.252C32.4036 100.523 33.6422 101.798 34.2605 101.566C34.5712 101.024 32.9069 98.1277 32.4033 97.393C31.0496 95.4236 29.1164 92.217 28.1099 88.0453ZM33.0615 102.531C32.5977 102.068 31.7078 100.755 30.9341 100.91C30.9341 101.837 31.2433 102.996 32.017 103.768C32.3262 103.459 32.7523 102.996 33.0615 102.531ZM29.6576 101.488C28.1479 102.763 24.937 104.733 26.5227 108.132C29.9288 113.772 51.6701 136.642 62.1931 138.806C63.6633 139.308 64.9782 138.264 65.2878 136.217C65.5981 134.171 66.2943 134.712 66.3323 133.475C57.0475 133.938 31.5149 107.824 29.6576 101.488ZM66.6809 132.006C66.3717 132.006 65.753 131.62 65.4427 131.62C65.2881 131.775 65.1332 131.968 65.1332 132.277C65.4424 132.586 66.8355 132.779 66.6809 132.006ZM78.0941 132.239C77.9392 131.156 79.4858 131.156 79.951 130.693C80.7243 129.379 67.9574 130.076 66.3323 130.577C66.1788 131.042 68.0357 131.505 67.7254 133.011C67.5704 133.784 66.9517 134.401 67.1067 135.33C72.0199 134.479 75.0371 134.518 78.7516 134.983C79.022 134.401 77.7835 133.167 78.0941 132.239ZM80.6081 131.582C80.2985 131.428 79.9514 131.891 79.6407 132.045C79.7957 132.2 80.3771 132.471 81.0338 132.277C81.0718 131.814 80.6081 131.737 80.6081 131.582ZM120.494 106.047C120.727 104.425 119.644 104.076 118.871 103.304C118.095 102.531 117.284 102.068 116.627 101.333C116.277 102.685 116.627 102.685 115.428 104.039C108.463 114.777 95.1551 127.332 84.9409 132.006C82.6579 133.243 81.2659 133.474 79.3326 133.32C79.3326 133.784 79.7957 134.556 79.9514 135.019C80.4144 136.41 79.6407 140.003 84.4772 138.844C84.4772 138.844 93.994 135.29 104.673 125.401C117.593 113.464 120.494 106.047 120.494 106.047ZM115.233 100.87C114.923 100.87 114.15 101.488 113.995 101.643C113.995 102.106 114.459 102.417 114.769 102.725C115.389 102.417 115.543 101.488 115.233 100.87ZM122.816 90.672C123.203 89.7443 120.146 87.6588 118.947 87.7366C118.908 88.8176 118.483 89.5516 117.71 91.2903C116.433 94.1502 114.15 96.389 113.221 99.1712C113.066 99.6347 112.758 100.253 113.221 100.716C115.04 99.5186 116.82 99.3259 118.406 101.257C118.871 100.949 118.986 99.9044 119.258 99.3259C120.34 97.0076 122.816 93.9166 122.816 90.672ZM117.245 89.4362L116.277 88.3935C115.851 88.7402 115.078 89.4746 114.769 89.8607C115.117 90.5947 115.658 91.2129 116.356 91.5596C116.82 91.56 117.09 89.8997 117.245 89.4362ZM115.543 86.1913C114.731 86.3445 112.758 88.0449 113.686 88.972C115.891 89.2822 114.692 86.8858 115.659 86.6548C117.168 86.6548 116.743 88.1997 117.98 87.6205C118.56 86.6161 116.201 86.0748 115.543 86.1913Z" fill="white"/>
<path fill-rule="evenodd" clip-rule="evenodd" d="M60.8726 136.392C60.6284 136.942 60.5668 137.004 60.262 136.942L60.0178 136.82C59.9573 136.82 59.8957 136.942 59.8957 137.004C60.3225 137.246 60.6284 137.308 60.9335 137.43C61.1176 137.551 61.4224 137.734 61.7887 137.918C61.8492 137.857 61.8492 137.734 61.8492 137.674L61.6666 137.551C61.4224 137.369 61.4224 137.369 61.6666 136.82L62.8269 134.321C62.8885 134.198 62.8885 134.198 63.0096 134.259L63.3759 134.381C63.8039 134.625 63.8039 134.869 63.6807 135.356C63.6807 135.356 63.8644 135.418 63.8644 135.356C64.0481 135.052 64.2913 134.625 64.4145 134.502C64.4145 134.441 64.4145 134.381 64.3529 134.381H64.2913C64.1702 134.441 64.1086 134.381 63.7434 134.198L61.6666 133.223C61.2386 133.041 61.2386 133.041 61.2386 132.918C61.1781 132.918 61.2386 132.918 61.1781 132.857C61.1176 132.857 61.056 132.857 61.056 132.857C60.9335 133.041 60.7509 133.407 60.445 133.711C60.445 133.772 60.5066 133.893 60.6288 133.893C60.994 133.588 61.1781 133.407 61.605 133.588L61.9725 133.772C62.0935 133.832 62.0935 133.832 62.033 133.955L60.8726 136.392ZM59.1626 133.893C59.4677 133.467 59.6514 133.041 59.8957 132.918C59.9573 132.857 60.0783 132.857 60.2015 132.918L60.3225 132.979C60.3831 132.918 60.4447 132.857 60.4447 132.735C60.2015 132.674 60.0178 132.553 59.8341 132.43C59.6514 132.309 59.4072 132.187 59.1021 132.063C59.0405 132.063 59.0405 132.187 59.0405 132.247L59.1021 132.309C59.2862 132.43 59.3467 132.491 59.3467 132.674C59.3467 132.857 59.1021 133.283 58.9184 133.711L58.4915 134.441C58.3683 134.565 58.3683 134.625 58.3078 134.685C58.3078 134.502 58.1867 134.198 58.124 133.772L57.9414 132.979C57.8193 132.187 57.6968 131.576 57.7588 131.272C57.6367 131.272 57.5131 131.149 57.3315 131.028C57.0873 130.906 56.7814 130.784 56.5977 130.602C56.4767 130.602 56.4162 130.723 56.4162 130.844L56.5977 130.906C56.7209 131.028 56.7814 131.149 56.7814 131.272C56.7814 131.332 56.7209 131.454 56.5977 131.759L55.8056 133.161C55.561 133.588 55.3156 133.955 55.133 134.077C55.0714 134.137 54.9504 134.077 54.8272 134.077H54.7062C54.6445 134.077 54.584 134.198 54.584 134.259C54.7667 134.381 55.0109 134.441 55.1946 134.565C55.3773 134.685 55.6215 134.808 55.8661 134.991C55.9262 134.929 55.9882 134.808 55.9882 134.747L55.8661 134.685C55.7425 134.565 55.6215 134.441 55.6215 134.321C55.682 134.137 55.8661 133.711 56.1103 133.283L56.7209 132.247C56.7814 132.063 56.842 131.942 56.9036 131.942C56.9652 132.063 57.0257 132.369 57.1478 132.917L57.5131 135.175C57.6367 135.6 57.6367 136.027 57.6367 136.027C57.7588 136.09 57.9414 136.09 58.003 136.09C58.0635 135.846 58.3078 135.54 58.4915 135.175L59.1626 133.893ZM51.5288 130.052C51.102 130.601 50.9798 131.088 51.102 131.454C51.2241 131.942 51.5288 132.247 51.8952 132.491C52.3232 132.797 52.8109 132.857 53.2392 132.797C53.6661 132.613 54.0336 132.247 54.3996 131.759L54.7659 131.212C55.0102 130.784 55.3149 130.419 55.437 130.296C55.6208 130.235 55.7418 130.235 55.8654 130.296L55.9875 130.358C56.048 130.296 56.1096 130.235 56.048 130.175C55.8654 130.052 55.6813 129.931 55.4986 129.748C55.3149 129.688 55.1323 129.504 54.8264 129.321C54.7659 129.321 54.7054 129.444 54.7054 129.444L54.8264 129.625C54.9497 129.748 55.0102 129.869 55.0102 129.992C55.0102 130.175 54.7054 130.54 54.3996 130.967L54.0339 131.576C53.5444 132.309 52.9349 132.735 52.3235 132.309C51.5292 131.759 51.8956 131.028 52.3235 130.418L53.1182 129.26C53.4219 128.833 53.4835 128.77 53.7277 128.893L53.9103 128.954C53.9708 128.954 54.0336 128.833 53.9708 128.77C53.7893 128.589 53.544 128.467 53.2392 128.284C52.995 128.1 52.7508 127.918 52.5062 127.795C52.4456 127.795 52.384 127.856 52.384 127.918L52.5062 128.039C52.6903 128.223 52.6903 128.284 52.384 128.77L51.5288 130.052ZM51.2241 126.638C50.6736 126.271 50.1246 126.027 49.5137 126.088C48.9643 126.088 48.415 126.271 47.9265 126.881C47.4981 127.491 47.4376 128.163 47.6214 128.649C47.7424 129.198 48.1707 129.747 48.5976 130.114C48.9639 130.418 49.5133 130.539 49.7579 130.602C49.9416 130.539 50.2475 130.296 50.5522 129.992C50.5522 129.869 50.4917 129.808 50.429 129.748C50.0638 130.052 49.3923 130.296 48.8418 129.808C48.2312 129.381 48.0486 128.405 48.7813 127.43C49.5133 126.455 50.4917 126.394 51.04 126.821C51.5285 127.186 51.6517 127.674 51.4074 128.224C51.4074 128.284 51.5285 128.406 51.6517 128.345C51.8343 128.04 52.0785 127.614 52.1391 127.553C52.0184 127.429 51.7126 127.003 51.2241 126.638ZM47.0111 126.942C47.438 126.394 47.3159 125.844 47.1321 125.479L47.0111 125.052C46.827 124.686 46.827 124.32 47.0111 124.137C47.1938 123.893 47.4985 123.772 47.8033 124.076C48.1711 124.381 48.049 124.87 47.9874 125.174C47.9874 125.296 48.1711 125.356 48.1711 125.356C48.4153 125.052 48.598 124.686 48.6585 124.626C48.6585 124.503 48.598 124.503 48.5374 124.381C48.4153 124.199 48.1711 124.016 48.049 123.893C47.3775 123.345 46.6444 123.345 46.2164 123.893C45.8508 124.32 45.9113 124.93 46.1559 125.418C46.2769 125.784 46.4607 126.271 46.1559 126.699C45.9113 126.942 45.6055 127.003 45.2402 126.699C44.8724 126.394 44.8724 125.661 45.0561 125.296C45.0561 125.235 44.934 125.114 44.8724 125.174C44.5676 125.48 44.3245 125.844 44.3245 126.088C44.385 126.211 44.5676 126.638 44.9956 126.942C45.6671 127.552 46.5223 127.552 47.0111 126.942ZM44.506 121.393C44.6898 121.21 44.6898 121.21 44.8119 121.333L45.1797 121.697C45.4228 121.881 45.4845 122.064 45.4845 122.246C45.4845 122.369 45.4228 122.551 45.3612 122.734C45.4228 122.857 45.4845 122.917 45.545 122.917C45.7881 122.551 46.0954 122.186 46.1559 122.125C46.0954 122.064 45.8508 121.881 45.4845 121.576L44.506 120.722C44.3245 120.479 44.0799 120.296 43.8345 120.052C43.8345 120.052 43.7135 120.173 43.7135 120.296L43.8345 120.356C43.9567 120.6 43.9567 120.662 43.5903 121.027L42.0636 122.795C41.6984 123.222 41.5748 123.222 41.3922 123.04L41.2095 122.917C41.0863 122.917 40.9638 123.04 41.0258 123.101C41.3305 123.405 41.5748 123.527 41.819 123.771L42.43 124.32C42.7967 124.625 43.1631 125.051 43.4689 125.295C43.6516 125.174 44.0795 124.93 44.3241 124.686C44.3241 124.625 44.2614 124.503 44.2009 124.503C43.4693 124.807 43.2852 124.686 42.8583 124.32C42.5536 124.076 42.4905 123.893 42.5536 123.771C42.5536 123.649 42.6141 123.466 42.8583 123.222L43.2852 122.735C43.4693 122.611 43.4693 122.611 43.5903 122.735L43.8962 122.979C44.1404 123.222 44.1404 123.284 44.0183 123.527L43.9567 123.649C43.8962 123.771 44.0183 123.893 44.0799 123.832C44.2614 123.649 44.385 123.527 44.5676 123.345C44.6898 123.161 44.8724 122.979 44.9956 122.857C44.9956 122.795 44.8724 122.735 44.7514 122.735L44.6898 122.795C44.4455 122.979 44.3245 122.979 44.1404 122.735L43.8345 122.491C43.6519 122.369 43.7135 122.307 43.774 122.186L44.506 121.393ZM41.0258 118.161C41.1479 118.04 41.2095 117.978 41.3305 117.917C41.3922 117.917 41.5143 117.978 41.5748 118.101C42.43 118.893 42.3695 119.747 41.5748 120.6C41.0258 121.21 40.0481 121.637 39.3165 120.906C39.1933 120.722 39.0722 120.54 39.0722 120.418C39.0722 120.173 39.1933 120.052 39.4991 119.808L41.0258 118.161ZM38.6443 119.32C38.2775 119.747 38.217 119.747 37.9728 119.626L37.7891 119.503L37.667 119.626C37.9123 119.868 38.1565 120.052 38.4011 120.296C38.5222 120.479 38.7048 120.722 38.8885 120.906C39.3774 121.393 39.8042 121.637 40.2931 121.76C41.0262 122.002 41.7589 121.82 42.3698 121.21C42.8587 120.662 43.1029 119.868 42.675 119.015C42.4909 118.649 42.1861 118.284 41.8198 117.917C41.3313 117.43 40.9646 117.125 40.5993 116.819C40.5388 116.759 40.4156 116.88 40.4156 116.942L40.5388 117.003C40.6598 117.247 40.5993 117.307 40.2329 117.734L38.6443 119.32ZM38.5838 117.125C38.949 116.759 39.3169 116.515 39.4995 116.393C39.6216 116.333 39.6832 116.393 39.8658 116.515L39.9275 116.575C40.0485 116.575 40.1105 116.454 40.1105 116.393C39.9275 116.21 39.8042 116.089 39.6216 115.905C39.4379 115.784 39.2552 115.539 39.0726 115.358C38.9494 115.358 38.8885 115.418 38.8885 115.479L38.949 115.6C39.0722 115.784 39.1933 115.845 39.0722 115.966C39.0106 116.149 38.7044 116.515 38.3392 116.88L37.7887 117.49C37.6666 117.553 37.6061 117.613 37.5456 117.673C37.6061 117.43 37.6061 117.186 37.6061 116.759L37.6666 115.906C37.7887 115.113 37.7887 114.504 37.9724 114.26C37.8503 114.199 37.7282 114.014 37.6061 113.832C37.3615 113.65 37.1777 113.466 36.9951 113.284C36.9346 113.224 36.873 113.344 36.8125 113.406L36.9346 113.528C37.0567 113.71 37.0567 113.832 36.9951 113.954C36.9951 114.076 36.9346 114.076 36.6904 114.32L35.5909 115.418C35.2246 115.845 34.8578 116.089 34.6752 116.149C34.6147 116.21 34.4915 116.149 34.3077 116.089L34.1867 116.028C34.1867 116.028 34.0646 116.149 34.0646 116.21C34.1867 116.393 34.431 116.515 34.6147 116.698C34.7357 116.819 34.9198 117.003 35.1629 117.246L35.2862 117.125L35.2246 116.942C35.1629 116.819 35.0419 116.698 35.0419 116.575C35.1629 116.393 35.4699 116.089 35.7735 115.722L36.6287 114.868C36.8734 114.686 36.935 114.625 36.935 114.625C36.9955 114.748 36.935 115.112 36.8734 115.662L36.6287 117.857C36.6287 118.344 36.5066 118.711 36.5066 118.711C36.6288 118.832 36.8129 118.893 36.8734 118.893C36.9955 118.711 37.3013 118.467 37.6064 118.161L38.5838 117.125ZM33.5761 112.673C33.5156 112.613 33.454 112.613 33.6366 112.552L34.1255 112.369C34.3697 112.185 34.6756 112.125 34.7361 112.064C34.7361 112.185 34.6151 112.429 34.4313 112.673L34.1255 113.1C34.1255 113.283 34.065 113.223 33.9425 113.1L33.5761 112.673ZM33.6971 113.405C33.8809 113.528 33.8809 113.589 33.8204 113.71L33.5761 114.138C33.454 114.38 33.3924 114.503 33.3319 114.503C33.2714 114.503 33.2714 114.503 33.1493 114.503L32.9652 114.32C32.9047 114.32 32.7814 114.38 32.7814 114.503C32.9652 114.686 33.1493 114.868 33.3924 115.112C33.5761 115.357 33.7599 115.6 33.9425 115.844C34.0041 115.844 34.1255 115.784 34.1255 115.662L34.0045 115.478C33.8812 115.295 34.0045 115.112 34.1255 114.808L35.4703 112.613C35.7138 112.185 35.7739 112.002 35.8964 111.821C35.958 111.759 35.958 111.698 35.8964 111.637C35.8964 111.637 35.4703 111.637 35.2865 111.454C35.1633 111.575 34.8582 111.637 34.5523 111.821L33.0257 112.369C32.5988 112.552 32.2941 112.673 31.9889 112.673C31.8052 112.795 31.6215 112.735 31.561 112.613L31.378 112.491C31.3164 112.491 31.1942 112.613 31.2547 112.673C31.4385 112.916 31.561 113.039 31.6831 113.161C31.8052 113.405 31.9889 113.527 32.11 113.77C32.2332 113.77 32.2941 113.649 32.2941 113.588L32.2335 113.405C32.1103 113.283 32.1103 113.223 32.1719 113.223C32.2335 113.161 32.2335 113.1 32.3549 113.1L33.026 112.795C33.1493 112.735 33.1493 112.735 33.2717 112.856L33.6971 113.405ZM32.5372 108.649C32.7209 108.466 32.7814 108.466 32.9652 108.649C33.2714 109.016 33.1493 109.564 32.7209 109.868C32.4767 110.112 32.2335 110.174 32.11 110.112C31.9262 110.112 31.8052 110.051 31.6831 109.868C31.4385 109.626 31.4385 109.564 31.561 109.443L32.5372 108.649ZM29.9738 109.686C29.5454 110.051 29.4838 110.051 29.2396 109.868L29.1186 109.747C29.057 109.747 28.9348 109.868 28.9348 109.93C29.1186 110.174 29.3628 110.356 29.5454 110.601C29.79 110.783 29.9122 111.027 30.0948 111.331C30.218 111.331 30.339 111.21 30.339 111.149L30.218 111.027C30.0948 110.783 30.0948 110.722 30.5231 110.356L31.1337 109.868C31.1942 109.747 31.1942 109.747 31.378 109.93C31.4385 110.051 31.5005 110.174 31.4385 110.356C31.2547 110.661 31.0721 110.966 30.95 111.331C30.8279 111.82 30.8279 112.245 31.1942 112.673C31.378 112.795 31.5005 112.979 31.561 113.039C31.6831 113.039 31.7447 112.916 31.7447 112.856C31.6831 112.795 31.561 112.673 31.561 112.429C31.561 112.064 31.8052 111.515 32.1716 110.722C32.2332 110.661 32.2332 110.601 32.2941 110.601C32.5372 110.783 32.9652 110.905 33.3924 110.54C33.6971 110.296 33.8204 109.93 33.7599 109.564C33.6971 109.259 33.454 108.892 33.1493 108.466C32.7814 108.038 32.4162 107.674 32.1103 107.308C32.0498 107.308 31.9266 107.431 31.9266 107.491L31.9893 107.612C32.1719 107.857 32.1103 107.857 31.6835 108.282L29.9738 109.686ZM29.3628 108.345C29.6059 108.161 29.6676 108.161 29.8506 108.282L29.9738 108.345L30.0948 108.282C29.9738 108.038 29.79 107.857 29.6059 107.612C29.4838 107.368 29.2396 107.124 29.057 106.759C28.9348 106.698 28.8124 106.821 28.8743 106.881L28.9953 107.124C29.1186 107.368 29.1186 107.431 28.8124 107.612L28.5076 107.857C28.2029 108.038 28.0793 108.038 27.8966 107.735C27.7745 107.552 27.5919 107.308 27.5919 106.941C27.5919 106.454 27.8361 105.906 28.5076 105.417C29.3628 104.808 30.2785 104.686 30.8279 105.539C31.1942 105.966 31.1337 106.453 30.8279 107.003C30.8279 107.003 30.8895 107.185 30.95 107.124C31.1942 106.881 31.561 106.577 31.6831 106.515C31.561 106.393 31.5005 105.967 31.1337 105.417C30.7674 104.991 30.3995 104.624 29.9738 104.503C29.2396 104.075 28.4471 104.198 27.8365 104.686C27.1038 105.173 26.8581 105.967 27.0418 106.759C27.1643 107.185 27.2864 107.552 27.5295 107.857C27.7749 108.161 28.1401 108.527 28.3242 108.709C28.508 108.771 28.629 108.892 28.6906 108.954C28.7522 109.015 28.8127 108.892 28.8127 108.832C28.7522 108.771 28.8127 108.709 29.0573 108.527L29.3628 108.345Z" fill="#EE3E33"/>
<path fill-rule="evenodd" clip-rule="evenodd" d="M115.757 105.573C115.574 105.45 115.513 105.45 115.635 105.267L115.94 104.78C116.063 104.536 116.245 104.413 116.429 104.352C116.55 104.352 116.795 104.352 117.039 104.413C117.039 104.413 117.161 104.231 117.101 104.17C116.734 103.987 116.307 103.806 116.184 103.743C116.184 103.866 115.94 104.108 115.757 104.536L115.085 105.695C114.903 106 114.719 106.243 114.535 106.487C114.535 106.549 114.658 106.671 114.719 106.671L114.841 106.487C115.024 106.305 115.085 106.243 115.635 106.549L117.711 107.829C118.2 108.133 118.2 108.195 118.138 108.439L118.016 108.744C117.955 108.866 118.138 108.926 118.261 108.866C118.505 108.5 118.626 108.195 118.749 107.89L119.176 107.22C119.481 106.732 119.847 106.182 120.031 105.877C119.909 105.695 119.481 105.329 119.3 105.146C119.176 105.146 119.054 105.207 119.116 105.267C119.544 106 119.421 106.182 119.176 106.671C118.872 107.097 118.81 107.158 118.626 107.158C118.505 107.22 118.321 107.097 118.078 106.976L117.406 106.549C117.223 106.427 117.223 106.427 117.284 106.305L117.528 105.878C117.711 105.573 117.772 105.573 118.078 105.695L118.261 105.757C118.321 105.757 118.445 105.573 118.382 105.573C118.2 105.451 117.955 105.329 117.772 105.207C117.528 105.024 117.345 104.903 117.162 104.841C117.162 104.781 117.039 104.963 117.039 105.024L117.162 105.147C117.406 105.329 117.406 105.451 117.223 105.695L117.039 106.122C116.918 106.243 116.918 106.243 116.735 106.182L115.757 105.573ZM113.377 109.292C113.132 109.11 113.132 109.11 113.314 108.866C113.558 108.439 114.108 108.378 114.597 108.744C114.903 108.987 114.964 109.17 115.024 109.292C115.085 109.536 114.964 109.658 114.841 109.84C114.658 110.144 114.658 110.144 114.413 110.024L113.377 109.292ZM115.147 111.609C115.635 111.975 115.635 112.036 115.513 112.28L115.452 112.463C115.452 112.524 115.574 112.585 115.696 112.645C115.879 112.28 116.001 112.097 116.184 111.793C116.368 111.549 116.55 111.305 116.795 111.061C116.734 110.999 116.612 110.878 116.55 110.878L116.429 111.061C116.184 111.182 116.184 111.182 115.635 110.878L114.964 110.451C114.903 110.329 114.903 110.329 115.024 110.145C115.147 110.024 115.208 109.964 115.391 109.964C115.757 110.084 116.184 110.084 116.49 110.145C117.039 110.207 117.528 110.024 117.834 109.536C118.016 109.354 118.078 109.231 118.078 108.987H117.955C117.834 109.048 117.711 109.171 117.528 109.231C117.162 109.292 116.551 109.231 115.635 109.11C115.513 109.11 115.513 109.11 115.513 108.987C115.513 108.684 115.574 108.196 115.085 107.89C114.719 107.646 114.353 107.646 113.986 107.769C113.68 107.89 113.314 108.256 113.009 108.683C112.642 109.231 112.398 109.658 112.154 110.084C112.154 110.145 112.277 110.207 112.338 110.207L112.46 110.084C112.642 109.84 112.704 109.901 113.253 110.329L115.147 111.609ZM112.887 112.463C113.742 113.073 114.169 113.804 113.68 114.475C113.069 115.39 111.849 114.842 111.177 114.414C110.322 113.744 109.956 112.951 110.445 112.28C110.933 111.609 111.91 111.793 112.887 112.463ZM110.2 112.097C109.407 113.194 109.651 114.536 110.688 115.328C111.849 116.122 113.069 115.877 113.864 114.842C114.719 113.683 114.535 112.403 113.377 111.549C112.338 110.755 110.994 110.999 110.2 112.097ZM108.917 117.28C108.735 117.036 108.735 117.036 108.98 116.792C109.345 116.305 109.895 116.305 110.322 116.731C110.75 117.036 110.871 117.463 110.567 117.829C110.2 118.255 109.896 118.072 109.529 117.767L108.917 117.28ZM107.574 116.061C107.33 115.817 107.33 115.817 107.513 115.633C107.818 115.268 108.245 115.146 108.674 115.512C108.98 115.817 109.101 116.182 108.796 116.609C108.552 116.914 108.552 116.914 108.368 116.731L107.574 116.061ZM109.04 118.561C109.529 118.925 109.529 118.987 109.406 119.231L109.284 119.415C109.223 119.475 109.345 119.596 109.467 119.596C109.711 119.292 109.895 119.049 110.078 118.805C110.2 118.682 110.444 118.5 110.627 118.317C110.871 118.012 111.115 117.647 111.298 117.158C111.482 116.793 111.422 116.305 110.993 115.877C110.444 115.512 109.955 115.633 109.528 115.938C109.467 115.938 109.467 115.938 109.406 115.938C109.406 115.938 109.406 115.877 109.467 115.817C109.528 115.633 109.65 115.146 109.284 114.779C108.979 114.475 108.673 114.475 108.367 114.536C108.001 114.658 107.696 114.963 107.208 115.39C106.841 115.877 106.598 116.243 106.23 116.671C106.169 116.793 106.353 116.853 106.414 116.853L106.536 116.731C106.719 116.549 106.78 116.609 107.329 117.037L109.04 118.561ZM105.865 120.512C105.743 120.634 105.743 120.634 105.62 120.45L105.375 120.024C105.254 119.78 105.071 119.476 105.01 119.353C105.131 119.353 105.438 119.536 105.681 119.659L106.23 119.902C106.354 119.902 106.354 119.963 106.23 120.086L105.865 120.512ZM106.536 120.267C106.659 120.146 106.719 120.146 106.781 120.146L107.391 120.39C107.635 120.45 107.756 120.574 107.756 120.574C107.818 120.634 107.818 120.694 107.756 120.817L107.635 121C107.635 121.061 107.696 121.121 107.88 121.182C108.001 120.878 108.185 120.694 108.429 120.45C108.673 120.207 108.916 119.963 109.1 119.719C109.1 119.659 108.979 119.536 108.916 119.596L108.735 119.719C108.49 119.84 108.367 119.78 108.001 119.659L105.438 118.561C105.01 118.378 104.765 118.317 104.583 118.196C104.52 118.135 104.459 118.196 104.399 118.256C104.399 118.256 104.459 118.621 104.338 118.926C104.459 119.05 104.583 119.292 104.765 119.659L105.559 121.183C105.803 121.609 105.986 121.914 106.109 122.158C106.169 122.463 106.169 122.585 106.046 122.645L105.925 122.889C105.925 122.951 106.046 123.012 106.109 123.073C106.353 122.768 106.414 122.645 106.598 122.463C106.78 122.281 106.964 122.097 107.146 121.975C107.146 121.854 107.025 121.731 106.964 121.731L106.78 121.854C106.658 121.975 106.598 122.035 106.598 121.975C106.536 121.914 106.474 121.914 106.414 121.793L106.046 121.121C105.925 121.001 105.925 121.001 106.046 120.878L106.536 120.267ZM102.017 122.219C101.589 121.793 101.589 121.67 101.712 121.488L101.834 121.365C101.834 121.245 101.773 121.121 101.712 121.121C101.468 121.427 101.285 121.67 101.041 121.854C100.797 122.097 100.551 122.281 100.247 122.525C100.247 122.585 100.369 122.708 100.43 122.645L100.613 122.585C100.797 122.401 100.918 122.401 101.346 122.889L103.055 124.658C103.422 125.024 103.483 125.084 103.3 125.328L103.117 125.574C103.117 125.634 103.178 125.694 103.361 125.756C103.604 125.451 103.788 125.207 104.032 124.963L104.643 124.354C105.01 123.988 105.498 123.56 105.803 123.379C105.681 123.134 105.438 122.646 105.194 122.341C105.131 122.341 105.01 122.464 105.01 122.464C105.254 123.316 105.131 123.439 104.704 123.866C104.339 124.23 104.277 124.23 104.155 124.23C103.972 124.23 103.789 124.11 103.605 123.866L102.017 122.219ZM98.7196 127.037C98.5975 127.097 98.5359 127.158 98.4754 126.975L98.2917 126.549C98.1706 126.183 98.109 125.878 98.0474 125.756C98.1706 125.818 98.4149 125.999 98.6591 126.183L99.1465 126.488C99.2697 126.549 99.2697 126.609 99.1465 126.67L98.7196 127.037ZM99.3911 126.975C99.5752 126.793 99.6357 126.793 99.6973 126.853L100.186 127.219C100.43 127.279 100.551 127.402 100.613 127.463C100.613 127.523 100.613 127.523 100.491 127.647L100.368 127.829C100.307 127.889 100.368 128.012 100.551 128.073C100.734 127.829 100.917 127.647 101.162 127.402C101.468 127.219 101.773 127.037 102.017 126.853C102.017 126.732 101.956 126.609 101.896 126.67L101.651 126.732C101.406 126.853 101.284 126.793 100.917 126.549L98.5975 125.084C98.1707 124.842 97.9869 124.658 97.8648 124.537C97.7427 124.537 97.7427 124.537 97.6202 124.537C97.6202 124.537 97.6807 124.963 97.4365 125.207C97.6202 125.328 97.6202 125.634 97.7427 125.999L98.2917 127.647C98.4754 128.133 98.5359 128.439 98.5975 128.744C98.6591 128.988 98.5975 129.111 98.4754 129.232L98.3533 129.415C98.3533 129.475 98.4149 129.536 98.4754 129.598C98.7801 129.415 98.8418 129.232 99.0255 129.048C99.2697 128.988 99.5132 128.804 99.697 128.683C99.697 128.561 99.6353 128.439 99.5748 128.439L99.3907 128.501C99.207 128.621 99.1465 128.621 99.1465 128.621C99.086 128.561 99.0255 128.501 99.0255 128.377L98.7196 127.647C98.6591 127.523 98.6591 127.523 98.7801 127.403L99.3911 126.975ZM96.4602 129.902C96.8266 130.39 96.8266 130.451 96.644 130.695L96.3997 130.878C96.3997 130.939 96.3997 131.06 96.5812 131.06C96.8871 130.816 97.193 130.572 97.3756 130.39C97.6198 130.207 97.926 130.025 98.2913 129.781C98.2913 129.658 98.1703 129.598 98.1087 129.598L97.8644 129.719C97.6198 129.842 97.4977 129.842 97.193 129.353L95.4209 127.037C95.2999 126.914 95.3604 126.853 95.4837 126.732L95.7884 126.549C96.1551 126.183 96.3994 126.426 96.8262 126.67C96.8262 126.732 96.9483 126.609 96.9483 126.549C96.7041 126.244 96.4599 125.756 96.3378 125.574C96.3378 125.574 96.2761 125.574 96.2761 125.634C96.2156 125.634 96.2156 125.634 96.2156 125.634C96.2156 125.818 96.1551 125.878 95.8489 126.122L93.8943 127.647C93.4674 127.89 93.4069 127.89 93.3464 127.829C93.2848 127.829 93.2848 127.829 93.2848 127.89C93.2231 127.89 93.2231 127.89 93.2231 127.952C93.2848 128.195 93.529 128.501 93.7116 128.988C93.7732 129.048 93.8942 128.928 93.9559 128.866C93.8337 128.378 93.7732 128.073 94.078 127.768L94.4447 127.523C94.5657 127.403 94.6284 127.463 94.6889 127.587L96.4602 129.902ZM91.6363 128.988C91.0873 129.353 90.5974 129.902 90.4155 130.512C90.2318 131.06 90.2318 131.731 90.6586 132.341C91.087 133.075 91.6965 133.317 92.2469 133.379C92.8579 133.439 93.5294 133.256 94.0784 132.951C94.5056 132.646 94.8103 132.22 95.0557 131.915C95.0557 131.793 94.9336 131.366 94.6893 130.94C94.6288 130.94 94.5056 131 94.4451 131.061C94.5056 131.487 94.5056 132.159 93.8341 132.586C93.2235 133.075 92.1853 132.829 91.4526 131.731C90.7815 130.633 91.0873 129.719 91.7584 129.293C92.3074 128.988 92.8579 128.988 93.2851 129.476C93.3467 129.476 93.5294 129.354 93.4678 129.232C93.2235 128.988 92.9188 128.501 92.8583 128.378C92.735 128.501 92.1853 128.621 91.6363 128.988ZM87.1172 134.78C87.4219 135.45 87.7886 135.817 88.2166 135.878C88.7051 135.999 89.1323 135.878 89.5607 135.694C89.9875 135.45 90.3528 135.024 90.476 134.597C90.597 134.048 90.4155 133.56 90.1085 133.01L89.7422 132.401C89.5607 131.853 89.3164 131.365 89.3164 131.244C89.3164 131.121 89.4374 130.999 89.5607 130.877L89.6817 130.816C89.6817 130.755 89.6212 130.632 89.5607 130.632C89.3164 130.695 89.1327 130.877 88.8881 130.939C88.6427 131.059 88.4612 131.182 88.0949 131.305C88.0949 131.365 88.0949 131.548 88.217 131.548L88.3985 131.486C88.5822 131.426 88.7055 131.365 88.8265 131.486C88.9486 131.609 89.1932 132.036 89.4374 132.524L89.8654 133.255C90.2318 134.048 90.3528 134.779 89.5607 135.145C88.6427 135.633 88.2166 134.902 87.9108 134.231L87.1777 132.89C86.8718 132.34 86.9345 132.28 87.1777 132.096L87.2998 131.975C87.3618 131.914 87.2393 131.852 87.2393 131.792C86.9345 131.975 86.6287 132.157 86.3239 132.28C86.0797 132.401 85.7738 132.584 85.4687 132.645C85.4687 132.706 85.4687 132.89 85.5912 132.89L85.7738 132.828C86.0181 132.768 86.0797 132.768 86.3239 133.316L87.1172 134.78ZM84.5519 135.939C84.3693 136 84.3693 136 84.3088 135.818L84.2483 135.33C84.2483 134.964 84.2483 134.72 84.1856 134.476C84.3693 134.597 84.4914 134.842 84.674 135.024L85.1009 135.451C85.2241 135.574 85.1636 135.634 85.0404 135.695L84.5519 135.939ZM85.2241 136C85.4068 135.939 85.4684 135.939 85.5289 136L85.9561 136.426C86.1398 136.61 86.262 136.732 86.262 136.793C86.262 136.793 86.262 136.914 86.1398 136.975L85.9561 137.098C85.8956 137.158 85.9561 137.219 86.0793 137.341C86.3236 137.158 86.5667 137.037 86.8714 136.914C87.1773 136.793 87.544 136.67 87.7883 136.549C87.7883 136.426 87.7267 136.304 87.7267 136.304L87.4215 136.364C87.1773 136.426 87.1168 136.304 86.8109 136L84.919 134.049C84.5515 133.682 84.4294 133.5 84.3084 133.317C84.2479 133.256 84.1852 133.256 84.1247 133.256C84.1247 133.256 84.0026 133.621 83.758 133.805C83.8196 134.049 83.8196 134.293 83.8801 134.719L84.0026 136.426C84.0026 136.914 84.0026 137.219 84.0026 137.585C84.0026 137.769 83.9406 137.889 83.8196 138.013L83.5742 138.135C83.5742 138.195 83.6358 138.317 83.6974 138.379C84.0026 138.255 84.1247 138.135 84.3689 138.013C84.6737 137.889 84.8574 137.829 85.1005 137.769C85.1005 137.708 85.04 137.525 85.04 137.525L84.7958 137.585C84.6132 137.585 84.5515 137.585 84.5515 137.525C84.5515 137.525 84.491 137.463 84.491 137.341L84.4294 136.549C84.3689 136.365 84.3689 136.365 84.5515 136.304L85.2241 136Z" fill="#EE3E33"/>
</g>
<defs>
<clipPath id="clip0">
<rect width="101" height="128" fill="white" transform="translate(23 12)"/>
</clipPath>
</defs>
</svg>
