<svg width="144" height="144" viewBox="0 0 144 144" fill="none" xmlns="http://www.w3.org/2000/svg">
<g clip-path="url(#clip0)">
<path fill-rule="evenodd" clip-rule="evenodd" d="M26.9415 61.9175C22.7606 47.1647 25.2052 33.5148 25.2052 17.005C40.1075 9.66498 54.8637 9 70.8544 9C84.6804 9 104.29 10.7679 116.1 16.9816C117.311 32.5453 118.007 46.2438 113.973 63.9278C109.939 81.6114 98.2029 106.041 71.4417 124.088C42.2359 105.121 32.6866 82.192 26.9415 61.9175Z" fill="#EE3E33"/>
<path fill-rule="evenodd" clip-rule="evenodd" d="M40.8952 40.3014L26.5054 55.8051C29.7321 70.6669 38.6941 101.818 71.3347 122.832C103.683 100.776 112.351 70.5444 114.307 55.4651L100.321 40.2648L84.8328 55.8161L70.5651 40.3979L56.348 55.6227L40.8952 40.3014Z" fill="white"/>
<path fill-rule="evenodd" clip-rule="evenodd" d="M40.4058 26.5359L42.1767 29.5011H38.8179L40.4058 26.5359ZM36.3755 28.2918L35.2761 29.8645L37.7801 29.6821L36.3755 28.2918ZM44.4966 28.2918L45.7182 29.8645L43.2762 29.5011L44.4966 28.2918ZM47.4891 24.5388C47.3065 24.5388 46.939 24.4189 47.4891 24.2368C47.9175 24.2368 48.527 24.2368 49.26 25.3262C49.6268 25.1438 50.4809 23.8734 51.3977 24.2368C51.2752 25.5686 48.5273 30.5894 48.1617 31.0735C46.939 30.3471 39.7332 29.984 40.4058 29.984C40.9552 29.984 33.6273 30.1661 32.5894 31.0735C32.2847 30.3471 29.4143 25.5683 29.4143 24.0559C30.2695 23.6918 31.2457 24.9033 31.5505 25.1442C32.2847 24.0559 32.9561 24.0559 33.2004 24.0559C33.8719 24.2368 33.5051 24.4192 33.3214 24.5388C29.7796 27.444 34.9108 30.5894 35.9475 27.444C40.5888 27.867 39.368 24.2368 38.2689 23.6914C37.4137 23.4501 37.9627 23.3902 38.2689 23.3902C38.6353 23.2081 39.1241 23.2081 39.1241 23.4501C39.1241 21.5754 39.3684 20.183 40.4062 19.6386C41.444 20.304 41.6886 21.5754 41.444 23.4501C41.6883 23.2081 42.1767 23.3902 42.5435 23.3902C42.7261 23.4501 43.4592 23.4501 42.7261 23.8734C41.444 24.2365 40.4058 28.048 44.8634 27.444C45.9012 30.5894 51.2752 27.0211 47.4891 24.5388Z" fill="white"/>
<path fill-rule="evenodd" clip-rule="evenodd" d="M35.2386 32.1121C35.5961 32.1121 35.9536 32.3486 35.9536 32.9409C35.9536 33.415 35.5961 33.7692 35.2386 33.7692C34.759 33.7692 34.4015 33.415 34.4015 32.9409C34.4015 32.3486 34.759 32.1121 35.2386 32.1121ZM37.9846 31.521C38.462 31.521 38.9405 31.8752 38.9405 32.3483C38.9405 32.9405 38.462 33.177 37.9846 33.177C37.626 33.177 37.1486 32.9405 37.1486 32.3483C37.1486 31.8756 37.626 31.521 37.9846 31.521ZM40.8517 31.2848C41.2092 31.2848 41.6866 31.7579 41.6866 32.2309C41.6866 32.5851 41.2092 33.0582 40.8517 33.0582C40.3731 33.0582 40.0142 32.5851 40.0142 32.2309C40.0145 31.7579 40.3731 31.2848 40.8517 31.2848ZM43.359 31.521C43.8364 31.521 44.1965 31.8752 44.1965 32.3483C44.1965 32.8213 43.8368 33.177 43.359 33.177C42.8816 33.177 42.5241 32.8217 42.5241 32.3483C42.5237 31.8756 42.8816 31.521 43.359 31.521ZM46.1069 32.1121C46.5843 32.1121 46.9418 32.4674 46.9418 32.9409C46.9418 33.415 46.5843 33.7692 46.1069 33.7692C45.6283 33.7692 45.2697 33.415 45.2697 32.9409C45.2697 32.4674 45.6283 32.1121 46.1069 32.1121ZM34.5214 34.5976C34.0439 33.7692 33.4466 32.3486 33.0869 31.7579C34.4015 30.928 39.0593 30.8106 40.613 30.6915C43.2402 30.6915 46.7034 31.1656 47.8984 31.7579C47.8984 31.5213 47.1812 34.0054 46.8233 34.7154C44.9126 34.0058 42.1644 33.8881 40.4934 33.8881C38.462 33.7689 36.0735 34.0054 34.5214 34.5976Z" fill="white"/>
<path fill-rule="evenodd" clip-rule="evenodd" d="M40.6821 34.5797C44.0266 34.5797 46.6549 34.9351 46.6549 35.4081C46.6549 35.7623 44.0266 35.9989 40.6821 35.9989C37.4587 35.9989 34.7104 35.7623 34.7104 35.4081C34.7108 34.9351 37.4587 34.5797 40.6821 34.5797Z" fill="white"/>
<path fill-rule="evenodd" clip-rule="evenodd" d="M96.0409 28.2918L94.9422 29.8645L97.6894 29.6821L96.0409 28.2918ZM100.194 26.5359L101.905 29.5011H98.7287L100.194 26.5359ZM104.407 28.2918L105.628 29.8645L103.186 29.5011L104.407 28.2918ZM107.4 24.5388C107.034 24.5388 106.667 24.4189 107.4 24.2368C107.766 24.2368 108.499 24.2368 108.989 25.3262C109.354 25.1438 110.393 23.8734 111.308 24.2368C111.125 25.5686 108.499 30.5894 108.072 31.0735C106.85 30.3471 99.5835 29.984 100.194 29.984C100.866 29.984 93.5985 30.1661 92.5002 31.0735C92.1944 30.3471 89.3251 25.5683 89.1414 24.0559C90.2408 23.6918 91.096 24.9033 91.4613 25.1442C92.1943 24.0559 92.8669 24.0559 93.0484 24.0559C93.5989 24.2368 93.4163 24.4192 93.2322 24.5388C89.5066 27.444 94.8194 30.5894 95.7373 27.444C100.439 27.867 99.2164 24.2368 98.0561 23.6914C97.264 23.4501 97.8735 23.3902 98.1177 23.3902C98.3619 23.2081 99.095 23.2081 99.095 23.4501C99.095 21.5743 99.095 20.183 100.194 19.6386C101.232 20.304 101.537 21.5743 101.415 23.4501C101.537 23.2081 102.086 23.3902 102.453 23.3902C102.576 23.4501 103.185 23.4501 102.453 23.8734C101.232 24.2365 100.315 28.048 104.774 27.444C105.628 30.5894 111.124 27.0211 107.4 24.5388Z" fill="white"/>
<path fill-rule="evenodd" clip-rule="evenodd" d="M95.089 32.1121C95.4491 32.1121 95.8063 32.3486 95.8063 32.9409C95.8063 33.415 95.4487 33.7692 95.089 33.7692C94.6116 33.7692 94.2537 33.415 94.2537 32.9409C94.2541 32.3486 94.6116 32.1121 95.089 32.1121ZM97.8376 31.521C98.3151 31.521 98.7925 31.8752 98.7925 32.3483C98.7925 32.9405 98.3151 33.177 97.8376 33.177C97.4787 33.177 97.0001 32.9405 97.0001 32.3483C97.0001 31.8756 97.4787 31.521 97.8376 31.521ZM100.702 31.2848C101.062 31.2848 101.539 31.7579 101.539 32.2309C101.539 32.5851 101.062 33.0582 100.702 33.0582C100.225 33.0582 99.8668 32.5851 99.8668 32.2309C99.8672 31.7579 100.225 31.2848 100.702 31.2848ZM103.212 31.521C103.689 31.521 104.047 31.8752 104.047 32.3483C104.047 32.8213 103.689 33.177 103.212 33.177C102.734 33.177 102.374 32.8217 102.374 32.3483C102.375 31.8756 102.734 31.521 103.212 31.521ZM105.958 32.1121C106.436 32.1121 106.795 32.4674 106.795 32.9409C106.795 33.415 106.436 33.7692 105.958 33.7692C105.48 33.7692 105.122 33.415 105.122 32.9409C105.123 32.4674 105.48 32.1121 105.958 32.1121ZM94.3729 34.5976C93.8955 33.7692 93.2982 32.3486 92.9392 31.7579C94.2537 30.928 98.9113 30.8106 100.463 30.6915C103.092 30.6915 106.556 31.1656 107.751 31.7579C107.751 31.5213 107.034 34.0054 106.675 34.7154C104.764 34.0058 102.017 33.8881 100.345 33.8881C98.3151 33.7689 95.9265 34.0054 94.3729 34.5976Z" fill="white"/>
<path fill-rule="evenodd" clip-rule="evenodd" d="M100.534 34.5753C103.877 34.5753 106.505 34.9307 106.505 35.4037C106.505 35.7591 103.877 35.9956 100.534 35.9956C97.3081 35.9956 94.5613 35.7591 94.5613 35.4037C94.5613 34.9307 97.3081 34.5753 100.534 34.5753Z" fill="white"/>
<path fill-rule="evenodd" clip-rule="evenodd" d="M63.5006 20.1354H63.9891V17.7153H63.5006V20.1354ZM66.2489 19.3495L65.2727 17.6557H64.7226V20.0759H65.21V18.381L66.188 20.0759H66.7363V17.6557H66.2485V19.3495H66.2489ZM61.4855 25.3387H62.5838C63.439 25.3387 63.6228 24.5534 63.6228 24.0683C63.6228 23.585 63.439 22.8586 62.6465 22.8586H61.4859V25.3387H61.4855ZM62.0348 23.2831H62.5233C62.7676 23.2831 63.1343 23.343 63.1343 24.0683C63.1343 24.4924 62.9517 24.9157 62.5233 24.9157H62.0348V23.2831ZM63.9279 23.8259C63.9279 25.0367 64.7831 25.1577 65.1498 25.1577C65.4546 25.1577 66.3703 25.0367 66.3703 23.8259C66.3703 22.6777 65.4549 22.5556 65.1498 22.5556C64.7831 22.5556 63.9279 22.6777 63.9279 23.8259ZM64.478 23.8259C64.478 23.1609 64.8447 22.9796 65.1494 22.9796C65.3937 22.9796 65.8205 23.1609 65.8205 23.8259C65.8205 24.5534 65.3937 24.7333 65.1494 24.7333C64.8447 24.7333 64.478 24.5534 64.478 23.8259ZM69.1798 22.3757H68.3865L67.9597 24.3114L67.5313 22.3757H66.737V24.8558H67.2255V22.799L67.7151 24.8558H68.2028L68.6913 22.799V24.8558H69.1798V22.3757ZM62.7071 30.6026H63.1959V28.1225H62.7071V30.6026ZM65.3332 29.6353L64.3547 27.8805H63.7453V30.4206H64.2942V28.6058L65.2727 30.4206H65.8205V27.8805H65.3332V29.6353ZM66.3699 29.0303C66.3699 30.2411 67.2251 30.361 67.5918 30.361C67.8977 30.361 68.7522 30.2411 68.7522 29.0303C68.7522 27.8809 67.8981 27.7588 67.5918 27.7588C67.2251 27.7588 66.3699 27.8805 66.3699 29.0303ZM66.8599 29.0303C66.8599 28.3653 67.2867 28.1829 67.5915 28.1829C67.8357 28.1829 68.264 28.3653 68.264 29.0303C68.264 29.7556 67.8357 29.9376 67.5915 29.9376C67.2867 29.9376 66.8599 29.7552 66.8599 29.0303ZM60.6919 15.296C60.6919 15.296 62.8281 16.1434 64.7226 15.478C66.9204 14.4485 68.8145 14.0252 70.4017 14.7516V33.3258C69.0576 32.8418 67.5918 33.0227 65.4546 33.5071C63.5626 34.0511 62.2794 34.0511 60.6923 33.7491V15.296H60.6919Z" fill="white"/>
<path fill-rule="evenodd" clip-rule="evenodd" d="M59.9174 15.4634L58.3284 16.8537V35.4882L59.9174 33.8555V15.4634Z" fill="white"/>
<path fill-rule="evenodd" clip-rule="evenodd" d="M58.8784 35.7912L60.6493 34.3984C61.9318 34.7629 64.6797 34.2185 65.9617 34.0365C68.099 33.7334 69.0158 33.3101 70.5425 34.0365C69.6873 34.3984 69.1368 35.1259 69.1368 35.7912H58.8784Z" fill="white"/>
<path fill-rule="evenodd" clip-rule="evenodd" d="M82.7549 35.7912L81.0445 34.3984C79.5794 34.7629 77.0758 34.2185 75.7321 34.0365C73.4118 33.7334 72.6791 33.3101 71.3362 34.0365C72.0077 34.3984 72.4965 35.1259 72.374 35.7912H82.7549Z" fill="white"/>
<path fill-rule="evenodd" clip-rule="evenodd" d="M81.5342 15.2813L83.183 16.8537V35.3072L81.5342 33.7334V15.2813Z" fill="white"/>
<path fill-rule="evenodd" clip-rule="evenodd" d="M79.0447 19.7735L78.0678 18.0188H77.5184V20.4985H78.0073V18.7452L79.0451 20.4985H79.5941V18.0188H79.0451V19.7735H79.0447ZM75.2587 19.2285C75.2587 18.5631 75.625 18.381 75.9298 18.381C76.1755 18.381 76.6012 18.5631 76.6012 19.2285C76.6012 19.9559 76.1755 20.1358 75.9298 20.1358C75.6254 20.1354 75.2587 19.9556 75.2587 19.2285ZM74.7097 19.2285C74.7097 20.4392 75.5645 20.5602 75.9301 20.5602C76.2364 20.5602 77.1521 20.4392 77.1521 19.2285C77.1521 18.0791 76.2367 17.9581 75.9301 17.9581C75.5649 17.9577 74.7097 18.0787 74.7097 19.2285ZM74.2813 18.5031C74.2208 18.1401 73.915 17.6557 73.183 17.6557C72.5104 17.6557 72.0227 18.0791 72.0227 18.9265C72.0227 19.8338 72.51 20.2579 73.183 20.2579C73.7936 20.2579 74.1592 19.8938 74.2813 19.3495H73.7312C73.6707 19.6529 73.487 19.8338 73.1834 19.8338C72.6949 19.8338 72.5713 19.4105 72.5713 18.9265C72.5713 18.2611 72.9391 18.0791 73.1834 18.0791C73.6102 18.0791 73.6707 18.381 73.7312 18.5031H74.2813V18.5031ZM76.6016 25.4608H77.1517V22.9796H76.6016V25.4608ZM74.7097 24.3714H75.808V23.8884H74.7097V23.343H75.9917V22.9186H74.1592V25.3997H74.7097V24.3714V24.3714ZM76.6632 29.3933C76.6632 28.7279 77.0296 28.5459 77.3354 28.5459C77.5797 28.5459 78.0069 28.7279 78.0069 29.3933C78.0069 30.1186 77.5797 30.3006 77.3354 30.3006C77.0296 30.3006 76.6632 30.1186 76.6632 29.3933ZM76.1142 29.3933C76.1142 30.6026 76.9691 30.7236 77.3358 30.7236C77.6405 30.7236 78.5566 30.6026 78.5566 29.3933C78.5566 28.2428 77.6409 28.1225 77.3358 28.1225C76.9691 28.1229 76.1142 28.2428 76.1142 29.3933ZM73.8545 28.2428H74.3429C74.5864 28.2428 74.8923 28.3039 74.8923 29.0303C74.8923 29.4536 74.7702 29.8766 74.3429 29.8766H73.8545V28.2428ZM73.3051 30.3006H74.4046C75.2583 30.3006 75.4413 29.5132 75.4413 28.9689C75.4413 28.4859 75.2587 27.8206 74.4046 27.8206H73.3051V30.3006ZM80.8773 15.296C80.8773 15.296 78.7389 16.1434 76.847 15.478C74.5259 14.4485 72.6945 14.0252 71.3508 14.7516V33.3258C72.5108 32.8418 73.915 33.0227 76.0523 33.5071C78.0678 34.0511 79.2274 34.0511 80.8773 33.7491V15.296Z" fill="white"/>
<path fill-rule="evenodd" clip-rule="evenodd" d="M70.9079 34.3987C70.2368 35.1262 69.8708 35.1262 70.0542 35.7916H71.5794C71.7631 35.1262 71.5794 34.7629 70.9079 34.3987Z" fill="white"/>
<path fill-rule="evenodd" clip-rule="evenodd" d="M42.4444 62.0341C42.6831 62.0341 42.9218 62.2706 42.9218 62.5071C42.9218 62.7437 42.6831 62.9802 42.4444 62.9802C42.2057 62.9802 41.967 62.7437 41.967 62.5071C41.967 62.2706 42.2057 62.0341 42.4444 62.0341ZM38.9811 68.8963C39.2198 68.4233 39.6973 67.0026 39.936 66.5307C39.6973 66.0576 39.2198 65.582 38.7424 65.582C38.9811 65.11 39.8161 64.4005 39.6973 64.0451C39.4586 63.5721 39.0999 63.6909 38.2639 63.2164C38.5037 62.6245 39.2198 62.2703 39.5777 62.2703C40.0562 62.1514 40.0562 61.4415 40.8923 61.0865C41.7275 60.6135 42.5647 60.6135 43.5195 60.6135C44.9528 60.7312 48.5364 61.6788 47.5812 66.0576C49.731 70.4358 57.3736 64.5185 60.002 64.5185C59.5234 65.5824 58.9272 66.531 58.3299 67.476C59.046 67.9491 60.002 67.476 60.8384 67.476C60.002 69.8428 58.5686 70.9088 57.3736 71.8553C58.5683 75.76 63.1066 74.222 67.1683 73.749C66.6898 75.0493 65.0177 75.2869 64.3012 76.2334C65.6158 77.6537 67.1683 79.547 68.1231 81.5595C66.3323 80.3758 62.6288 79.0728 61.3154 78.5998C58.9269 77.6533 53.9104 77.6533 51.5218 78.5998C51.9992 79.547 52.9555 80.0201 53.6713 80.6119C52.4778 82.9783 49.9693 81.5595 48.536 81.0853C47.2215 82.0322 44.9528 82.0322 44.3551 81.5595C44.3551 81.5595 44.3551 80.9665 45.0713 80.3758C45.5498 79.7839 43.6376 79.547 43.0413 78.6002C43.0413 77.7725 44.1164 78.6002 44.5938 77.6537C43.3992 75.2866 38.2635 74.6947 38.9811 68.8963Z" fill="#EE3E33"/>
<path fill-rule="evenodd" clip-rule="evenodd" d="M77.0623 62.7305C77.4213 62.7305 77.5397 62.8494 77.5397 63.2036C77.5397 63.4412 77.4213 63.6778 77.0623 63.6778C76.8239 63.6778 76.5849 63.4412 76.5849 63.2036C76.5849 62.8494 76.8239 62.7305 77.0623 62.7305ZM73.7182 69.5939C73.8381 69.1208 74.3166 67.7002 74.6741 67.2271C74.3166 66.7541 73.8381 66.1633 73.4795 66.1633C73.7182 65.6902 74.5553 65.0973 74.317 64.743C74.196 64.27 73.8385 64.3877 73.0024 63.9146C73.2408 63.3239 73.8388 62.9674 74.317 62.8494C74.7944 62.8494 74.7944 62.1398 75.5105 61.6667C76.3465 61.3114 77.3013 61.3114 78.2573 61.1937C79.5711 61.4302 83.273 62.3763 82.3182 66.7541C84.4677 71.0141 92.1129 65.2157 94.7397 65.2157C94.2623 66.1629 93.5451 67.2268 93.0677 68.1743C93.7838 68.6474 94.7397 68.1743 95.5761 68.1743C94.7397 70.5411 93.3068 71.606 92.1129 72.5536C93.3064 76.3391 97.8455 74.9203 101.906 74.4458C101.429 75.7476 99.7566 75.8664 98.9191 76.9302C100.353 78.3509 101.906 80.2442 102.861 82.2556C101.07 81.0715 97.2471 79.7711 96.0535 79.2981C93.5451 78.3509 88.6485 78.3509 86.1401 79.2981C86.6179 80.2445 87.6926 80.7176 88.4098 81.1918C87.096 83.6758 84.7079 82.2559 83.273 81.7825C81.9603 82.7283 79.691 82.7283 79.0937 82.2556C79.0937 82.2556 79.0937 81.5456 79.8109 81.0715C80.2883 80.3619 78.3772 80.2442 77.7788 79.2977C77.7788 78.3505 78.7347 79.2977 79.3324 78.3505C78.0186 75.8664 73.0017 75.3934 73.7182 69.5939Z" fill="#EE3E33"/>
<path fill-rule="evenodd" clip-rule="evenodd" d="M60.5775 87.1488C60.6974 87.1488 60.9361 87.2665 60.9361 87.6222C60.9361 87.7392 60.6978 87.9765 60.5775 87.9765C60.22 87.9765 59.9813 87.7396 59.9813 87.6222C59.9813 87.2665 60.2203 87.1488 60.5775 87.1488ZM56.9947 94.011C57.233 93.5376 57.7108 92.1181 58.0705 91.6454C57.7108 91.1698 57.233 90.5794 56.8759 90.5794C56.9947 90.106 57.8307 89.5148 57.7112 89.1599C57.4725 88.6857 57.2334 88.8041 56.2786 88.3307C56.6372 87.7389 57.2334 87.3846 57.7112 87.2662C58.1897 87.2662 58.1897 86.5551 58.9058 86.0824C59.7418 85.7282 60.6977 85.7282 61.6537 85.609C62.9664 85.7282 66.5495 86.7927 65.5947 91.1698C67.7442 95.4295 75.5082 89.6325 78.1362 89.6325C77.6587 90.5794 76.9415 91.6454 76.4641 92.5901C77.1802 93.0635 78.1362 92.5901 78.8526 92.5901C78.1365 94.9572 76.7032 95.9033 75.5085 96.9693C76.7032 100.756 81.2412 99.3364 85.3021 98.863C84.8232 100.164 83.1523 100.283 82.3159 101.23C83.7496 102.767 85.3021 104.662 86.2569 106.673C84.4661 105.49 80.6439 104.188 79.4503 103.714C76.9419 102.767 72.0442 102.767 69.5369 103.714C70.0146 104.662 70.9706 105.134 71.8055 105.608C70.4928 108.093 68.1035 106.673 66.5499 106.081C65.3564 107.147 63.0866 107.147 62.3705 106.673C62.3705 106.673 62.3705 105.964 63.2058 105.49C63.6843 104.781 61.7732 104.662 61.1759 103.715C61.1759 102.767 62.1318 103.715 62.728 102.767C61.4139 100.282 56.2782 99.8087 56.9947 94.011Z" fill="#EE3E33"/>
<path fill-rule="evenodd" clip-rule="evenodd" d="M21.1189 87.0607C21.3901 85.9866 22.242 85.1813 23.1698 85.0292C25.0271 84.5686 26.4966 82.4987 28.2764 82.2695C31.1401 81.8867 33.2279 84.5686 32.7642 86.1022C32.068 87.4438 28.5095 89.0918 29.5149 90.5476C31.4876 93.4228 32.997 95.0324 33.2279 97.6006C33.3836 99.1342 30.5974 99.4398 30.5974 100.972C32.6103 104.231 48.7419 123.128 62.0113 128.264C62.2821 126.961 62.0895 125.849 65.2617 125.581C68.2014 125.351 73.2695 125.351 76.2882 125.235C79.9238 125.082 79.46 128.417 80.7757 127.919C94.2376 122.898 109.21 105.611 112.15 100.514C112.15 99.5934 110.758 98.8267 110.139 98.214C109.365 97.4478 109.906 95.4152 110.255 94.6877C111.299 92.5414 112.46 91.4297 113.698 88.8619C112.615 86.9839 111.454 87.1747 110.447 85.7951C109.635 83.6488 113.427 80.4291 115.748 81.8476C117.488 82.5758 118.496 83.5724 120.314 84.5291C122.556 85.7563 122.132 87.9033 121.474 89.7422C120.584 92.1956 118.804 94.5345 117.76 97.3699C117.026 99.4022 118.651 99.2877 118.883 100.015C119.966 100.743 120.121 102.046 118.766 104.193C111.725 115.462 97.488 129.529 83.7541 135.277C82.5167 135.777 81.7039 136.313 79.1899 135.777C77.2545 135.355 77.7588 132.901 76.8678 132.096C76.5207 131.252 64.9525 131.752 64.2552 132.671C63.8294 134.319 62.9015 136.428 60.8513 135.891C47.0396 132.365 25.3355 107.911 23.2477 103.771C22.4349 102.161 23.6343 99.9004 25.2204 98.7123C25.375 98.0996 24.4076 96.528 24.2531 95.9149C23.2473 93.3841 20.3851 90.0504 21.1189 87.0607Z" fill="#EE3E33"/>
<path fill-rule="evenodd" clip-rule="evenodd" d="M29.0496 83.0715C28.1988 83.1095 27.1533 83.8377 27.6576 85.2171C28.5084 84.7188 29.2042 83.569 29.9779 83.799C30.3265 84.2596 29.8233 84.7188 31.2164 86.1369C31.5267 86.1369 31.8351 85.9833 31.9908 85.8312C31.7957 84.2969 29.7469 83.1859 29.0496 83.0715ZM29.3208 85.0266C29.0116 85.3315 28.1217 86.1369 27.8111 86.5975C28.0443 87.4021 28.2368 87.9004 28.7401 88.743L30.8674 87.0574C30.3656 86.4831 29.8624 85.9833 29.3208 85.0266ZM26.1099 84.4512C25.3355 84.7575 24.5622 85.8312 23.6343 85.9833C19.5715 86.751 23.8269 92.0782 26.0719 97.7888C27.6185 96.1796 28.5859 96.3708 29.7849 96.5627C30.4036 96.831 31.6422 98.0963 32.2605 97.8664C32.5712 97.3286 30.9069 94.4548 30.4033 93.7258C29.0496 91.7718 27.1164 88.5902 26.1099 84.4512ZM31.0615 98.8242C30.5977 98.3643 29.7078 97.0614 28.9341 97.2149C28.9341 98.1347 29.2433 99.2848 30.017 100.051C30.3262 99.7439 30.7523 99.2848 31.0615 98.8242ZM27.6576 97.7888C26.1479 99.0541 22.937 101.008 24.5227 104.381C27.9288 109.977 49.6701 132.668 60.1931 134.815C61.6633 135.313 62.9782 134.278 63.2878 132.247C63.5981 130.217 64.2943 130.753 64.3323 129.526C55.0475 129.985 29.5149 104.076 27.6576 97.7888ZM64.6809 128.069C64.3717 128.069 63.753 127.685 63.4427 127.685C63.2882 127.839 63.1332 128.031 63.1332 128.337C63.4424 128.643 64.8355 128.835 64.6809 128.069ZM76.0941 128.299C75.9392 127.225 77.4858 127.225 77.951 126.766C78.7243 125.462 65.9574 126.153 64.3323 126.651C64.1788 127.112 66.0357 127.572 65.7254 129.066C65.5704 129.833 64.9517 130.445 65.1067 131.366C70.0199 130.522 73.0371 130.561 76.7516 131.022C77.022 130.445 75.7835 129.221 76.0941 128.299ZM78.6081 127.648C78.2985 127.495 77.9514 127.955 77.6407 128.108C77.7957 128.261 78.3771 128.529 79.0338 128.337C79.0718 127.878 78.6081 127.801 78.6081 127.648ZM118.494 102.312C118.727 100.703 117.644 100.356 116.871 99.5904C116.095 98.8242 115.284 98.3643 114.627 97.6353C114.277 98.977 114.627 98.977 113.428 100.32C106.463 110.974 93.1551 123.431 82.9409 128.069C80.6579 129.295 79.2659 129.525 77.3327 129.372C77.3327 129.832 77.7957 130.599 77.9514 131.058C78.4144 132.438 77.6407 136.003 82.4772 134.853C82.4772 134.853 91.994 131.327 102.673 121.515C115.593 109.671 118.494 102.312 118.494 102.312ZM113.233 97.1761C112.923 97.1761 112.15 97.7889 111.995 97.9424C111.995 98.4023 112.459 98.7101 112.77 99.0165C113.389 98.7101 113.543 97.7889 113.233 97.1761ZM120.816 87.0574C121.203 86.1369 118.146 84.0677 116.947 84.1448C116.908 85.2174 116.483 85.9457 115.71 87.6708C114.433 90.5084 112.15 92.7296 111.221 95.4901C111.066 95.95 110.758 96.5634 111.221 97.023C113.04 95.8349 114.82 95.6437 116.406 97.5593C116.871 97.2536 116.986 96.2176 117.258 95.6437C118.34 93.3434 120.816 90.2766 120.816 87.0574ZM115.245 85.8312L114.277 84.7967C113.851 85.1407 113.078 85.8693 112.77 86.2524C113.117 86.9806 113.658 87.594 114.356 87.938C114.82 87.9384 115.09 86.2911 115.245 85.8312ZM113.543 82.6116C112.731 82.7637 110.758 84.4508 111.686 85.3706C113.891 85.6784 112.692 83.3007 113.659 83.0715C115.168 83.0715 114.743 84.6044 115.98 84.0297C116.56 83.0331 114.201 82.4961 113.543 82.6116Z" fill="white"/>
<path fill-rule="evenodd" clip-rule="evenodd" d="M58.8726 132.421C58.6284 132.966 58.5668 133.028 58.262 132.966L58.0178 132.845C57.9573 132.845 57.8957 132.966 57.8957 133.028C58.3226 133.268 58.6284 133.329 58.9335 133.45C59.1176 133.57 59.4224 133.752 59.7887 133.934C59.8492 133.873 59.8492 133.752 59.8492 133.692L59.6666 133.57C59.4224 133.389 59.4224 133.389 59.6666 132.845L60.8269 130.365C60.8885 130.243 60.8885 130.243 61.0096 130.304L61.3759 130.425C61.8039 130.667 61.8039 130.909 61.6807 131.392C61.6807 131.392 61.8644 131.454 61.8644 131.392C62.0481 131.09 62.2913 130.667 62.4145 130.545C62.4145 130.485 62.4145 130.425 62.3529 130.425H62.2913C62.1702 130.485 62.1086 130.425 61.7434 130.243L59.6666 129.276C59.2386 129.095 59.2386 129.095 59.2386 128.973C59.1781 128.973 59.2386 128.973 59.1781 128.913C59.1176 128.913 59.056 128.913 59.056 128.913C58.9335 129.095 58.7509 129.458 58.445 129.76C58.445 129.82 58.5067 129.941 58.6288 129.941C58.994 129.638 59.1781 129.458 59.605 129.638L59.9725 129.82C60.0935 129.88 60.0935 129.88 60.033 130.002L58.8726 132.421ZM57.1626 129.941C57.4677 129.518 57.6514 129.095 57.8957 128.973C57.9573 128.913 58.0783 128.913 58.2015 128.973L58.3226 129.034C58.3831 128.973 58.4447 128.913 58.4447 128.792C58.2015 128.731 58.0178 128.611 57.8341 128.49C57.6514 128.369 57.4072 128.248 57.1021 128.126C57.0405 128.126 57.0405 128.248 57.0405 128.308L57.1021 128.369C57.2862 128.49 57.3467 128.55 57.3467 128.731C57.3467 128.913 57.1021 129.336 56.9184 129.76L56.4915 130.485C56.3683 130.607 56.3683 130.667 56.3078 130.727C56.3078 130.545 56.1867 130.243 56.124 129.82L55.9414 129.034C55.8193 128.248 55.6968 127.642 55.7588 127.34C55.6367 127.34 55.5131 127.218 55.3315 127.098C55.0873 126.977 54.7815 126.856 54.5977 126.675C54.4767 126.675 54.4162 126.795 54.4162 126.916L54.5977 126.977C54.7209 127.098 54.7815 127.218 54.7815 127.34C54.7815 127.4 54.7209 127.521 54.5977 127.823L53.8056 129.215C53.561 129.638 53.3156 130.002 53.133 130.123C53.0714 130.183 52.9504 130.123 52.8272 130.123H52.7062C52.6445 130.123 52.584 130.243 52.584 130.304C52.7667 130.425 53.0109 130.485 53.1946 130.607C53.3773 130.727 53.6215 130.848 53.8661 131.03C53.9262 130.969 53.9882 130.848 53.9882 130.788L53.8661 130.727C53.7425 130.607 53.6215 130.485 53.6215 130.365C53.682 130.183 53.8661 129.76 54.1103 129.336L54.7209 128.307C54.7815 128.125 54.842 128.005 54.9036 128.005C54.9652 128.125 55.0257 128.429 55.1478 128.973L55.5131 131.212C55.6367 131.634 55.6367 132.058 55.6367 132.058C55.7588 132.12 55.9414 132.12 56.003 132.12C56.0635 131.878 56.3078 131.575 56.4915 131.213L57.1626 129.941ZM49.5288 126.129C49.102 126.675 48.9798 127.158 49.102 127.521C49.2241 128.005 49.5288 128.307 49.8952 128.55C50.3232 128.853 50.8109 128.913 51.2392 128.853C51.6661 128.671 52.0336 128.308 52.3996 127.824L52.7659 127.28C53.0102 126.856 53.3149 126.494 53.437 126.372C53.6208 126.312 53.7418 126.312 53.8654 126.372L53.9875 126.434C54.048 126.372 54.1096 126.312 54.048 126.252C53.8654 126.13 53.6813 126.01 53.4986 125.828C53.3149 125.768 53.1323 125.586 52.8264 125.404C52.7659 125.404 52.7054 125.526 52.7054 125.526L52.8264 125.706C52.9497 125.828 53.0102 125.948 53.0102 126.07C53.0102 126.252 52.7054 126.613 52.3996 127.038L52.0339 127.642C51.5444 128.369 50.9349 128.792 50.3235 128.369C49.5292 127.824 49.8956 127.098 50.3235 126.493L51.1182 125.343C51.4219 124.92 51.4835 124.858 51.7277 124.98L51.9103 125.04C51.9709 125.04 52.0336 124.92 51.9709 124.858C51.7893 124.678 51.544 124.557 51.2392 124.375C50.995 124.193 50.7508 124.013 50.5062 123.891C50.4456 123.891 50.384 123.951 50.384 124.013L50.5062 124.133C50.6903 124.315 50.6903 124.375 50.384 124.858L49.5288 126.129ZM49.2241 122.742C48.6736 122.378 48.1246 122.136 47.5137 122.197C46.9643 122.197 46.415 122.378 45.9265 122.984C45.4981 123.588 45.4376 124.256 45.6214 124.738C45.7424 125.282 46.1707 125.828 46.5976 126.191C46.9639 126.493 47.5133 126.613 47.7579 126.675C47.9416 126.613 48.2475 126.372 48.5522 126.07C48.5522 125.948 48.4917 125.888 48.429 125.828C48.0638 126.13 47.3923 126.372 46.8418 125.888C46.2312 125.464 46.0486 124.496 46.7813 123.528C47.5133 122.561 48.4917 122.5 49.04 122.924C49.5285 123.286 49.6517 123.77 49.4074 124.316C49.4074 124.376 49.5285 124.496 49.6517 124.436C49.8343 124.133 50.0786 123.71 50.1391 123.65C50.0184 123.528 49.7126 123.104 49.2241 122.742ZM45.0111 123.044C45.438 122.5 45.3159 121.955 45.1321 121.593L45.0111 121.169C44.827 120.806 44.827 120.443 45.0111 120.261C45.1938 120.019 45.4985 119.899 45.8033 120.201C46.1711 120.503 46.049 120.988 45.9874 121.29C45.9874 121.411 46.1711 121.471 46.1711 121.471C46.4153 121.169 46.598 120.806 46.6585 120.746C46.6585 120.625 46.598 120.625 46.5374 120.503C46.4153 120.323 46.1711 120.141 46.049 120.019C45.3775 119.475 44.6444 119.475 44.2164 120.019C43.8508 120.443 43.9113 121.048 44.1559 121.532C44.2769 121.895 44.4607 122.378 44.1559 122.803C43.9113 123.044 43.6055 123.105 43.2402 122.803C42.8724 122.501 42.8724 121.773 43.0561 121.411C43.0561 121.35 42.934 121.23 42.8724 121.29C42.5676 121.593 42.3245 121.955 42.3245 122.197C42.385 122.318 42.5676 122.742 42.9956 123.044C43.6671 123.65 44.5223 123.65 45.0111 123.044ZM42.506 117.538C42.6898 117.357 42.6898 117.357 42.8119 117.478L43.1797 117.84C43.4228 118.022 43.4845 118.205 43.4845 118.385C43.4845 118.506 43.4228 118.687 43.3612 118.869C43.4228 118.99 43.4845 119.05 43.545 119.05C43.7881 118.687 44.0954 118.325 44.1559 118.264C44.0954 118.205 43.8508 118.022 43.4845 117.72L42.506 116.873C42.3245 116.631 42.0799 116.45 41.8345 116.208C41.8345 116.208 41.7135 116.328 41.7135 116.45L41.8345 116.51C41.9567 116.752 41.9567 116.813 41.5903 117.175L40.0636 118.929C39.6984 119.353 39.5748 119.353 39.3922 119.172L39.2095 119.051C39.0863 119.051 38.9638 119.172 39.0258 119.233C39.3305 119.535 39.5748 119.656 39.819 119.898L40.43 120.442C40.7967 120.746 41.1631 121.168 41.4689 121.41C41.6516 121.29 42.0795 121.048 42.3241 120.806C42.3241 120.746 42.2614 120.624 42.2009 120.624C41.4693 120.926 41.2852 120.806 40.8583 120.442C40.5536 120.2 40.4905 120.019 40.5536 119.898C40.5536 119.777 40.6141 119.595 40.8583 119.353L41.2852 118.869C41.4693 118.747 41.4693 118.747 41.5903 118.869L41.8962 119.112C42.1404 119.353 42.1404 119.414 42.0183 119.656L41.9567 119.777C41.8962 119.898 42.0183 120.019 42.0799 119.958C42.2614 119.777 42.385 119.656 42.5676 119.475C42.6898 119.293 42.8724 119.112 42.9956 118.991C42.9956 118.929 42.8724 118.869 42.7514 118.869L42.6898 118.929C42.4455 119.112 42.3245 119.112 42.1404 118.869L41.8345 118.627C41.6519 118.507 41.7135 118.445 41.774 118.326L42.506 117.538ZM39.0258 114.332C39.1479 114.211 39.2095 114.15 39.3305 114.09C39.3922 114.09 39.5143 114.15 39.5748 114.272C40.43 115.058 40.3695 115.905 39.5748 116.752C39.0258 117.357 38.0481 117.78 37.3165 117.055C37.1933 116.873 37.0723 116.692 37.0723 116.571C37.0723 116.328 37.1933 116.208 37.4991 115.966L39.0258 114.332ZM36.6443 115.482C36.2776 115.905 36.217 115.905 35.9728 115.785L35.7891 115.663L35.667 115.785C35.9123 116.026 36.1565 116.208 36.4011 116.45C36.5222 116.631 36.7048 116.873 36.8885 117.055C37.3774 117.538 37.8042 117.78 38.2931 117.903C39.0262 118.143 39.7589 117.963 40.3699 117.357C40.8587 116.813 41.1029 116.025 40.675 115.179C40.4909 114.816 40.1861 114.453 39.8198 114.09C39.3313 113.606 38.9646 113.304 38.5993 113.001C38.5388 112.941 38.4156 113.06 38.4156 113.123L38.5388 113.183C38.6598 113.425 38.5993 113.485 38.2329 113.908L36.6443 115.482ZM36.5838 113.304C36.949 112.94 37.3169 112.698 37.4995 112.578C37.6216 112.518 37.6832 112.578 37.8658 112.698L37.9275 112.758C38.0485 112.758 38.1105 112.638 38.1105 112.578C37.9275 112.396 37.8042 112.276 37.6216 112.094C37.4379 111.974 37.2552 111.73 37.0726 111.55C36.9494 111.55 36.8885 111.61 36.8885 111.67L36.949 111.791C37.0723 111.974 37.1933 112.034 37.0723 112.154C37.0106 112.336 36.7044 112.698 36.3392 113.06L35.7887 113.666C35.6666 113.728 35.6061 113.788 35.5456 113.848C35.6061 113.606 35.6061 113.365 35.6061 112.941L35.6666 112.094C35.7887 111.307 35.7887 110.703 35.9724 110.461C35.8503 110.4 35.7282 110.217 35.6061 110.037C35.3615 109.855 35.1777 109.673 34.9951 109.493C34.9346 109.433 34.873 109.553 34.8125 109.613L34.9346 109.735C35.0567 109.915 35.0567 110.037 34.9951 110.157C34.9951 110.279 34.9346 110.279 34.6904 110.521L33.5909 111.61C33.2246 112.034 32.8578 112.276 32.6752 112.336C32.6147 112.396 32.4915 112.336 32.3077 112.276L32.1867 112.216C32.1867 112.216 32.0646 112.336 32.0646 112.396C32.1867 112.578 32.431 112.698 32.6147 112.88C32.7357 113 32.9198 113.182 33.1629 113.424L33.2862 113.304L33.2246 113.122C33.1629 113 33.0419 112.88 33.0419 112.758C33.1629 112.578 33.4699 112.276 33.7735 111.912L34.6287 111.065C34.8734 110.884 34.935 110.823 34.935 110.823C34.9955 110.945 34.935 111.307 34.8734 111.852L34.6287 114.03C34.6287 114.513 34.5066 114.877 34.5066 114.877C34.6288 114.997 34.8129 115.058 34.8734 115.058C34.9955 114.877 35.3013 114.635 35.6064 114.332L36.5838 113.304ZM31.5761 108.887C31.5156 108.827 31.454 108.827 31.6366 108.766L32.1255 108.585C32.3697 108.403 32.6756 108.343 32.7361 108.283C32.7361 108.403 32.6151 108.645 32.4313 108.887L32.1255 109.31C32.1255 109.492 32.065 109.432 31.9425 109.31L31.5761 108.887ZM31.6971 109.613C31.8809 109.734 31.8809 109.795 31.8204 109.915L31.5761 110.34C31.454 110.58 31.3924 110.703 31.3319 110.703C31.2714 110.703 31.2714 110.703 31.1493 110.703L30.9652 110.52C30.9047 110.52 30.7814 110.58 30.7814 110.703C30.9652 110.884 31.1493 111.064 31.3924 111.306C31.5761 111.55 31.7599 111.79 31.9425 112.033C32.0041 112.033 32.1255 111.973 32.1255 111.852L32.0045 111.67C31.8812 111.488 32.0045 111.306 32.1255 111.004L33.4703 108.827C33.7138 108.403 33.7739 108.221 33.8964 108.041C33.958 107.979 33.958 107.919 33.8964 107.859C33.8964 107.859 33.4703 107.859 33.2865 107.677C33.1633 107.797 32.8582 107.859 32.5523 108.041L31.0257 108.585C30.5988 108.766 30.2941 108.887 29.9889 108.887C29.8052 109.008 29.6215 108.948 29.561 108.827L29.378 108.706C29.3164 108.706 29.1942 108.827 29.2547 108.887C29.4385 109.128 29.561 109.25 29.6831 109.371C29.8052 109.613 29.9889 109.734 30.11 109.975C30.2332 109.975 30.2941 109.855 30.2941 109.795L30.2335 109.613C30.1103 109.492 30.1103 109.432 30.1719 109.432C30.2335 109.371 30.2335 109.31 30.3549 109.31L31.026 109.008C31.1493 108.948 31.1493 108.948 31.2718 109.068L31.6971 109.613ZM30.5372 104.894C30.7209 104.712 30.7814 104.712 30.9652 104.894C31.2714 105.258 31.1493 105.802 30.7209 106.104C30.4767 106.346 30.2335 106.407 30.11 106.346C29.9262 106.346 29.8052 106.285 29.6831 106.104C29.4385 105.863 29.4385 105.802 29.561 105.681L30.5372 104.894ZM27.9738 105.923C27.5454 106.285 27.4838 106.285 27.2396 106.104L27.1186 105.983C27.057 105.983 26.9348 106.104 26.9348 106.165C27.1186 106.407 27.3628 106.588 27.5454 106.83C27.79 107.011 27.9122 107.253 28.0948 107.555C28.218 107.555 28.339 107.435 28.339 107.374L28.218 107.253C28.0948 107.011 28.0948 106.951 28.5231 106.588L29.1337 106.104C29.1942 105.983 29.1942 105.983 29.378 106.165C29.4385 106.285 29.5005 106.407 29.4385 106.588C29.2547 106.89 29.0721 107.193 28.95 107.555C28.8279 108.04 28.8279 108.462 29.1942 108.887C29.378 109.008 29.5005 109.19 29.561 109.25C29.6831 109.25 29.7447 109.128 29.7447 109.068C29.6831 109.008 29.561 108.887 29.561 108.645C29.561 108.283 29.8052 107.737 30.1716 106.951C30.2332 106.89 30.2332 106.83 30.2941 106.83C30.5372 107.011 30.9652 107.132 31.3924 106.77C31.6971 106.528 31.8204 106.165 31.7599 105.802C31.6971 105.5 31.454 105.136 31.1493 104.712C30.7814 104.288 30.4162 103.926 30.1103 103.563C30.0498 103.563 29.9266 103.685 29.9266 103.745L29.9893 103.865C30.1719 104.108 30.1103 104.108 29.6835 104.53L27.9738 105.923ZM27.3628 104.592C27.6059 104.41 27.6676 104.41 27.8506 104.53L27.9738 104.592L28.0948 104.53C27.9738 104.288 27.79 104.108 27.6059 103.865C27.4838 103.623 27.2396 103.38 27.057 103.018C26.9348 102.958 26.8124 103.08 26.8743 103.14L26.9953 103.38C27.1186 103.623 27.1186 103.685 26.8124 103.865L26.5076 104.108C26.2029 104.288 26.0793 104.288 25.8966 103.987C25.7745 103.805 25.5919 103.563 25.5919 103.2C25.5919 102.716 25.8361 102.172 26.5076 101.687C27.3628 101.083 28.2785 100.962 28.8279 101.808C29.1942 102.232 29.1337 102.715 28.8279 103.261C28.8279 103.261 28.8895 103.442 28.95 103.38C29.1942 103.14 29.561 102.838 29.6831 102.776C29.561 102.656 29.5005 102.233 29.1337 101.687C28.7674 101.265 28.3995 100.901 27.9738 100.78C27.2396 100.356 26.4471 100.478 25.8365 100.962C25.1038 101.445 24.8581 102.232 25.0418 103.018C25.1643 103.442 25.2864 103.805 25.5295 104.108C25.7749 104.41 26.1401 104.773 26.3242 104.954C26.508 105.015 26.629 105.135 26.6906 105.197C26.7522 105.257 26.8127 105.135 26.8127 105.075C26.7522 105.015 26.8127 104.954 27.0573 104.773L27.3628 104.592Z" fill="#EE3E33"/>
<path fill-rule="evenodd" clip-rule="evenodd" d="M113.757 101.842C113.574 101.72 113.513 101.72 113.635 101.538L113.94 101.056C114.063 100.813 114.245 100.691 114.429 100.631C114.55 100.631 114.795 100.631 115.039 100.691C115.039 100.691 115.161 100.511 115.101 100.45C114.734 100.268 114.307 100.088 114.184 100.026C114.184 100.148 113.94 100.389 113.757 100.813L113.085 101.963C112.903 102.266 112.719 102.507 112.535 102.749C112.535 102.81 112.658 102.931 112.719 102.931L112.841 102.749C113.024 102.568 113.085 102.507 113.635 102.81L115.711 104.08C116.2 104.382 116.2 104.444 116.138 104.686L116.016 104.988C115.955 105.109 116.138 105.169 116.261 105.109C116.505 104.746 116.626 104.444 116.749 104.14L117.176 103.476C117.481 102.992 117.847 102.446 118.031 102.144C117.909 101.963 117.481 101.6 117.3 101.419C117.176 101.419 117.054 101.479 117.116 101.539C117.544 102.266 117.421 102.446 117.176 102.932C116.872 103.354 116.81 103.414 116.626 103.414C116.505 103.476 116.321 103.354 116.078 103.234L115.406 102.81C115.223 102.689 115.223 102.689 115.284 102.568L115.528 102.144C115.711 101.842 115.772 101.842 116.078 101.963L116.261 102.024C116.321 102.024 116.445 101.842 116.382 101.842C116.2 101.721 115.955 101.6 115.772 101.479C115.528 101.297 115.345 101.177 115.162 101.116C115.162 101.056 115.039 101.237 115.039 101.297L115.162 101.419C115.406 101.6 115.406 101.721 115.223 101.963L115.039 102.386C114.918 102.507 114.918 102.507 114.735 102.446L113.757 101.842ZM111.377 105.532C111.132 105.351 111.132 105.351 111.314 105.109C111.558 104.686 112.108 104.625 112.597 104.988C112.903 105.229 112.964 105.411 113.024 105.532C113.085 105.774 112.964 105.895 112.841 106.076C112.658 106.378 112.658 106.378 112.413 106.258L111.377 105.532ZM113.147 107.831C113.635 108.194 113.635 108.254 113.513 108.496L113.452 108.678C113.452 108.738 113.574 108.799 113.696 108.859C113.879 108.496 114.001 108.315 114.184 108.013C114.368 107.771 114.55 107.529 114.795 107.287C114.734 107.226 114.612 107.106 114.55 107.106L114.429 107.287C114.184 107.408 114.184 107.408 113.635 107.106L112.964 106.682C112.903 106.561 112.903 106.561 113.024 106.378C113.147 106.258 113.208 106.199 113.391 106.199C113.757 106.318 114.184 106.318 114.49 106.378C115.039 106.44 115.528 106.258 115.834 105.774C116.016 105.594 116.078 105.471 116.078 105.229H115.955C115.834 105.29 115.711 105.412 115.528 105.472C115.162 105.532 114.551 105.472 113.635 105.352C113.513 105.352 113.513 105.352 113.513 105.229C113.513 104.928 113.574 104.444 113.085 104.14C112.719 103.898 112.353 103.898 111.986 104.021C111.68 104.14 111.314 104.504 111.009 104.928C110.642 105.471 110.398 105.895 110.154 106.318C110.154 106.378 110.277 106.44 110.338 106.44L110.46 106.318C110.642 106.076 110.704 106.136 111.253 106.561L113.147 107.831ZM110.887 108.678C111.742 109.283 112.169 110.009 111.68 110.674C111.069 111.582 109.849 111.038 109.177 110.614C108.322 109.949 107.956 109.162 108.445 108.496C108.933 107.831 109.91 108.013 110.887 108.678ZM108.2 108.315C107.407 109.403 107.651 110.735 108.688 111.521C109.849 112.309 111.069 112.066 111.864 111.038C112.719 109.889 112.535 108.619 111.377 107.771C110.338 106.983 108.994 107.226 108.2 108.315ZM106.917 113.458C106.735 113.216 106.735 113.216 106.98 112.974C107.345 112.49 107.895 112.49 108.322 112.912C108.75 113.216 108.871 113.639 108.567 114.002C108.2 114.425 107.896 114.243 107.529 113.941L106.917 113.458ZM105.574 112.248C105.33 112.006 105.33 112.006 105.513 111.824C105.818 111.461 106.245 111.34 106.674 111.704C106.98 112.006 107.101 112.368 106.796 112.792C106.552 113.095 106.552 113.095 106.368 112.913L105.574 112.248ZM107.04 114.728C107.529 115.09 107.529 115.152 107.406 115.394L107.284 115.576C107.223 115.636 107.345 115.756 107.467 115.756C107.711 115.454 107.895 115.213 108.078 114.971C108.2 114.848 108.444 114.668 108.627 114.486C108.871 114.184 109.115 113.822 109.298 113.336C109.482 112.974 109.422 112.49 108.993 112.066C108.444 111.704 107.955 111.824 107.528 112.126C107.467 112.126 107.467 112.126 107.406 112.126C107.406 112.126 107.406 112.066 107.467 112.006C107.528 111.824 107.65 111.34 107.284 110.976C106.979 110.674 106.673 110.674 106.367 110.735C106.001 110.856 105.696 111.158 105.208 111.582C104.841 112.066 104.598 112.428 104.23 112.853C104.169 112.974 104.353 113.034 104.414 113.034L104.536 112.913C104.719 112.732 104.78 112.792 105.329 113.216L107.04 114.728ZM103.865 116.664C103.743 116.785 103.743 116.785 103.62 116.603L103.375 116.18C103.254 115.938 103.071 115.636 103.01 115.514C103.131 115.514 103.438 115.696 103.681 115.818L104.23 116.059C104.354 116.059 104.354 116.12 104.23 116.241L103.865 116.664ZM104.536 116.421C104.659 116.301 104.719 116.301 104.781 116.301L105.391 116.543C105.635 116.603 105.756 116.725 105.756 116.725C105.818 116.785 105.818 116.845 105.756 116.967L105.635 117.149C105.635 117.209 105.696 117.269 105.88 117.329C106.001 117.027 106.185 116.845 106.429 116.603C106.673 116.361 106.916 116.12 107.1 115.878C107.1 115.818 106.979 115.696 106.916 115.756L106.735 115.878C106.49 115.998 106.367 115.938 106.001 115.818L103.438 114.729C103.01 114.547 102.765 114.487 102.583 114.366C102.52 114.306 102.459 114.366 102.399 114.426C102.399 114.426 102.459 114.789 102.338 115.091C102.459 115.213 102.583 115.454 102.765 115.818L103.559 117.33C103.803 117.753 103.986 118.056 104.109 118.298C104.169 118.6 104.169 118.721 104.046 118.781L103.925 119.023C103.925 119.084 104.046 119.144 104.109 119.205C104.353 118.903 104.414 118.781 104.598 118.6C104.78 118.419 104.964 118.237 105.146 118.116C105.146 117.996 105.025 117.874 104.964 117.874L104.78 117.996C104.658 118.116 104.598 118.176 104.598 118.116C104.536 118.056 104.474 118.056 104.414 117.935L104.046 117.269C103.925 117.149 103.925 117.149 104.046 117.028L104.536 116.421ZM100.017 118.358C99.5893 117.935 99.5893 117.814 99.7125 117.633L99.8335 117.511C99.8335 117.391 99.773 117.269 99.7125 117.269C99.4682 117.572 99.2845 117.814 99.0414 117.996C98.7968 118.237 98.5514 118.419 98.2467 118.661C98.2467 118.721 98.3688 118.843 98.4304 118.781L98.613 118.721C98.7968 118.539 98.9178 118.539 99.3461 119.023L101.055 120.778C101.422 121.141 101.483 121.201 101.3 121.443L101.117 121.686C101.117 121.746 101.178 121.806 101.361 121.867C101.604 121.565 101.788 121.323 102.032 121.081L102.643 120.476C103.01 120.113 103.498 119.689 103.803 119.509C103.681 119.265 103.438 118.781 103.194 118.479C103.131 118.479 103.01 118.601 103.01 118.601C103.254 119.447 103.131 119.569 102.704 119.992C102.339 120.354 102.277 120.354 102.155 120.354C101.972 120.354 101.789 120.234 101.605 119.992L100.017 118.358ZM96.7196 123.138C96.5975 123.198 96.5359 123.259 96.4754 123.077L96.2917 122.654C96.1706 122.291 96.109 121.989 96.0474 121.867C96.1706 121.929 96.4149 122.109 96.6591 122.291L97.1465 122.594C97.2697 122.654 97.2697 122.714 97.1465 122.775L96.7196 123.138ZM97.3911 123.077C97.5752 122.896 97.6357 122.896 97.6973 122.956L98.1858 123.319C98.43 123.379 98.5511 123.501 98.6127 123.561C98.6127 123.621 98.6127 123.621 98.4906 123.743L98.3684 123.924C98.3068 123.984 98.3684 124.106 98.5511 124.166C98.7337 123.924 98.9174 123.743 99.162 123.501C99.4679 123.319 99.7726 123.138 100.017 122.956C100.017 122.836 99.9564 122.714 99.8959 122.775L99.6505 122.836C99.4063 122.956 99.2841 122.896 98.9174 122.654L96.5975 121.201C96.1707 120.96 95.9869 120.778 95.8648 120.658C95.7427 120.658 95.7427 120.658 95.6202 120.658C95.6202 120.658 95.6807 121.081 95.4365 121.323C95.6202 121.443 95.6202 121.746 95.7427 122.108L96.2917 123.743C96.4754 124.226 96.5359 124.529 96.5975 124.832C96.6591 125.074 96.5975 125.196 96.4754 125.316L96.3533 125.498C96.3533 125.558 96.4149 125.618 96.4754 125.679C96.7801 125.498 96.8418 125.316 97.0255 125.134C97.2697 125.074 97.5132 124.892 97.697 124.772C97.697 124.65 97.6353 124.53 97.5748 124.53L97.3907 124.59C97.207 124.71 97.1465 124.71 97.1465 124.71C97.086 124.65 97.0255 124.59 97.0255 124.468L96.7196 123.744C96.6591 123.621 96.6591 123.621 96.7801 123.501L97.3911 123.077ZM94.4602 125.981C94.8266 126.465 94.8266 126.526 94.644 126.768L94.3997 126.949C94.3997 127.01 94.3997 127.13 94.5812 127.13C94.8871 126.888 95.193 126.646 95.3756 126.465C95.6198 126.284 95.926 126.103 96.2913 125.861C96.2913 125.739 96.1703 125.679 96.1087 125.679L95.8644 125.799C95.6198 125.921 95.4977 125.921 95.193 125.436L93.4209 123.138C93.2999 123.017 93.3604 122.956 93.4837 122.836L93.7884 122.654C94.1551 122.291 94.3994 122.533 94.8262 122.775C94.8262 122.836 94.9483 122.714 94.9483 122.654C94.7041 122.352 94.4599 121.867 94.3378 121.687C94.3378 121.687 94.2761 121.687 94.2761 121.747C94.2156 121.747 94.2156 121.747 94.2156 121.747C94.2156 121.929 94.1551 121.989 93.8489 122.231L91.8943 123.744C91.4674 123.984 91.4069 123.984 91.3464 123.924C91.2848 123.924 91.2848 123.924 91.2848 123.984C91.2231 123.984 91.2231 123.984 91.2231 124.046C91.2848 124.288 91.529 124.59 91.7116 125.074C91.7732 125.134 91.8942 125.014 91.9559 124.953C91.8337 124.469 91.7732 124.167 92.078 123.864L92.4447 123.621C92.5657 123.501 92.6284 123.561 92.6889 123.684L94.4602 125.981ZM89.6363 125.074C89.0873 125.436 88.5974 125.981 88.4155 126.586C88.2318 127.13 88.2318 127.796 88.6586 128.401C89.087 129.129 89.6965 129.369 90.2469 129.431C90.8579 129.491 91.5294 129.309 92.0784 129.007C92.5056 128.704 92.8103 128.281 93.0557 127.978C93.0557 127.857 92.9336 127.434 92.6893 127.011C92.6288 127.011 92.5056 127.07 92.4451 127.13C92.5056 127.554 92.5056 128.22 91.8341 128.644C91.2235 129.129 90.1853 128.886 89.4526 127.796C88.7815 126.707 89.0873 125.8 89.7584 125.376C90.3074 125.074 90.8579 125.074 91.2851 125.558C91.3467 125.558 91.5294 125.437 91.4678 125.316C91.2235 125.074 90.9188 124.591 90.8583 124.469C90.735 124.59 90.1853 124.71 89.6363 125.074ZM85.1172 130.821C85.4219 131.486 85.7886 131.85 86.2166 131.91C86.7051 132.031 87.1323 131.91 87.5607 131.728C87.9875 131.486 88.3528 131.063 88.476 130.639C88.597 130.095 88.4155 129.611 88.1085 129.065L87.7422 128.46C87.5607 127.916 87.3164 127.433 87.3164 127.312C87.3164 127.191 87.4374 127.069 87.5607 126.949L87.6817 126.887C87.6817 126.827 87.6212 126.705 87.5607 126.705C87.3164 126.767 87.1327 126.949 86.8881 127.009C86.6427 127.129 86.4612 127.251 86.0949 127.373C86.0949 127.433 86.0949 127.614 86.217 127.614L86.3985 127.553C86.5822 127.493 86.7055 127.433 86.8265 127.553C86.9486 127.675 87.1932 128.098 87.4374 128.582L87.8654 129.307C88.2318 130.094 88.3528 130.82 87.5607 131.183C86.6427 131.667 86.2166 130.942 85.9108 130.276L85.1777 128.946C84.8718 128.4 84.9345 128.34 85.1777 128.158L85.2998 128.038C85.3618 127.977 85.2393 127.916 85.2393 127.856C84.9345 128.038 84.6287 128.219 84.3239 128.34C84.0797 128.46 83.7738 128.642 83.4687 128.703C83.4687 128.763 83.4687 128.946 83.5912 128.946L83.7738 128.884C84.0181 128.824 84.0797 128.824 84.3239 129.368L85.1172 130.821ZM82.5519 131.971C82.3693 132.031 82.3693 132.031 82.3088 131.85L82.2483 131.366C82.2483 131.003 82.2483 130.761 82.1856 130.519C82.3693 130.64 82.4914 130.882 82.674 131.063L83.1009 131.486C83.2241 131.608 83.1636 131.668 83.0404 131.728L82.5519 131.971ZM83.2241 132.031C83.4068 131.971 83.4684 131.971 83.5289 132.031L83.9561 132.454C84.1398 132.636 84.262 132.758 84.262 132.818C84.262 132.818 84.262 132.938 84.1398 132.998L83.9561 133.12C83.8956 133.18 83.9561 133.24 84.0793 133.362C84.3236 133.18 84.5667 133.06 84.8714 132.938C85.1773 132.818 85.544 132.696 85.7883 132.576C85.7883 132.454 85.7267 132.333 85.7267 132.333L85.4215 132.393C85.1773 132.454 85.1168 132.333 84.8109 132.031L82.919 130.095C82.5515 129.731 82.4294 129.551 82.3084 129.369C82.2479 129.309 82.1852 129.309 82.1247 129.309C82.1247 129.309 82.0026 129.671 81.758 129.853C81.8196 130.095 81.8196 130.337 81.8801 130.761L82.0026 132.454C82.0026 132.938 82.0026 133.24 82.0026 133.604C82.0026 133.786 81.9406 133.906 81.8196 134.028L81.5742 134.149C81.5742 134.209 81.6358 134.33 81.6974 134.392C82.0026 134.269 82.1247 134.149 82.3689 134.028C82.6737 133.906 82.8574 133.846 83.1005 133.786C83.1005 133.726 83.04 133.544 83.04 133.544L82.7958 133.604C82.6132 133.604 82.5515 133.604 82.5515 133.544C82.5515 133.544 82.491 133.483 82.491 133.362L82.4294 132.576C82.3689 132.393 82.3689 132.393 82.5515 132.333L83.2241 132.031Z" fill="#EE3E33"/>
</g>
<defs>
<clipPath id="clip0">
<rect width="101" height="127" fill="white" transform="translate(21 9)"/>
</clipPath>
</defs>
</svg>
